<?xml version="1.0" standalone="no"?>
<!DOCTYPE svg PUBLIC "-//W3C//DTD SVG 1.1//EN" "http://www.w3.org/Graphics/SVG/1.1/DTD/svg11.dtd" >
<svg>
<metadata>
Created by FontForge 20120731 at Wed Jul 31 14:38:30 2013
 By Stefan Warting
Copyright (C) 2001, 2008 Hoefler &#38; Frere-Jones. http://www.typography.com
</metadata>
<defs>
<font id="Gotham-Ultra" horiz-adv-x="400" >
  <font-face 
    font-family="Gotham Ultra"
    font-weight="500"
    font-stretch="normal"
    units-per-em="1000"
    panose-1="0 0 0 0 0 0 0 0 0 0"
    ascent="800"
    descent="-200"
    x-height="546"
    cap-height="700"
    bbox="-229 -331 1324 1071"
    underline-thickness="50"
    underline-position="-50"
    unicode-range="U+0020-FB04"
  />
<missing-glyph horiz-adv-x="500" 
d="M71 -150h358l-179 390zM278 300l172 -376v752zM222 300l-172 376v-752zM250 360l179 390h-358zM0 800h500v-1000h-500v1000z" />
    <glyph glyph-name="fi" unicode="fi" horiz-adv-x="725" 
d="M458 730h235v-145h-235v145zM462 546h227v-546h-227v546zM76 371h-64v175h64q1 44 12 78.5t37 60.5q28 28 65.5 40t94.5 12q51 0 83.5 -4t55.5 -11v-142q-17 4 -34 6t-39 2q-53 0 -53 -44v-4h126v-169h-121v-371h-227v371z" />
    <glyph glyph-name="fl" unicode="fl" horiz-adv-x="725" 
d="M462 730h227v-730h-227v730zM76 371h-64v175h64q1 44 12 78.5t37 60.5q28 28 65.5 40t94.5 12q51 0 83.5 -4t55.5 -11v-142q-17 4 -34 6t-39 2q-53 0 -53 -44v-4h126v-169h-121v-371h-227v371z" />
    <glyph glyph-name=".notdef" horiz-adv-x="500" 
d="M71 -150h358l-179 390zM278 300l172 -376v752zM222 300l-172 376v-752zM250 360l179 390h-358zM0 800h500v-1000h-500v1000z" />
    <glyph glyph-name="NUL" horiz-adv-x="0" 
 />
    <glyph glyph-name="nonmarkingreturn" horiz-adv-x="254" 
 />
    <glyph glyph-name="space" unicode=" " horiz-adv-x="254" 
 />
    <glyph glyph-name="D" unicode="D" horiz-adv-x="749" 
d="M274 496v-292h39q81 0 128.5 34.5t47.5 110.5v2q0 76 -47.5 110.5t-128.5 34.5h-39zM40 700h268q104 0 182.5 -24.5t130.5 -69.5t78 -108.5t26 -141.5v-2q0 -78 -26.5 -143t-80 -112t-133 -73t-185.5 -26h-260v700z" />
    <glyph glyph-name="E" unicode="E" horiz-adv-x="665" 
d="M40 700h597v-192h-367v-71h342v-169h-342v-76h372v-192h-602v700z" />
    <glyph glyph-name="F" unicode="F" horiz-adv-x="641" 
d="M40 700h586v-200h-352v-89h327v-182h-327v-229h-234v700z" />
    <glyph glyph-name="G" unicode="G" horiz-adv-x="754" 
d="M417 -15q-82 0 -153.5 26t-125 74t-84 115t-30.5 148v2q0 78 29 145t81 116t122.5 76.5t153.5 27.5q91 0 163.5 -28t129.5 -78l-131 -158q-35 29 -73 45t-82 16q-34 0 -63 -12.5t-50 -34.5t-32.5 -52t-11.5 -66v-2q0 -37 12.5 -68t34.5 -53t52.5 -34t67.5 -12q30 0 48 4
t32 12v70h-120v150h339v-324q-57 -47 -135 -76t-174 -29z" />
    <glyph glyph-name="H" unicode="H" horiz-adv-x="762" 
d="M40 700h234v-247h214v247h234v-700h-234v251h-214v-251h-234v700z" />
    <glyph glyph-name="I" unicode="I" horiz-adv-x="318" 
d="M42 700h234v-700h-234v700z" />
    <glyph glyph-name="J" unicode="J" horiz-adv-x="564" 
d="M256 -14q-50 0 -90 9.5t-72 27t-56.5 41t-43.5 52.5l153 129q20 -29 41 -45t50 -16t47 22t18 59v435h228v-431q0 -69 -17 -118.5t-56 -88.5q-36 -36 -87.5 -56t-114.5 -20z" />
    <glyph glyph-name="K" unicode="K" horiz-adv-x="730" 
d="M40 700h234v-262l199 262h272l-244 -304l249 -396h-279l-137 222l-60 -73v-149h-234v700z" />
    <glyph glyph-name="L" unicode="L" horiz-adv-x="614" 
d="M40 700h234v-500h329v-200h-563v700z" />
    <glyph glyph-name="M" unicode="M" horiz-adv-x="868" 
d="M40 700h244l150 -246l150 246h244v-700h-233v347l-161 -249h-4l-161 249v-347h-229v700z" />
    <glyph glyph-name="N" unicode="N" horiz-adv-x="780" 
d="M40 700h219l249 -309v309h232v-700h-208l-260 323v-323h-232v700z" />
    <glyph glyph-name="O" unicode="O" horiz-adv-x="812" 
d="M407 192q33 0 60 13t46 34.5t29 49.5t10 59v2q0 31 -10.5 59.5t-29.5 50.5t-46 35t-61 13q-33 0 -60 -13t-46 -34.5t-29 -49.5t-10 -59v-2q0 -31 10.5 -59.5t29.5 -50.5t46 -35t61 -13zM405 -15q-81 0 -150.5 28t-121 77t-80.5 115.5t-29 142.5v2q0 76 29.5 142.5t81 116
t121.5 78t151 28.5t150.5 -28t121 -77t80.5 -115.5t29 -142.5v-2q0 -76 -29.5 -142.5t-81 -116t-121.5 -78t-151 -28.5z" />
    <glyph glyph-name="P" unicode="P" horiz-adv-x="678" 
d="M337 357q45 0 72.5 19.5t27.5 57.5v2q0 38 -26 57.5t-73 19.5h-64v-156h63zM40 700h315q70 0 127.5 -15.5t98.5 -46.5t64 -78t23 -109v-2q0 -63 -23 -111.5t-65 -81.5t-100.5 -49.5t-129.5 -16.5h-76v-190h-234v700z" />
    <glyph glyph-name="Q" unicode="Q" horiz-adv-x="812" 
d="M407 185q24 0 48 8l-79 68l98 110l75 -68q5 23 5 42v2q0 31 -10.5 60t-30 51.5t-47 36t-61.5 13.5q-33 0 -60 -13.5t-46 -36t-29 -51t-10 -59.5v-2q0 -31 10 -60t29 -51.5t46.5 -36t61.5 -13.5zM700 -21l-77 69q-47 -30 -101.5 -46.5t-116.5 -16.5q-81 0 -150.5 28
t-121 77t-80.5 115.5t-29 142.5v2q0 76 29.5 142.5t81 116t121.5 78t151 28.5t150.5 -28t121 -77t80.5 -115.5t29 -142.5v-2q0 -57 -16.5 -107.5t-45.5 -93.5l72 -61z" />
    <glyph glyph-name="R" unicode="R" horiz-adv-x="715" 
d="M375 367q42 0 66 18t24 50v2q0 34 -24 50.5t-65 16.5h-102v-137h101zM40 700h342q94 0 154.5 -21.5t97.5 -58.5q32 -32 48 -72t16 -94v-2q0 -77 -37 -130t-101 -84l163 -238h-267l-132 200h-50v-200h-234v700z" />
    <glyph glyph-name="S" unicode="S" horiz-adv-x="664" 
d="M341 -13q-107 0 -199.5 29.5t-159.5 88.5l125 149q57 -44 120 -63t125 -19q32 0 46 8t14 22v2q0 15 -20.5 25t-76.5 21q-59 12 -112.5 28t-94 41t-64.5 62.5t-24 93.5v2q0 50 19.5 93t57 75t93 50t127.5 18q102 0 178.5 -24t137.5 -72l-114 -158q-50 36 -105.5 52.5
t-104.5 16.5q-26 0 -38.5 -8t-12.5 -21v-2q0 -7 4 -13t14.5 -11.5t28.5 -10.5t46 -10q67 -12 122 -29t94.5 -43.5t61 -63.5t21.5 -90v-2q0 -55 -22 -99t-62 -74.5t-97.5 -47t-127.5 -16.5z" />
    <glyph glyph-name="T" unicode="T" horiz-adv-x="672" 
d="M219 502h-206v198h646v-198h-206v-502h-234v502z" />
    <glyph glyph-name="U" unicode="U" horiz-adv-x="760" 
d="M378 -14q-78 0 -141.5 18.5t-108.5 58.5t-69.5 102t-24.5 149v386h238v-383q0 -65 30.5 -94.5t77.5 -29.5q48 0 78 27.5t30 91.5v388h238v-381q0 -90 -25 -153t-70.5 -103t-110 -58.5t-142.5 -18.5z" />
    <glyph glyph-name="V" unicode="V" horiz-adv-x="770" 
d="M-11 700h262l136 -393l136 393h258l-284 -705h-224z" />
    <glyph glyph-name="W" unicode="W" horiz-adv-x="1112" 
d="M0 700h245l99 -336l113 338h202l113 -338l99 336h241l-229 -705h-204l-123 348l-123 -348h-204z" />
    <glyph glyph-name="X" unicode="X" horiz-adv-x="732" 
d="M731 700l-227 -341l237 -359h-266l-111 182l-112 -182h-261l237 356l-227 344h266l101 -167l102 167h261z" />
    <glyph glyph-name="Y" unicode="Y" horiz-adv-x="730" 
d="M248 248l-264 452h262l120 -230l121 230h259l-264 -449v-251h-234v248z" />
    <glyph glyph-name="Z" unicode="Z" horiz-adv-x="688" 
d="M18 164l317 344h-305v192h641v-164l-317 -344h317v-192h-653v164z" />
    <glyph glyph-name="a" unicode="a" horiz-adv-x="606" 
d="M282 118q30 0 50 22.5t20 61.5v23q-10 4 -24 6.5t-28 2.5q-34 0 -52 -17.5t-18 -43.5v-2q0 -24 15 -38.5t37 -14.5zM192 -13q-39 0 -72 11t-57 32.5t-37 52.5t-13 72v2q0 82 56 126t152 44q17 0 36 -1.5t36.5 -4.5t32.5 -6.5t24 -7.5v9q0 38 -24 58.5t-77 20.5
q-42 0 -78.5 -8.5t-72.5 -22.5l-40 151q48 18 103 29t127 11q84 0 139.5 -17.5t91.5 -53.5q31 -31 44 -72t13 -101v-311h-227v55q-29 -31 -67.5 -49.5t-89.5 -18.5z" />
    <glyph glyph-name="b" unicode="b" horiz-adv-x="676" 
d="M347 174q39 0 65 28t26 70v2q0 42 -26 70t-65 28t-65 -28t-26 -70v-2q0 -20 7 -38t19 -31.5t28.5 -21t36.5 -7.5zM425 -13q-62 0 -100 23t-64 52v-62h-227v730h227v-251q14 15 29.5 29.5t34.5 25.5t43 18t55 7q49 0 92 -20.5t75 -58t50 -89t18 -114.5v-2
q0 -65 -18.5 -118t-50 -91t-74 -58.5t-90.5 -20.5z" />
    <glyph glyph-name="c" unicode="c" horiz-adv-x="567" 
d="M304 -14q-62 0 -115 23t-91 62t-59.5 90.5t-21.5 108.5v2q0 57 21.5 109t60.5 91.5t94 62.5t122 23q91 0 153 -42t94 -109l-163 -92q-14 26 -33 40.5t-47 14.5q-36 0 -60 -27.5t-24 -68.5v-2q0 -43 23.5 -70.5t57.5 -27.5q30 0 49 14.5t36 40.5l165 -94
q-37 -69 -100.5 -109t-161.5 -40z" />
    <glyph glyph-name="d" unicode="d" horiz-adv-x="676" 
d="M329 174q39 0 65 28t26 70v2q0 20 -7 38t-19 31.5t-29 21t-36 7.5q-39 0 -65 -28t-26 -70v-2q0 -42 26 -70t65 -28zM253 -13q-50 0 -92.5 20.5t-74.5 58t-50 89t-18 114.5v2q0 65 18.5 118t50 91t74 58.5t90.5 20.5q62 0 100 -23t64 -52v246h227v-730h-227v67
q-14 -15 -29.5 -29.5t-34.5 -25.5t-43 -18t-55 -7z" />
    <glyph glyph-name="e" unicode="e" horiz-adv-x="598" 
d="M375 320q-4 39 -25 60.5t-51 21.5q-29 0 -48 -22t-24 -60h148zM317 -13q-67 0 -122.5 20.5t-95 57.5t-61 89t-21.5 116v2q0 61 21 113.5t58 91t88.5 60.5t113.5 22q73 0 126.5 -23.5t88.5 -64.5t52 -96t17 -117v-19t-1 -19h-351q12 -36 39 -54.5t64 -18.5q31 0 57.5 14
t53.5 42l122 -97q-41 -53 -100.5 -86t-148.5 -33z" />
    <glyph glyph-name="f" unicode="f" horiz-adv-x="426" 
d="M76 371h-64v175h64q1 44 12 78.5t37 60.5q28 28 65.5 40t94.5 12q51 0 83.5 -4t55.5 -11v-142q-17 4 -34 6t-39 2q-53 0 -53 -44v-4h126v-169h-121v-371h-227v371z" />
    <glyph glyph-name="g" unicode="g" horiz-adv-x="676" 
d="M329 218q42 0 66.5 25t24.5 61v2q0 35 -24.5 60t-66.5 25t-66.5 -25.5t-24.5 -61.5v-2q0 -35 24.5 -59.5t66.5 -24.5zM325 -162q-91 0 -164 17.5t-139 50.5l70 137q46 -24 93 -38t104 -14q64 0 97 31.5t33 88.5v16q-12 -13 -27.5 -26.5t-35 -24t-43.5 -17.5t-52 -7
q-53 0 -97.5 18t-77 51t-50.5 79t-18 103v2q0 57 18 104t49.5 80.5t73.5 51.5t89 18q60 0 98.5 -20t68.5 -51v58h227v-408q0 -76 -16.5 -129t-54.5 -91q-37 -37 -95.5 -58.5t-150.5 -21.5z" />
    <glyph glyph-name="h" unicode="h" horiz-adv-x="645" 
d="M34 730h227v-257q26 34 67.5 60t99.5 26q87 0 137 -53t50 -146v-360h-227v287q0 35 -18 54.5t-44 19.5t-45.5 -19.5t-19.5 -54.5v-287h-227v730z" />
    <glyph glyph-name="i" unicode="i" horiz-adv-x="299" 
d="M36 546h227v-546h-227v546zM32 730h235v-145h-235v145z" />
    <glyph glyph-name="j" unicode="j" horiz-adv-x="302" 
d="M32 730h235v-145h-235v145zM50 -163q-25 0 -48.5 3t-41.5 5v133h17q32 0 45.5 14t13.5 51v503h227v-507q0 -59 -14.5 -97.5t-42 -62t-67 -33t-89.5 -9.5z" />
    <glyph glyph-name="k" unicode="k" horiz-adv-x="614" 
d="M34 730h227v-352l117 168h247l-171 -222l174 -324h-243l-79 150l-45 -58v-92h-227v730z" />
    <glyph glyph-name="l" unicode="l" horiz-adv-x="299" 
d="M36 730h227v-730h-227v730z" />
    <glyph glyph-name="m" unicode="m" horiz-adv-x="991" 
d="M34 546h227v-73q26 34 67 60t98 26q56 0 97 -23t64 -67q35 39 78.5 64.5t106.5 25.5q88 0 138.5 -53t50.5 -146v-360h-227v289q0 35 -17.5 53.5t-42.5 18.5t-44 -18.5t-19 -53.5v-289h-227v289q0 35 -17.5 53.5t-42.5 18.5t-44 -18.5t-19 -53.5v-289h-227v546z" />
    <glyph glyph-name="n" unicode="n" horiz-adv-x="645" 
d="M34 546h227v-76q13 17 30 33t38 28.5t45.5 20t53.5 7.5q87 0 137 -53t50 -146v-360h-227v287q0 35 -18 54.5t-44 19.5t-45.5 -19.5t-19.5 -54.5v-287h-227v546z" />
    <glyph glyph-name="o" unicode="o" horiz-adv-x="648" 
d="M325 176q38 0 63 28t25 67v2q0 41 -26 69t-64 28t-63 -28t-25 -67v-2q0 -41 26 -69t64 -28zM323 -13q-67 0 -123.5 22.5t-97 61.5t-63 90.5t-22.5 109.5v2q0 58 23 110t63.5 91t97 62t124.5 23q67 0 123.5 -22.5t97 -61.5t63 -90.5t22.5 -109.5v-2q0 -58 -23 -110
t-63.5 -91t-97.5 -62t-124 -23z" />
    <glyph glyph-name="p" unicode="p" horiz-adv-x="676" 
d="M347 174q39 0 65 28t26 70v2q0 42 -26 70t-65 28t-65 -28t-26 -70v-2q0 -20 7 -38t19 -31.5t28.5 -21t36.5 -7.5zM34 546h227v-67q14 15 29.5 29.5t34.5 25.5t43 18t55 7q49 0 92 -20.5t75 -58t50 -89t18 -114.5v-2q0 -65 -18.5 -118t-50 -91t-74 -58.5t-90.5 -20.5
q-62 0 -100 23t-64 52v-222h-227v706z" />
    <glyph glyph-name="q" unicode="q" horiz-adv-x="676" 
d="M329 174q39 0 65 28t26 70v2q0 20 -7 38t-19 31.5t-29 21t-36 7.5q-39 0 -65 -28t-26 -70v-2q0 -42 26 -70t65 -28zM415 67q-14 -15 -29.5 -29.5t-34.5 -25.5t-43 -18t-55 -7q-50 0 -92.5 20.5t-74.5 58t-50 89t-18 114.5v2q0 65 18.5 118t50 91t74 58.5t90.5 20.5
q62 0 100 -23t64 -52v62h227v-706h-227v227z" />
    <glyph glyph-name="r" unicode="r" horiz-adv-x="437" 
d="M34 546h227v-110q23 55 63 88t108 30v-241h-24q-72 0 -109.5 -41.5t-37.5 -132.5v-139h-227v546z" />
    <glyph glyph-name="s" unicode="s" horiz-adv-x="525" 
d="M275 -13q-80 0 -150.5 20t-129.5 59l77 129q50 -31 102.5 -46t99.5 -15q33 0 33 18v2q0 8 -12 14.5t-53 17.5q-52 13 -93 27.5t-70 35t-44.5 50t-15.5 71.5v2q0 45 17 80t48.5 58.5t75.5 36t97 12.5q68 0 131.5 -16.5t113.5 -46.5l-72 -135q-44 24 -91.5 37.5t-82.5 13.5
q-32 0 -32 -17v-2q0 -8 13 -15t54 -17q52 -13 93 -27.5t69.5 -35.5t43.5 -50t15 -71v-2q0 -90 -62.5 -139t-174.5 -49z" />
    <glyph glyph-name="t" unicode="t" horiz-adv-x="446" 
d="M282 -12q-101 0 -153.5 47.5t-52.5 147.5v188h-64v175h64v137h227v-137h126v-175h-126v-138q0 -31 14 -43.5t41 -12.5q32 0 69 17v-175q-27 -14 -65 -22.5t-80 -8.5z" />
    <glyph glyph-name="u" unicode="u" horiz-adv-x="645" 
d="M217 -13q-87 0 -137 53t-50 146v360h227v-287q0 -35 18 -54.5t44 -19.5t45.5 19.5t19.5 54.5v287h227v-546h-227v73q-26 -34 -67.5 -60t-99.5 -26z" />
    <glyph glyph-name="v" unicode="v" horiz-adv-x="650" 
d="M0 546h238l88 -274l89 274h235l-221 -550h-208z" />
    <glyph glyph-name="w" unicode="w" horiz-adv-x="861" 
d="M1 546h217l56 -220l66 222h181l67 -224l58 222h214l-167 -550h-190l-73 234l-75 -234h-189z" />
    <glyph glyph-name="x" unicode="x" horiz-adv-x="594" 
d="M298 436l61 110h241l-175 -273l176 -273h-245l-61 110l-61 -110h-241l176 273l-176 273h245z" />
    <glyph glyph-name="y" unicode="y" horiz-adv-x="652" 
d="M420 546h231l-189 -508q-20 -54 -41.5 -92t-49.5 -62t-63.5 -35.5t-82.5 -11.5q-60 0 -112.5 15.5t-98.5 41.5l66 155q31 -17 57.5 -26.5t42.5 -9.5q21 0 37 8l-214 525h235l95 -288z" />
    <glyph glyph-name="z" unicode="z" horiz-adv-x="563" 
d="M15 142l222 226h-213v178h527v-142l-223 -226h223v-178h-536v142z" />
    <glyph glyph-name="Aacute" unicode="&#xc1;" horiz-adv-x="800" 
d="M408 917l231 -52l-160 -115h-167zM462 260l-64 170l-64 -170h128zM284 705h232l295 -705h-254l-37 94h-245l-36 -94h-250z" />
    <glyph glyph-name="aacute" unicode="&#xe1;" horiz-adv-x="606" 
d="M320 780l221 -57l-165 -135h-152zM282 118q30 0 50 22.5t20 61.5v23q-10 4 -24 6.5t-28 2.5q-34 0 -52 -17.5t-18 -43.5v-2q0 -24 15 -38.5t37 -14.5zM192 -13q-39 0 -72 11t-57 32.5t-37 52.5t-13 72v2q0 82 56 126t152 44q17 0 36 -1.5t36.5 -4.5t32.5 -6.5t24 -7.5v9
q0 38 -24 58.5t-77 20.5q-42 0 -78.5 -8.5t-72.5 -22.5l-40 151q48 18 103 29t127 11q84 0 139.5 -17.5t91.5 -53.5q31 -31 44 -72t13 -101v-311h-227v55q-29 -31 -67.5 -49.5t-89.5 -18.5z" />
    <glyph glyph-name="Acircumflex" unicode="&#xc2;" horiz-adv-x="800" 
d="M303 902h194l118 -152h-137l-79 51l-79 -51h-135zM462 260l-64 170l-64 -170h128zM284 705h232l295 -705h-254l-37 94h-245l-36 -94h-250z" />
    <glyph glyph-name="acircumflex" unicode="&#xe2;" horiz-adv-x="606" 
d="M227 760h164l133 -172h-127l-89 56l-89 -56h-125zM282 118q30 0 50 22.5t20 61.5v23q-10 4 -24 6.5t-28 2.5q-34 0 -52 -17.5t-18 -43.5v-2q0 -24 15 -38.5t37 -14.5zM192 -13q-39 0 -72 11t-57 32.5t-37 52.5t-13 72v2q0 82 56 126t152 44q17 0 36 -1.5t36.5 -4.5
t32.5 -6.5t24 -7.5v9q0 38 -24 58.5t-77 20.5q-42 0 -78.5 -8.5t-72.5 -22.5l-40 151q48 18 103 29t127 11q84 0 139.5 -17.5t91.5 -53.5q31 -31 44 -72t13 -101v-311h-227v55q-29 -31 -67.5 -49.5t-89.5 -18.5z" />
    <glyph glyph-name="Adieresis" unicode="&#xc4;" horiz-adv-x="800" 
d="M196 900h184v-150h-184v150zM420 900h184v-150h-184v150zM462 260l-64 170l-64 -170h128zM284 705h232l295 -705h-254l-37 94h-245l-36 -94h-250z" />
    <glyph glyph-name="adieresis" unicode="&#xe4;" horiz-adv-x="606" 
d="M115 738h177v-150h-177v150zM326 738h177v-150h-177v150zM282 118q30 0 50 22.5t20 61.5v23q-10 4 -24 6.5t-28 2.5q-34 0 -52 -17.5t-18 -43.5v-2q0 -24 15 -38.5t37 -14.5zM192 -13q-39 0 -72 11t-57 32.5t-37 52.5t-13 72v2q0 82 56 126t152 44q17 0 36 -1.5
t36.5 -4.5t32.5 -6.5t24 -7.5v9q0 38 -24 58.5t-77 20.5q-42 0 -78.5 -8.5t-72.5 -22.5l-40 151q48 18 103 29t127 11q84 0 139.5 -17.5t91.5 -53.5q31 -31 44 -72t13 -101v-311h-227v55q-29 -31 -67.5 -49.5t-89.5 -18.5z" />
    <glyph glyph-name="AE" unicode="&#xc6;" horiz-adv-x="1080" 
d="M480 260v255h-6l-128 -255h134zM344 700h708v-192h-347v-71h322v-169h-322v-76h352v-192h-577v94h-217l-47 -94h-235z" />
    <glyph glyph-name="ae" unicode="&#xe6;" horiz-adv-x="929" 
d="M287 120q21 0 41.5 10t40.5 27q-13 31 -18 68q-10 4 -23.5 6.5t-27.5 2.5q-34 0 -52 -17.5t-18 -43.5v-2q0 -24 16 -37.5t41 -13.5zM706 320q-4 39 -25 60.5t-51 21.5q-29 0 -48 -22t-24 -60h148zM212 -13q-39 0 -75 10t-63.5 30.5t-44 52t-16.5 75.5v2q0 82 56 126
t152 44q17 0 36 -1.5t36.5 -4.5t32.5 -6.5t24 -7.5v9q0 38 -24 58.5t-77 20.5q-42 0 -78.5 -8.5t-72.5 -22.5l-40 151q48 18 103 29t127 11q66 0 109.5 -13.5t74.5 -39.5q32 27 72.5 42t89.5 15q70 0 122.5 -23.5t87 -64.5t52 -96t17.5 -117v-19t-1 -19h-351
q12 -36 39 -54.5t64 -18.5q31 0 57.5 14t53.5 42l122 -97q-41 -53 -100.5 -86t-148.5 -33q-69 0 -125 21t-95 60q-49 -38 -104 -59.5t-112 -21.5z" />
    <glyph glyph-name="Agrave" unicode="&#xc0;" horiz-adv-x="800" 
d="M321 750l-160 115l231 52l96 -167h-167zM462 260l-64 170l-64 -170h128zM284 705h232l295 -705h-254l-37 94h-245l-36 -94h-250z" />
    <glyph glyph-name="agrave" unicode="&#xe0;" horiz-adv-x="606" 
d="M77 723l221 57l96 -192h-152zM282 118q30 0 50 22.5t20 61.5v23q-10 4 -24 6.5t-28 2.5q-34 0 -52 -17.5t-18 -43.5v-2q0 -24 15 -38.5t37 -14.5zM192 -13q-39 0 -72 11t-57 32.5t-37 52.5t-13 72v2q0 82 56 126t152 44q17 0 36 -1.5t36.5 -4.5t32.5 -6.5t24 -7.5v9
q0 38 -24 58.5t-77 20.5q-42 0 -78.5 -8.5t-72.5 -22.5l-40 151q48 18 103 29t127 11q84 0 139.5 -17.5t91.5 -53.5q31 -31 44 -72t13 -101v-311h-227v55q-29 -31 -67.5 -49.5t-89.5 -18.5z" />
    <glyph glyph-name="Aring" unicode="&#xc5;" horiz-adv-x="800" 
d="M462 260l-64 170l-64 -170h128zM400 665q36 0 58.5 21t22.5 53t-22.5 53t-58.5 21t-58.5 -21t-22.5 -53t22.5 -53t58.5 -21zM266 663q-11 16 -17.5 35t-6.5 41q0 30 12 56t33.5 44.5t50.5 29.5t62 11t62 -11t50.5 -29.5t33.5 -44.5t12 -56q0 -22 -6.5 -41t-17.5 -35
l277 -663h-254l-37 94h-245l-36 -94h-250z" />
    <glyph glyph-name="aring" unicode="&#xe5;" horiz-adv-x="606" 
d="M309 657q30 0 50.5 21t20.5 52t-20.5 52t-50.5 21t-50.5 -21t-20.5 -52t20.5 -52t50.5 -21zM309 593q-30 0 -56.5 10.5t-46 29t-30.5 43.5t-11 54t11 54t30.5 43.5t46 29t56.5 10.5t56 -10.5t45.5 -29t31 -43.5t11.5 -54t-11.5 -54t-31 -43.5t-45.5 -29t-56 -10.5z
M282 118q30 0 50 22.5t20 61.5v23q-10 4 -24 6.5t-28 2.5q-34 0 -52 -17.5t-18 -43.5v-2q0 -24 15 -38.5t37 -14.5zM192 -13q-39 0 -72 11t-57 32.5t-37 52.5t-13 72v2q0 82 56 126t152 44q17 0 36 -1.5t36.5 -4.5t32.5 -6.5t24 -7.5v9q0 38 -24 58.5t-77 20.5
q-42 0 -78.5 -8.5t-72.5 -22.5l-40 151q48 18 103 29t127 11q84 0 139.5 -17.5t91.5 -53.5q31 -31 44 -72t13 -101v-311h-227v55q-29 -31 -67.5 -49.5t-89.5 -18.5z" />
    <glyph glyph-name="Atilde" unicode="&#xc3;" horiz-adv-x="800" 
d="M500 750q-24 0 -51.5 7t-54.5 15q-23 7 -40.5 12t-27.5 5q-19 0 -28.5 -10.5t-18.5 -33.5l-101 25q15 86 45 122.5t81 36.5q24 0 51.5 -7t54.5 -15q23 -7 40.5 -12t27.5 -5q19 0 28.5 10.5t18.5 33.5l101 -25q-15 -86 -45 -122.5t-81 -36.5zM462 260l-64 170l-64 -170
h128zM284 705h232l295 -705h-254l-37 94h-245l-36 -94h-250z" />
    <glyph glyph-name="atilde" unicode="&#xe3;" horiz-adv-x="606" 
d="M403 588q-23 0 -48.5 6.5t-47.5 14.5q-23 8 -39.5 13t-26.5 5q-19 0 -27.5 -10.5t-17.5 -33.5l-101 25q15 86 44 122.5t80 36.5q23 0 48.5 -6.5t47.5 -14.5q23 -8 39.5 -13t26.5 -5q19 0 27.5 10.5t17.5 33.5l101 -25q-15 -86 -44 -122.5t-80 -36.5zM282 118
q30 0 50 22.5t20 61.5v23q-10 4 -24 6.5t-28 2.5q-34 0 -52 -17.5t-18 -43.5v-2q0 -24 15 -38.5t37 -14.5zM192 -13q-39 0 -72 11t-57 32.5t-37 52.5t-13 72v2q0 82 56 126t152 44q17 0 36 -1.5t36.5 -4.5t32.5 -6.5t24 -7.5v9q0 38 -24 58.5t-77 20.5q-42 0 -78.5 -8.5
t-72.5 -22.5l-40 151q48 18 103 29t127 11q84 0 139.5 -17.5t91.5 -53.5q31 -31 44 -72t13 -101v-311h-227v55q-29 -31 -67.5 -49.5t-89.5 -18.5z" />
    <glyph glyph-name="Ccedilla" unicode="&#xc7;" horiz-adv-x="723" 
d="M214 -98l76 96q-56 15 -104.5 46t-84.5 76t-56.5 102.5t-20.5 125.5v2q0 78 28.5 145t79 116t118.5 76.5t146 27.5q58 0 106.5 -13.5t88 -37.5t70 -57.5t52.5 -73.5l-193 -113q-20 38 -49.5 61.5t-77.5 23.5q-30 0 -54 -12t-41 -33t-26.5 -49t-9.5 -59v-2
q0 -34 9.5 -62.5t27 -49t41.5 -32t53 -11.5q50 0 80 24.5t52 63.5l193 -109q-20 -35 -46 -66.5t-60.5 -56.5t-78 -41.5t-97.5 -21.5l-48 -161z" />
    <glyph glyph-name="ccedilla" unicode="&#xe7;" horiz-adv-x="567" 
d="M129 -98l80 99q-43 15 -78.5 41.5t-60.5 62t-39 77.5t-14 88v2q0 57 21.5 109t60.5 91.5t94 62.5t122 23q91 0 153 -42t94 -109l-163 -92q-14 26 -33 40.5t-47 14.5q-36 0 -60 -27.5t-24 -68.5v-2q0 -43 23.5 -70.5t57.5 -27.5q30 0 49 14.5t36 40.5l165 -94
q-32 -60 -84.5 -98.5t-130.5 -47.5l-48 -162z" />
    <glyph glyph-name="Eacute" unicode="&#xc9;" horiz-adv-x="665" 
d="M349 907l231 -52l-160 -115h-167zM40 700h597v-192h-367v-71h342v-169h-342v-76h372v-192h-602v700z" />
    <glyph glyph-name="eacute" unicode="&#xe9;" horiz-adv-x="598" 
d="M315 780l221 -57l-165 -135h-152zM375 320q-4 39 -25 60.5t-51 21.5q-29 0 -48 -22t-24 -60h148zM317 -13q-67 0 -122.5 20.5t-95 57.5t-61 89t-21.5 116v2q0 61 21 113.5t58 91t88.5 60.5t113.5 22q73 0 126.5 -23.5t88.5 -64.5t52 -96t17 -117v-19t-1 -19h-351
q12 -36 39 -54.5t64 -18.5q31 0 57.5 14t53.5 42l122 -97q-41 -53 -100.5 -86t-148.5 -33z" />
    <glyph glyph-name="Ecircumflex" unicode="&#xca;" horiz-adv-x="665" 
d="M244 892h194l118 -152h-137l-79 51l-79 -51h-135zM40 700h597v-192h-367v-71h342v-169h-342v-76h372v-192h-602v700z" />
    <glyph glyph-name="ecircumflex" unicode="&#xea;" horiz-adv-x="598" 
d="M222 760h164l133 -172h-127l-89 56l-89 -56h-125zM375 320q-4 39 -25 60.5t-51 21.5q-29 0 -48 -22t-24 -60h148zM317 -13q-67 0 -122.5 20.5t-95 57.5t-61 89t-21.5 116v2q0 61 21 113.5t58 91t88.5 60.5t113.5 22q73 0 126.5 -23.5t88.5 -64.5t52 -96t17 -117v-19
t-1 -19h-351q12 -36 39 -54.5t64 -18.5q31 0 57.5 14t53.5 42l122 -97q-41 -53 -100.5 -86t-148.5 -33z" />
    <glyph glyph-name="Edieresis" unicode="&#xcb;" horiz-adv-x="665" 
d="M137 890h184v-150h-184v150zM361 890h184v-150h-184v150zM40 700h597v-192h-367v-71h342v-169h-342v-76h372v-192h-602v700z" />
    <glyph glyph-name="edieresis" unicode="&#xeb;" horiz-adv-x="598" 
d="M110 738h177v-150h-177v150zM321 738h177v-150h-177v150zM375 320q-4 39 -25 60.5t-51 21.5q-29 0 -48 -22t-24 -60h148zM317 -13q-67 0 -122.5 20.5t-95 57.5t-61 89t-21.5 116v2q0 61 21 113.5t58 91t88.5 60.5t113.5 22q73 0 126.5 -23.5t88.5 -64.5t52 -96t17 -117
v-19t-1 -19h-351q12 -36 39 -54.5t64 -18.5q31 0 57.5 14t53.5 42l122 -97q-41 -53 -100.5 -86t-148.5 -33z" />
    <glyph glyph-name="Egrave" unicode="&#xc8;" horiz-adv-x="665" 
d="M262 740l-160 115l231 52l96 -167h-167zM40 700h597v-192h-367v-71h342v-169h-342v-76h372v-192h-602v700z" />
    <glyph glyph-name="egrave" unicode="&#xe8;" horiz-adv-x="598" 
d="M72 723l221 57l96 -192h-152zM375 320q-4 39 -25 60.5t-51 21.5q-29 0 -48 -22t-24 -60h148zM317 -13q-67 0 -122.5 20.5t-95 57.5t-61 89t-21.5 116v2q0 61 21 113.5t58 91t88.5 60.5t113.5 22q73 0 126.5 -23.5t88.5 -64.5t52 -96t17 -117v-19t-1 -19h-351
q12 -36 39 -54.5t64 -18.5q31 0 57.5 14t53.5 42l122 -97q-41 -53 -100.5 -86t-148.5 -33z" />
    <glyph glyph-name="Iacute" unicode="&#xcd;" horiz-adv-x="318" 
d="M167 907l231 -52l-160 -115h-167zM42 700h234v-700h-234v700z" />
    <glyph glyph-name="iacute" unicode="&#xed;" horiz-adv-x="299" 
d="M160 772l221 -57l-165 -135h-152zM36 546h227v-546h-227v546z" />
    <glyph glyph-name="Icircumflex" unicode="&#xce;" horiz-adv-x="318" 
d="M62 892h194l118 -152h-137l-79 51l-79 -51h-135zM42 700h234v-700h-234v700z" />
    <glyph glyph-name="icircumflex" unicode="&#xee;" horiz-adv-x="299" 
d="M67 752h164l133 -172h-127l-89 56l-89 -56h-125zM36 546h227v-546h-227v546z" />
    <glyph glyph-name="Idieresis" unicode="&#xcf;" horiz-adv-x="318" 
d="M-45 890h184v-150h-184v150zM179 890h184v-150h-184v150zM42 700h234v-700h-234v700z" />
    <glyph glyph-name="idieresis" unicode="&#xef;" horiz-adv-x="299" 
d="M-45 730h177v-150h-177v150zM166 730h177v-150h-177v150zM36 546h227v-546h-227v546z" />
    <glyph glyph-name="dotlessi" unicode="&#x131;" horiz-adv-x="299" 
d="M36 546h227v-546h-227v546z" />
    <glyph glyph-name="Igrave" unicode="&#xcc;" horiz-adv-x="318" 
d="M80 740l-160 115l231 52l96 -167h-167zM42 700h234v-700h-234v700z" />
    <glyph glyph-name="igrave" unicode="&#xec;" horiz-adv-x="299" 
d="M-83 715l221 57l96 -192h-152zM36 546h227v-546h-227v546z" />
    <glyph glyph-name="Ntilde" unicode="&#xd1;" horiz-adv-x="780" 
d="M490 740q-24 0 -51.5 7t-54.5 15q-23 7 -40.5 12t-27.5 5q-19 0 -28.5 -10.5t-18.5 -33.5l-101 25q15 86 45 122.5t81 36.5q24 0 51.5 -7t54.5 -15q23 -7 40.5 -12t27.5 -5q19 0 28.5 10.5t18.5 33.5l101 -25q-15 -86 -45 -122.5t-81 -36.5zM40 700h219l249 -309v309h232
v-700h-208l-260 323v-323h-232v700z" />
    <glyph glyph-name="ntilde" unicode="&#xf1;" horiz-adv-x="645" 
d="M418 588q-23 0 -48.5 6.5t-47.5 14.5q-23 8 -39.5 13t-26.5 5q-19 0 -27.5 -10.5t-17.5 -33.5l-101 25q15 86 44 122.5t80 36.5q23 0 48.5 -6.5t47.5 -14.5q23 -8 39.5 -13t26.5 -5q19 0 27.5 10.5t17.5 33.5l101 -25q-15 -86 -44 -122.5t-80 -36.5zM34 546h227v-76
q13 17 30 33t38 28.5t45.5 20t53.5 7.5q87 0 137 -53t50 -146v-360h-227v287q0 35 -18 54.5t-44 19.5t-45.5 -19.5t-19.5 -54.5v-287h-227v546z" />
    <glyph glyph-name="Oacute" unicode="&#xd3;" horiz-adv-x="812" 
d="M414 917l231 -52l-160 -115h-167zM407 192q33 0 60 13t46 34.5t29 49.5t10 59v2q0 31 -10.5 59.5t-29.5 50.5t-46 35t-61 13q-33 0 -60 -13t-46 -34.5t-29 -49.5t-10 -59v-2q0 -31 10.5 -59.5t29.5 -50.5t46 -35t61 -13zM405 -15q-81 0 -150.5 28t-121 77t-80.5 115.5
t-29 142.5v2q0 76 29.5 142.5t81 116t121.5 78t151 28.5t150.5 -28t121 -77t80.5 -115.5t29 -142.5v-2q0 -76 -29.5 -142.5t-81 -116t-121.5 -78t-151 -28.5z" />
    <glyph glyph-name="oacute" unicode="&#xf3;" horiz-adv-x="648" 
d="M335 780l221 -57l-165 -135h-152zM325 176q38 0 63 28t25 67v2q0 41 -26 69t-64 28t-63 -28t-25 -67v-2q0 -41 26 -69t64 -28zM323 -13q-67 0 -123.5 22.5t-97 61.5t-63 90.5t-22.5 109.5v2q0 58 23 110t63.5 91t97 62t124.5 23q67 0 123.5 -22.5t97 -61.5t63 -90.5
t22.5 -109.5v-2q0 -58 -23 -110t-63.5 -91t-97.5 -62t-124 -23z" />
    <glyph glyph-name="Ocircumflex" unicode="&#xd4;" horiz-adv-x="812" 
d="M309 902h194l118 -152h-137l-79 51l-79 -51h-135zM407 192q33 0 60 13t46 34.5t29 49.5t10 59v2q0 31 -10.5 59.5t-29.5 50.5t-46 35t-61 13q-33 0 -60 -13t-46 -34.5t-29 -49.5t-10 -59v-2q0 -31 10.5 -59.5t29.5 -50.5t46 -35t61 -13zM405 -15q-81 0 -150.5 28t-121 77
t-80.5 115.5t-29 142.5v2q0 76 29.5 142.5t81 116t121.5 78t151 28.5t150.5 -28t121 -77t80.5 -115.5t29 -142.5v-2q0 -76 -29.5 -142.5t-81 -116t-121.5 -78t-151 -28.5z" />
    <glyph glyph-name="ocircumflex" unicode="&#xf4;" horiz-adv-x="648" 
d="M242 760h164l133 -172h-127l-89 56l-89 -56h-125zM325 176q38 0 63 28t25 67v2q0 41 -26 69t-64 28t-63 -28t-25 -67v-2q0 -41 26 -69t64 -28zM323 -13q-67 0 -123.5 22.5t-97 61.5t-63 90.5t-22.5 109.5v2q0 58 23 110t63.5 91t97 62t124.5 23q67 0 123.5 -22.5
t97 -61.5t63 -90.5t22.5 -109.5v-2q0 -58 -23 -110t-63.5 -91t-97.5 -62t-124 -23z" />
    <glyph glyph-name="Odieresis" unicode="&#xd6;" horiz-adv-x="812" 
d="M202 900h184v-150h-184v150zM426 900h184v-150h-184v150zM407 192q33 0 60 13t46 34.5t29 49.5t10 59v2q0 31 -10.5 59.5t-29.5 50.5t-46 35t-61 13q-33 0 -60 -13t-46 -34.5t-29 -49.5t-10 -59v-2q0 -31 10.5 -59.5t29.5 -50.5t46 -35t61 -13zM405 -15q-81 0 -150.5 28
t-121 77t-80.5 115.5t-29 142.5v2q0 76 29.5 142.5t81 116t121.5 78t151 28.5t150.5 -28t121 -77t80.5 -115.5t29 -142.5v-2q0 -76 -29.5 -142.5t-81 -116t-121.5 -78t-151 -28.5z" />
    <glyph glyph-name="odieresis" unicode="&#xf6;" horiz-adv-x="648" 
d="M130 738h177v-150h-177v150zM341 738h177v-150h-177v150zM325 176q38 0 63 28t25 67v2q0 41 -26 69t-64 28t-63 -28t-25 -67v-2q0 -41 26 -69t64 -28zM323 -13q-67 0 -123.5 22.5t-97 61.5t-63 90.5t-22.5 109.5v2q0 58 23 110t63.5 91t97 62t124.5 23q67 0 123.5 -22.5
t97 -61.5t63 -90.5t22.5 -109.5v-2q0 -58 -23 -110t-63.5 -91t-97.5 -62t-124 -23z" />
    <glyph glyph-name="OE" unicode="&#x152;" horiz-adv-x="1080" 
d="M475 198v304h-44q-77 0 -124 -37t-47 -114v-2q0 -75 47 -113t124 -38h44zM441 0q-104 0 -182.5 24.5t-130.5 69.5t-78 108.5t-26 141.5v2q0 78 26.5 143t80 112t133 73t185.5 26h603v-192h-347v-71h322v-169h-322v-76h352v-192h-616z" />
    <glyph glyph-name="oe" unicode="&#x153;" horiz-adv-x="994" 
d="M325 176q38 0 63 28t25 67v2q0 41 -26 69t-64 28t-63 -28t-25 -67v-2q0 -41 26 -69t64 -28zM771 320q-4 39 -25 60.5t-51 21.5q-29 0 -48 -22t-24 -60h148zM318 -13q-65 0 -120.5 22.5t-95.5 61.5t-62.5 90.5t-22.5 109.5v2q0 58 22.5 110t63 91t96 62t121.5 23
q62 0 112 -19t87 -54q34 35 80 54t100 19q70 0 122.5 -23.5t87 -64.5t52 -96t17.5 -117v-19t-1 -19h-351q12 -36 39 -54.5t64 -18.5q31 0 57.5 14t53.5 42l122 -97q-41 -53 -99.5 -86t-144.5 -33q-128 0 -202 71q-37 -33 -87 -52t-111 -19z" />
    <glyph glyph-name="Ograve" unicode="&#xd2;" horiz-adv-x="812" 
d="M327 750l-160 115l231 52l96 -167h-167zM407 192q33 0 60 13t46 34.5t29 49.5t10 59v2q0 31 -10.5 59.5t-29.5 50.5t-46 35t-61 13q-33 0 -60 -13t-46 -34.5t-29 -49.5t-10 -59v-2q0 -31 10.5 -59.5t29.5 -50.5t46 -35t61 -13zM405 -15q-81 0 -150.5 28t-121 77
t-80.5 115.5t-29 142.5v2q0 76 29.5 142.5t81 116t121.5 78t151 28.5t150.5 -28t121 -77t80.5 -115.5t29 -142.5v-2q0 -76 -29.5 -142.5t-81 -116t-121.5 -78t-151 -28.5z" />
    <glyph glyph-name="ograve" unicode="&#xf2;" horiz-adv-x="648" 
d="M92 723l221 57l96 -192h-152zM325 176q38 0 63 28t25 67v2q0 41 -26 69t-64 28t-63 -28t-25 -67v-2q0 -41 26 -69t64 -28zM323 -13q-67 0 -123.5 22.5t-97 61.5t-63 90.5t-22.5 109.5v2q0 58 23 110t63.5 91t97 62t124.5 23q67 0 123.5 -22.5t97 -61.5t63 -90.5
t22.5 -109.5v-2q0 -58 -23 -110t-63.5 -91t-97.5 -62t-124 -23z" />
    <glyph glyph-name="Oslash" unicode="&#xd8;" horiz-adv-x="812" 
d="M407 187q34 0 62 13t47 35.5t29.5 51.5t10.5 61v2q0 38 -15 71l-198 -221q27 -13 64 -13zM256 350q0 -38 14 -72l198 221q-28 14 -63 14t-62.5 -13t-46.5 -35.5t-29.5 -51.5t-10.5 -61v-2zM796 705l-101 -113q44 -48 68.5 -109t24.5 -131v-2q0 -76 -29.5 -142.5t-81 -116
t-121.5 -78t-151 -28.5q-57 0 -108 13.5t-95 39.5l-39 -43h-147l101 112q-44 48 -68.5 109.5t-24.5 131.5v2q0 76 29.5 142.5t81 116t121.5 78t151 28.5q57 0 107.5 -14t94.5 -40l40 44h147z" />
    <glyph glyph-name="oslash" unicode="&#xf8;" horiz-adv-x="648" 
d="M325 165q21 0 39.5 8.5t31.5 23t20.5 33.5t7.5 41v2q0 9 -1 17.5t-3 16.5l-127 -138q13 -4 32 -4zM224 273q0 -21 4 -36l129 139q-18 5 -34 5q-21 0 -39.5 -8.5t-31.5 -23t-20.5 -33.5t-7.5 -41v-2zM646 551l-86 -93q34 -38 52.5 -84.5t18.5 -98.5v-2q0 -58 -23 -110
t-63.5 -91t-97.5 -62t-124 -23q-45 0 -85 10t-74 29l-29 -31h-133l86 92q-34 38 -52.5 84.5t-18.5 99.5v2q0 58 23 110t63.5 91t97 62t124.5 23q45 0 84.5 -10.5t74.5 -29.5l29 32h133z" />
    <glyph glyph-name="Otilde" unicode="&#xd5;" horiz-adv-x="812" 
d="M506 750q-24 0 -51.5 7t-54.5 15q-23 7 -40.5 12t-27.5 5q-19 0 -28.5 -10.5t-18.5 -33.5l-101 25q15 86 45 122.5t81 36.5q24 0 51.5 -7t54.5 -15q23 -7 40.5 -12t27.5 -5q19 0 28.5 10.5t18.5 33.5l101 -25q-15 -86 -45 -122.5t-81 -36.5zM407 192q33 0 60 13t46 34.5
t29 49.5t10 59v2q0 31 -10.5 59.5t-29.5 50.5t-46 35t-61 13q-33 0 -60 -13t-46 -34.5t-29 -49.5t-10 -59v-2q0 -31 10.5 -59.5t29.5 -50.5t46 -35t61 -13zM405 -15q-81 0 -150.5 28t-121 77t-80.5 115.5t-29 142.5v2q0 76 29.5 142.5t81 116t121.5 78t151 28.5t150.5 -28
t121 -77t80.5 -115.5t29 -142.5v-2q0 -76 -29.5 -142.5t-81 -116t-121.5 -78t-151 -28.5z" />
    <glyph glyph-name="otilde" unicode="&#xf5;" horiz-adv-x="648" 
d="M418 588q-23 0 -48.5 6.5t-47.5 14.5q-23 8 -39.5 13t-26.5 5q-19 0 -27.5 -10.5t-17.5 -33.5l-101 25q15 86 44 122.5t80 36.5q23 0 48.5 -6.5t47.5 -14.5q23 -8 39.5 -13t26.5 -5q19 0 27.5 10.5t17.5 33.5l101 -25q-15 -86 -44 -122.5t-80 -36.5zM325 176q38 0 63 28
t25 67v2q0 41 -26 69t-64 28t-63 -28t-25 -67v-2q0 -41 26 -69t64 -28zM323 -13q-67 0 -123.5 22.5t-97 61.5t-63 90.5t-22.5 109.5v2q0 58 23 110t63.5 91t97 62t124.5 23q67 0 123.5 -22.5t97 -61.5t63 -90.5t22.5 -109.5v-2q0 -58 -23 -110t-63.5 -91t-97.5 -62t-124 -23
z" />
    <glyph glyph-name="Uacute" unicode="&#xda;" horiz-adv-x="760" 
d="M388 907l231 -52l-160 -115h-167zM378 -14q-78 0 -141.5 18.5t-108.5 58.5t-69.5 102t-24.5 149v386h238v-383q0 -65 30.5 -94.5t77.5 -29.5q48 0 78 27.5t30 91.5v388h238v-381q0 -90 -25 -153t-70.5 -103t-110 -58.5t-142.5 -18.5z" />
    <glyph glyph-name="uacute" unicode="&#xfa;" horiz-adv-x="645" 
d="M331 772l221 -57l-165 -135h-152zM217 -13q-87 0 -137 53t-50 146v360h227v-287q0 -35 18 -54.5t44 -19.5t45.5 19.5t19.5 54.5v287h227v-546h-227v73q-26 -34 -67.5 -60t-99.5 -26z" />
    <glyph glyph-name="Ucircumflex" unicode="&#xdb;" horiz-adv-x="760" 
d="M283 892h194l118 -152h-137l-79 51l-79 -51h-135zM378 -14q-78 0 -141.5 18.5t-108.5 58.5t-69.5 102t-24.5 149v386h238v-383q0 -65 30.5 -94.5t77.5 -29.5q48 0 78 27.5t30 91.5v388h238v-381q0 -90 -25 -153t-70.5 -103t-110 -58.5t-142.5 -18.5z" />
    <glyph glyph-name="ucircumflex" unicode="&#xfb;" horiz-adv-x="645" 
d="M238 752h164l133 -172h-127l-89 56l-89 -56h-125zM217 -13q-87 0 -137 53t-50 146v360h227v-287q0 -35 18 -54.5t44 -19.5t45.5 19.5t19.5 54.5v287h227v-546h-227v73q-26 -34 -67.5 -60t-99.5 -26z" />
    <glyph glyph-name="Udieresis" unicode="&#xdc;" horiz-adv-x="760" 
d="M176 890h184v-150h-184v150zM400 890h184v-150h-184v150zM378 -14q-78 0 -141.5 18.5t-108.5 58.5t-69.5 102t-24.5 149v386h238v-383q0 -65 30.5 -94.5t77.5 -29.5q48 0 78 27.5t30 91.5v388h238v-381q0 -90 -25 -153t-70.5 -103t-110 -58.5t-142.5 -18.5z" />
    <glyph glyph-name="udieresis" unicode="&#xfc;" horiz-adv-x="645" 
d="M126 730h177v-150h-177v150zM337 730h177v-150h-177v150zM217 -13q-87 0 -137 53t-50 146v360h227v-287q0 -35 18 -54.5t44 -19.5t45.5 19.5t19.5 54.5v287h227v-546h-227v73q-26 -34 -67.5 -60t-99.5 -26z" />
    <glyph glyph-name="Ugrave" unicode="&#xd9;" horiz-adv-x="760" 
d="M301 740l-160 115l231 52l96 -167h-167zM378 -14q-78 0 -141.5 18.5t-108.5 58.5t-69.5 102t-24.5 149v386h238v-383q0 -65 30.5 -94.5t77.5 -29.5q48 0 78 27.5t30 91.5v388h238v-381q0 -90 -25 -153t-70.5 -103t-110 -58.5t-142.5 -18.5z" />
    <glyph glyph-name="ugrave" unicode="&#xf9;" horiz-adv-x="645" 
d="M88 715l221 57l96 -192h-152zM217 -13q-87 0 -137 53t-50 146v360h227v-287q0 -35 18 -54.5t44 -19.5t45.5 19.5t19.5 54.5v287h227v-546h-227v73q-26 -34 -67.5 -60t-99.5 -26z" />
    <glyph glyph-name="Ydieresis" unicode="&#x178;" horiz-adv-x="730" 
d="M161 890h184v-150h-184v150zM385 890h184v-150h-184v150zM248 248l-264 452h262l120 -230l121 230h259l-264 -449v-251h-234v248z" />
    <glyph glyph-name="ydieresis" unicode="&#xff;" horiz-adv-x="652" 
d="M139 730h177v-150h-177v150zM350 730h177v-150h-177v150zM420 546h231l-189 -508q-20 -54 -41.5 -92t-49.5 -62t-63.5 -35.5t-82.5 -11.5q-60 0 -112.5 15.5t-98.5 41.5l66 155q31 -17 57.5 -26.5t42.5 -9.5q21 0 37 8l-214 525h235l95 -288z" />
    <glyph glyph-name="germandbls" unicode="&#xdf;" horiz-adv-x="650" 
d="M314 153q46 4 72.5 22.5t26.5 48.5v2q0 31 -26.5 47t-72.5 18v102q29 11 53 34t24 57v2q0 29 -18 47.5t-41 18.5q-31 0 -51 -23t-20 -71v-458h-227v455q0 62 18 114t54.5 90t92.5 59.5t133 21.5q63 0 114 -17.5t87.5 -47.5t56 -70.5t19.5 -86.5v-2q0 -59 -34.5 -103
t-83.5 -62q25 -6 51.5 -18.5t47.5 -32.5t34.5 -48t13.5 -64v-2q0 -50 -25 -87.5t-68.5 -61.5t-103 -34.5t-127.5 -5.5v156z" />
    <glyph glyph-name="zero" unicode="0" horiz-adv-x="730" 
d="M366 188q48 0 76 44t28 116v2q0 36 -7.5 66t-21.5 51t-33.5 33t-43.5 12q-48 0 -76 -44t-28 -116v-2q0 -36 7.5 -66t21.5 -51t33.5 -33t43.5 -12zM364 -15q-80 0 -142 29.5t-105.5 79.5t-66 116t-22.5 138v2q0 72 23 138.5t66.5 116.5t106 80t142.5 30q79 0 141.5 -29.5
t106 -79.5t66 -116t22.5 -138v-2q0 -72 -23 -138.5t-66.5 -116.5t-106.5 -80t-142 -30z" />
    <glyph glyph-name="one" unicode="1" horiz-adv-x="422" 
d="M148 500l-114 -25l-42 173l209 57h177v-705h-230v500z" />
    <glyph glyph-name="two" unicode="2" horiz-adv-x="625" 
d="M17 170l290 208q33 23 47 44t14 41q0 23 -16.5 37.5t-46.5 14.5t-60.5 -20t-74.5 -67l-154 131q30 37 61.5 66t68.5 48.5t80.5 29.5t98.5 10q60 0 110.5 -17t87 -47.5t57 -72.5t20.5 -92v-2q0 -40 -10 -71.5t-29 -57.5t-45 -48t-57 -42l-125 -80h273v-183h-590v170z" />
    <glyph glyph-name="three" unicode="3" horiz-adv-x="621" 
d="M321 -15q-109 0 -187 33t-136 93l139 143q39 -37 80 -56.5t85 -19.5q39 0 59.5 15.5t20.5 40.5v2q0 26 -22.5 41t-69.5 15h-99l-31 104l154 122h-260v182h538v-161l-157 -118q79 -21 126 -68.5t47 -130.5v-2q0 -57 -23 -100.5t-62.5 -73.5t-91.5 -45.5t-110 -15.5z" />
    <glyph glyph-name="four" unicode="4" horiz-adv-x="689" 
d="M371 283v186l-149 -186h149zM371 121h-337l-38 164l342 420h260v-419h84v-165h-84v-121h-227v121z" />
    <glyph glyph-name="five" unicode="5" horiz-adv-x="630" 
d="M301 -15q-102 0 -174.5 31t-130.5 84l129 150q45 -36 87.5 -56t85.5 -20q42 0 65 19t23 48v2q0 31 -22.5 49t-59.5 18q-32 0 -57 -12t-50 -32l-141 70l20 364h505v-185h-331l-5 -91q28 17 59.5 27.5t73.5 10.5q43 0 85 -14t75 -41.5t53.5 -69t20.5 -96.5v-2
q0 -61 -23.5 -108t-65 -79.5t-98.5 -49.5t-124 -17z" />
    <glyph glyph-name="six" unicode="6" horiz-adv-x="662" 
d="M333 153q35 0 55 23t20 55v2q0 32 -21 55t-56 23t-55 -22.5t-20 -54.5v-2q0 -32 21 -55.5t56 -23.5zM342 -15q-80 0 -133 22.5t-92 61.5q-40 40 -64.5 102.5t-24.5 156.5v2q0 82 21.5 152.5t64 122t107 81t150.5 29.5q75 0 134 -19t113 -57l-101 -154q-31 22 -64 36
t-72 14q-36 0 -59 -14t-36.5 -34.5t-20 -44.5t-7.5 -44q40 33 77.5 47.5t80.5 14.5q40 0 79 -14.5t69.5 -41.5t49 -66.5t18.5 -90.5v-2q0 -63 -23.5 -111.5t-63.5 -81.5t-92.5 -50t-110.5 -17z" />
    <glyph glyph-name="seven" unicode="7" horiz-adv-x="609" 
d="M343 507h-319v193h574v-176l-304 -524h-254z" />
    <glyph glyph-name="eight" unicode="8" horiz-adv-x="630" 
d="M315 149q41 0 61 22t20 48v2q0 29 -22 48.5t-59 19.5t-59 -19.5t-22 -48.5v-2q0 -26 20 -48t61 -22zM315 418q32 0 52.5 19.5t20.5 48.5v2q0 26 -20 46t-53 20t-53 -20t-20 -46v-2q0 -29 20.5 -48.5t52.5 -19.5zM315 -13q-68 0 -124 15t-96.5 42.5t-62.5 65.5t-22 83v2
q0 64 34.5 104.5t91.5 63.5q-20 10 -38.5 24t-32.5 33t-22.5 42.5t-8.5 52.5v2q0 43 20.5 79t57.5 62t89 40.5t114 14.5t114 -14.5t89 -40.5t57.5 -62t20.5 -79v-2q0 -29 -8.5 -52.5t-22.5 -42.5t-32.5 -33t-38.5 -24q27 -11 50 -26t40 -35.5t26.5 -47t9.5 -59.5v-2
q0 -46 -22 -84t-62.5 -65t-96.5 -42t-124 -15z" />
    <glyph glyph-name="nine" unicode="9" horiz-adv-x="662" 
d="M331 383q35 0 55.5 23t20.5 55v2q0 35 -21.5 59.5t-56.5 24.5t-55.5 -24t-20.5 -59v-2q0 -34 21.5 -56.5t56.5 -22.5zM282 165q36 0 59 13.5t36.5 33.5t19.5 43t8 43q-38 -37 -77.5 -51t-77.5 -14q-45 0 -85 15.5t-70 43.5t-47.5 68t-17.5 90v2q0 63 22.5 111.5t62 82.5
t92.5 51.5t114 17.5q82 0 135 -23t93 -63q38 -38 61.5 -101t23.5 -154v-2q0 -86 -22.5 -157.5t-66 -122.5t-107 -79t-145.5 -28q-81 0 -143.5 22t-115.5 60l101 151q70 -53 147 -53z" />
    <glyph glyph-name="period" unicode="." horiz-adv-x="282" 
d="M25 230h232v-230h-232v230z" />
    <glyph glyph-name="comma" unicode="," horiz-adv-x="282" 
d="M14 -85q49 6 75.5 28.5t26.5 60.5h-91v230h232v-183q0 -62 -17 -103t-47 -66t-71 -36.5t-90 -13.5z" />
    <glyph glyph-name="colon" unicode=":" horiz-adv-x="292" 
d="M30 230h232v-230h-232v230zM30 546h232v-230h-232v230z" />
    <glyph glyph-name="semicolon" unicode=";" horiz-adv-x="292" 
d="M19 -89q49 6 75.5 28.5t26.5 60.5h-91v230h232v-183q0 -62 -17 -103t-47 -66t-71 -36.5t-90 -13.5zM30 546h232v-230h-232v230z" />
    <glyph glyph-name="ellipsis" unicode="&#x2026;" horiz-adv-x="840" 
d="M25 228h228v-228h-228v228zM306 228h228v-228h-228v228zM587 228h228v-228h-228v228z" />
    <glyph glyph-name="periodcentered" unicode="&#xb7;" horiz-adv-x="282" 
d="M25 430h232v-230h-232v230z" />
    <glyph glyph-name="bullet" unicode="&#x2022;" horiz-adv-x="500" 
d="M250 163q-39 0 -73.5 15t-60 40.5t-40.5 59.5t-15 73v2q0 39 15 73t40.5 59.5t60 40.5t73.5 15t73.5 -15t60 -40.5t40.5 -59.5t15 -73v-2q0 -39 -15 -73t-40.5 -59.5t-60 -40.5t-73.5 -15z" />
    <glyph glyph-name="ampersand" unicode="&#x26;" horiz-adv-x="700" 
d="M307 146q16 0 32.5 5.5t33.5 14.5l-97 99q-19 -14 -27 -29t-8 -32v-2q0 -26 18 -41t48 -15zM331 442q29 15 42 35.5t13 43.5v2q0 22 -11.5 34.5t-30.5 12.5q-20 0 -32 -14.5t-12 -38.5v-2q0 -18 8 -35.5t23 -37.5zM484 50q-93 -63 -211 -63q-57 0 -105 13.5t-83.5 39
t-55.5 63t-20 86.5v2q0 63 35 113.5t113 84.5q-23 34 -33 66t-10 64v2q0 40 16 75t45.5 61.5t71 42t93.5 15.5q51 0 91.5 -14t69 -38t43.5 -57.5t15 -72.5v-2q0 -60 -34 -105.5t-92 -75.5l63 -61q17 23 32.5 49t31.5 54l143 -67q-23 -42 -46 -78.5t-47 -68.5l86 -83
l-149 -109z" />
    <glyph glyph-name="exclam" unicode="!" horiz-adv-x="324" 
d="M46 180h232v-180h-232v180zM35 550v150h254v-150l-70 -332h-114z" />
    <glyph glyph-name="exclamdown" unicode="&#xa1;" horiz-adv-x="324" 
d="M35 150l70 332h114l70 -332v-150h-254v150zM46 700h232v-180h-232v180z" />
    <glyph glyph-name="question" unicode="?" horiz-adv-x="537" 
d="M136 180h232v-180h-232v180zM158 391l12 12q79 10 109 27.5t30 41.5v1q0 17 -15 28t-44 11t-67 -17t-75 -46l-108 162q48 43 115 72t158 29q56 0 103 -15t81.5 -43t53.5 -67t19 -87v-2q0 -47 -14 -81.5t-39.5 -59.5t-61 -42.5t-78.5 -29.5l-12 -67h-139z" />
    <glyph glyph-name="questiondown" unicode="&#xbf;" horiz-adv-x="537" 
d="M264 -12q-56 0 -103 15t-81.5 43t-53.5 67t-19 87v2q0 47 14 81.5t39.5 59.5t61 42.5t78.5 29.5l12 67h139l28 -173l-12 -12q-40 -5 -66.5 -12t-42.5 -15.5t-23 -19t-7 -22.5v-1q0 -17 15 -28t44 -11t67 17t75 46l108 -162q-48 -43 -115 -72t-158 -29zM169 700h232v-180
h-232v180z" />
    <glyph glyph-name="quotedblleft" unicode="&#x201c;" horiz-adv-x="554" 
d="M23 486q0 60 16 100.5t45 66t69.5 38t89.5 14.5l18 -83q-97 -12 -97 -89h86v-230h-227v183zM300 486q0 60 16 100.5t45 66t69.5 38t89.5 14.5l18 -83q-97 -12 -97 -89h86v-230h-227v183z" />
    <glyph glyph-name="quotedblright" unicode="&#x201d;" horiz-adv-x="554" 
d="M16 381q97 12 97 89h-86v230h227v-183q0 -60 -16 -100.5t-45 -66t-69.5 -38t-89.5 -14.5zM293 381q97 12 97 89h-86v230h227v-183q0 -60 -16 -100.5t-45 -66t-69.5 -38t-89.5 -14.5z" />
    <glyph glyph-name="quoteleft" unicode="&#x2018;" horiz-adv-x="282" 
d="M23 486q0 61 17 102.5t47 66.5t71 36.5t90 13.5l18 -83q-49 -6 -75.5 -28.5t-26.5 -60.5h91v-230h-232v183z" />
    <glyph glyph-name="quoteright" unicode="&#x2019;" horiz-adv-x="282" 
d="M16 381q49 6 75.5 28.5t26.5 60.5h-91v230h232v-183q0 -62 -17 -103t-47 -66t-71 -36.5t-90 -13.5z" />
    <glyph glyph-name="quotedblbase" unicode="&#x201e;" horiz-adv-x="552" 
d="M14 -89q97 12 97 89h-86v230h227v-183q0 -60 -16 -100.5t-45 -66t-69.5 -38t-89.5 -14.5zM291 -89q97 12 97 89h-86v230h227v-183q0 -60 -16 -100.5t-45 -66t-69.5 -38t-89.5 -14.5z" />
    <glyph glyph-name="quotesinglbase" unicode="&#x201a;" horiz-adv-x="282" 
d="M14 -89q49 6 75.5 28.5t26.5 60.5h-91v230h232v-183q0 -62 -17 -103t-47 -66t-71 -36.5t-90 -13.5z" />
    <glyph glyph-name="guillemotleft" unicode="&#xab;" horiz-adv-x="618" 
d="M19 224v88l169 201l140 -70l-115 -175l115 -175l-140 -70zM263 262v12l202 239l140 -70l-115 -175l115 -175l-140 -70z" />
    <glyph glyph-name="guillemotright" unicode="&#xbb;" horiz-adv-x="618" 
d="M13 93l115 175l-115 175l140 70l202 -239v-12l-202 -239zM290 93l115 175l-115 175l140 70l169 -201v-88l-169 -201z" />
    <glyph glyph-name="guilsinglleft" unicode="&#x2039;" horiz-adv-x="341" 
d="M19 224v88l169 201l140 -70l-115 -175l115 -174l-140 -70z" />
    <glyph glyph-name="guilsinglright" unicode="&#x203a;" horiz-adv-x="341" 
d="M13 93l115 175l-115 174l140 70l169 -200v-88l-169 -201z" />
    <glyph glyph-name="hyphen" unicode="-" horiz-adv-x="408" 
d="M30 408h348v-186h-348v186z" />
    <glyph glyph-name="endash" unicode="&#x2013;" horiz-adv-x="528" 
d="M30 406h468v-182h-468v182z" />
    <glyph glyph-name="emdash" unicode="&#x2014;" horiz-adv-x="898" 
d="M30 406h838v-182h-838v182z" />
    <glyph glyph-name="underscore" unicode="_" horiz-adv-x="600" 
d="M-2 -44h604v-116h-604v116z" />
    <glyph glyph-name="slash" unicode="/" horiz-adv-x="540" 
d="M395 798h179l-443 -926h-179z" />
    <glyph glyph-name="backslash" unicode="\" horiz-adv-x="540" 
d="M-34 798h179l443 -926h-179z" />
    <glyph glyph-name="bar" unicode="|" horiz-adv-x="360" 
d="M95 798h170v-926h-170v926z" />
    <glyph glyph-name="parenleft" unicode="(" horiz-adv-x="445" 
d="M336 -141q-71 36 -128 77.5t-96.5 93t-60.5 114.5t-21 143t21 143t60.5 114.5t96.5 93t128 77.5l90 -134q-92 -63 -134 -132.5t-42 -161.5t42 -161.5t134 -132.5z" />
    <glyph glyph-name="parenright" unicode=")" horiz-adv-x="445" 
d="M19 -7q92 63 134 132.5t42 161.5t-42 161.5t-134 132.5l90 134q71 -36 128 -77.5t96.5 -93t60.5 -114.5t21 -143t-21 -143t-60.5 -114.5t-96.5 -93t-128 -77.5z" />
    <glyph glyph-name="bracketleft" unicode="[" horiz-adv-x="450" 
d="M50 700h368v-139h-175v-552h175v-139h-368v830z" />
    <glyph glyph-name="bracketright" unicode="]" horiz-adv-x="450" 
d="M32 9h175v552h-175v139h368v-830h-368v139z" />
    <glyph glyph-name="braceleft" unicode="{" horiz-adv-x="490" 
d="M441 -141q-81 6 -137 20t-90.5 36.5t-49.5 55t-15 76.5q0 6 0.5 16.5t1 22.5t1 23t0.5 17q0 28 -9 46t-25.5 28.5t-40 14.5t-52.5 4h-6v136h6q29 0 52.5 4t40 14.5t25.5 28.5t9 46q0 6 -0.5 17t-1 23t-1 22.5t-0.5 16.5q0 44 15 76.5t49.5 55t90.5 36.5t137 20l32 -121
q-41 -7 -65.5 -15.5t-38.5 -20.5t-18.5 -29t-4.5 -41q0 -11 1.5 -31t1.5 -36q0 -55 -30 -87.5t-89 -46.5q59 -14 89 -46.5t30 -87.5q0 -16 -1.5 -36t-1.5 -31q0 -24 4.5 -41t18.5 -29t38.5 -20.5t65.5 -15.5z" />
    <glyph glyph-name="braceright" unicode="}" horiz-adv-x="490" 
d="M17 -20q40 7 65 15.5t39 20.5t18.5 29t4.5 41q0 11 -1.5 31t-1.5 36q0 55 30 87.5t89 46.5q-59 14 -89 46.5t-30 87.5q0 16 1.5 36t1.5 31q0 24 -4.5 41t-18.5 29t-39 20.5t-65 15.5l32 121q81 -6 136.5 -20t90 -36.5t50 -55t15.5 -76.5q0 -6 -0.5 -16.5t-1 -22.5t-1 -23
t-0.5 -17q0 -28 9 -46t25.5 -28.5t40 -14.5t52.5 -4h6v-136h-6q-59 0 -93 -19t-34 -74q0 -6 0.5 -17t1 -23t1 -22.5t0.5 -16.5q0 -44 -15.5 -76.5t-50 -55t-90 -36.5t-136.5 -20z" />
    <glyph glyph-name="at" unicode="@" horiz-adv-x="950" 
d="M448 219q14 0 26.5 5.5t21.5 14.5q26 26 26 67q0 29 -15.5 44t-37.5 15q-28 0 -48 -20q-12 -12 -19 -29.5t-7 -37.5q0 -29 15.5 -44t37.5 -15zM484 -162q-98 0 -180 34t-141 93t-92 138.5t-33 171.5q0 91 33.5 171.5t93 140t141.5 94t180 34.5q94 0 172 -31t134.5 -83.5
t88 -121.5t31.5 -146q0 -73 -20.5 -126.5t-52.5 -88.5t-73 -52t-81 -17q-65 0 -102 26t-54 65q-31 -42 -66 -64t-80 -22q-40 0 -73.5 15t-58 42t-38 65.5t-13.5 85.5q0 54 17 103t47 85.5t70 58t85 21.5q46 0 78.5 -23.5t51.5 -55.5l13 68l191 -29l-45 -247
q-2 -14 -3.5 -26.5t-1.5 -29.5q0 -23 14.5 -39t41.5 -16q46 0 78.5 50.5t32.5 150.5q0 69 -27.5 131.5t-78 109t-121.5 74t-157 27.5q-90 0 -165 -31t-128.5 -85t-83 -127t-29.5 -157t29 -157t82.5 -126t128 -83.5t164.5 -30.5q75 0 131.5 17t113.5 50l20 -32
q-58 -35 -122.5 -55t-142.5 -20z" />
    <glyph glyph-name="copyright" unicode="&#xa9;" horiz-adv-x="830" 
d="M421 156q-45 0 -82.5 15t-65 41.5t-42.5 62.5t-15 78v2q0 41 15 77t42.5 63t65.5 43t84 16q65 0 106 -27t66 -72l-106 -63q-11 21 -27 34t-43 13q-32 0 -52 -24t-20 -59v-2q0 -37 20 -60t52 -23q28 0 44.5 13.5t28.5 34.5l106 -60q-25 -43 -66.5 -73t-110.5 -30zM414 25
q69 0 127.5 26t101.5 70t67.5 103.5t24.5 125.5v2q0 66 -24.5 125t-67 103t-101 69.5t-126.5 25.5q-69 0 -127.5 -26t-101.5 -70t-67.5 -103.5t-24.5 -125.5v-2q0 -66 24 -125t67 -103t101.5 -69.5t126.5 -25.5zM414 -15q-76 0 -142 29t-114.5 78.5t-76.5 115.5t-28 140v2
q0 74 28 140t77 116t115.5 79.5t142.5 29.5t142 -29t114.5 -78.5t76.5 -115.5t28 -140v-2q0 -74 -28 -140t-77 -116t-115.5 -79.5t-142.5 -29.5z" />
    <glyph glyph-name="registered" unicode="&#xae;" horiz-adv-x="368" 
d="M191 544q24 0 24 18t-23 18h-27v-36h26zM103 631h90q39 0 61.5 -16t22.5 -48q0 -41 -37 -57l43 -63h-70l-35 52h-13v-52h-62v184zM184 379q33 0 61 12.5t48.5 33.5t32.5 49.5t12 60.5v1q0 32 -11.5 60t-32.5 49t-49 33.5t-61 12.5t-61 -12.5t-48.5 -33.5t-32.5 -49.5
t-12 -60.5v-1q0 -32 11.5 -60t32.5 -49t49 -33.5t61 -12.5zM184 360q-37 0 -68.5 14t-55 37.5t-37 55t-13.5 67.5v1q0 36 13.5 67.5t37 55.5t55.5 38t68 14q37 0 68.5 -14t55 -37.5t37 -55t13.5 -67.5v-1q0 -36 -13.5 -67.5t-37 -55.5t-55.5 -38t-68 -14z" />
    <glyph glyph-name="trademark" unicode="&#x2122;" horiz-adv-x="700" 
d="M98 612h-91v88h284v-88h-91v-220h-102v220zM324 700h107l66 -108l66 108h108v-308h-103v153l-71 -110h-1l-71 110v-153h-101v308z" />
    <glyph glyph-name="asterisk" unicode="*" horiz-adv-x="420" 
d="M180 450l-108 -102l-67 113l143 43l-143 43l67 113l108 -102l-34 144h128l-34 -144l108 102l67 -113l-143 -43l143 -43l-67 -113l-108 102l34 -144h-128z" />
    <glyph glyph-name="dagger" unicode="&#x2020;" horiz-adv-x="410" 
d="M158 478l-130 -15v123l129 -15l-18 129h132l-18 -129l129 15v-123l-130 15l10 -270h-114z" />
    <glyph glyph-name="daggerdbl" unicode="&#x2021;" horiz-adv-x="430" 
d="M167 129l-129 -15v123l132 -15l-17 128l17 128l-132 -15v123l129 -15l-18 129h132l-18 -129l129 15v-123l-132 15l17 -128l-17 -128l132 15v-123l-129 15l18 -129h-132z" />
    <glyph glyph-name="dollar" unicode="$" horiz-adv-x="686" 
d="M474 205q0 16 -13 25t-51 16v-81q35 2 49.5 12t14.5 26v2zM251 496q0 -16 14 -25.5t53 -16.5v81q-37 -1 -52 -11.5t-15 -25.5v-2zM557 465q-32 23 -70 38t-75 23v-82q63 -12 111.5 -29t82 -42.5t51 -62t17.5 -87.5v-2q0 -50 -18.5 -89t-52.5 -66.5t-82 -44.5t-107 -21
v-98h-104v98q-84 8 -162 33.5t-142 70.5l102 151q56 -36 107.5 -56t100.5 -28v84q-66 13 -116.5 30.5t-84.5 43t-51.5 61.5t-17.5 85v2q0 46 16.5 86t50 69.5t84 47.5t117.5 21v57h104v-60q70 -7 127 -28t108 -53z" />
    <glyph glyph-name="sterling" unicode="&#xa3;" horiz-adv-x="633" 
d="M28 130l74 32v97h-74v146h74v20q0 66 19.5 121.5t57.5 93.5q74 74 207 74q78 0 138 -24.5t102 -62.5l-118 -164q-20 21 -44.5 34t-53.5 13q-37 0 -57 -22q-21 -21 -21 -60v-23h204v-146h-204v-85h282v-174h-586v130z" />
    <glyph glyph-name="yen" unicode="&#xa5;" horiz-adv-x="730" 
d="M64 395h131l-201 305h262l110 -202l111 202h259l-204 -305h134v-131h-184v-39h184v-131h-184v-94h-234v94h-184v131h184v39h-184v131z" />
    <glyph glyph-name="cent" unicode="&#xa2;" horiz-adv-x="569" 
d="M201 356q0 -78 49 -108l36 230q-20 -4 -36 -15.5t-27 -28t-16.5 -36t-5.5 -40.5v-2zM421 621q54 -19 91.5 -52.5t54.5 -69.5l-143 -80q-8 11 -18.5 22.5t-25.5 19.5l-35 -226q23 5 43.5 19.5t35.5 38.5l145 -82q-34 -62 -93 -98t-141 -40l-13 -79h-127l15 96
q-44 15 -79.5 40.5t-60.5 60t-39 76t-14 87.5v2q0 58 19.5 108.5t56 88t88 60t116.5 25.5l11 68h127z" />
    <glyph glyph-name="florin" unicode="&#x192;" horiz-adv-x="569" 
d="M122 -15q-27 0 -53.5 3.5t-58.5 11.5v152q18 -5 31 -6.5t26 -1.5q32 0 46 15t21 54l18 102h-55v161h84l11 58q17 98 80 139.5t167 41.5q33 0 65 -4t55 -11v-152q-17 4 -35 6t-30 2q-38 0 -56.5 -13.5t-24.5 -45.5l-4 -21h114v-161h-143l-23 -129q-10 -55 -27.5 -93.5
t-45.5 -62.5t-68 -34.5t-94 -10.5z" />
    <glyph glyph-name="numbersign" unicode="#" horiz-adv-x="711" 
d="M285 305h123l16 94h-123zM656 120h-130l-20 -120h-157l20 120h-109l-20 -120h-157l20 120h-79v193h112l14 78h-95v193h128l20 116h157l-20 -116h109l20 116h157l-20 -116h81v-193h-114l-14 -78h97v-193z" />
    <glyph glyph-name="paragraph" unicode="&#xb6;" horiz-adv-x="601" 
d="M327 210h-18q-66 0 -121 16t-94.5 47t-61.5 76t-22 103v2q0 60 21.5 106t62 77t97 47t127.5 16h243v-700h-234v210z" />
    <glyph glyph-name="section" unicode="&#xa7;" horiz-adv-x="620" 
d="M386 305q22 0 34.5 6t12.5 20v2q0 14 -29 24.5t-72 20.5q-32 8 -58 12.5t-40 4.5q-22 0 -34.5 -6t-12.5 -20v-2q0 -14 29 -24.5t72 -20.5q32 -8 58 -12.5t40 -4.5zM498 260q23 -18 37.5 -44.5t14.5 -61.5v-2q0 -32 -15 -62t-46.5 -53t-80 -37.5t-115.5 -14.5
q-36 0 -71.5 5.5t-67 14.5t-58 20t-44.5 22l72 135q20 -11 43.5 -20.5t47.5 -16.5t47 -10.5t43 -3.5q26 0 34.5 6.5t8.5 17.5v2q0 11 -24 19.5t-60 16.5q-35 8 -76 18t-76 26t-58.5 39.5t-23.5 59.5v2q0 38 24.5 63t67.5 39q-23 18 -37.5 45t-14.5 62v2q0 31 15 61
t46.5 53.5t80 37.5t115.5 14q36 0 71.5 -5.5t67 -14.5t58 -20t44.5 -22l-72 -135q-20 11 -43.5 20.5t-47.5 16t-47.5 10.5t-42.5 4q-26 0 -34.5 -6t-8.5 -17v-2q0 -11 24 -20t60 -17q35 -8 76 -18t76 -26t58.5 -39.5t23.5 -59.5v-2q0 -38 -24.5 -63t-67.5 -39z" />
    <glyph glyph-name="ordfeminine" unicode="&#xaa;" horiz-adv-x="390" 
d="M184 469q17 0 28 11.5t11 33.5v12q-5 2 -13 3.5t-16 1.5q-18 0 -28 -9.5t-10 -23.5v-2q0 -13 8 -20t20 -7zM34 351h318v-87h-318v87zM135 396q-44 0 -71.5 23.5t-27.5 68.5v2q0 45 31 68.5t84 23.5q19 0 40 -3.5t31 -7.5v3q0 44 -56 44q-23 0 -43 -4.5t-40 -12.5l-22 83
q26 10 56.5 16t70.5 6q46 0 76.5 -9.5t50.5 -29.5q17 -17 24 -40t7 -56v-169h-125v32q-16 -17 -37 -27.5t-49 -10.5z" />
    <glyph glyph-name="ordmasculine" unicode="&#xba;" horiz-adv-x="390" 
d="M196 497q22 0 35 13.5t13 36.5v2q0 23 -14.5 37.5t-35.5 14.5q-22 0 -35 -13.5t-13 -36.5v-2q0 -23 14.5 -37.5t35.5 -14.5zM51 351h288v-87h-288v87zM194 393q-37 0 -67.5 12t-53 33t-35 49t-12.5 60v2q0 32 12.5 60.5t35 49.5t54 33.5t68.5 12.5t67.5 -12t53 -33
t35 -49t12.5 -60v-2q0 -32 -12.5 -60.5t-35 -49.5t-54 -33.5t-68.5 -12.5z" />
    <glyph glyph-name="degree" unicode="&#xb0;" horiz-adv-x="464" 
d="M232 445q32 0 54 22t22 54v2q0 32 -23 54.5t-53 22.5q-31 0 -53.5 -22.5t-22.5 -54.5v-2q0 -32 22 -54t54 -22zM232 336q-39 0 -74 14.5t-61 39.5t-41 58.5t-15 72.5v2q0 39 15.5 72.5t41.5 59t60.5 40t73.5 14.5q38 0 72.5 -14.5t61 -40t42 -59t15.5 -72.5v-2
q0 -39 -15 -72.5t-41 -58.5t-61 -39.5t-74 -14.5z" />
    <glyph glyph-name="percent" unicode="%" horiz-adv-x="937" 
d="M721 116q20 0 36 18.5t16 50.5v2q0 32 -15.5 50.5t-36.5 18.5q-22 0 -37 -18.5t-15 -50.5v-2q0 -32 16 -50.5t36 -18.5zM721 -11q-43 0 -78 15.5t-60 42.5t-39 62.5t-14 75.5v2q0 40 13.5 75.5t38 62.5t60 42.5t79.5 15.5t79.5 -15.5t60 -42.5t38 -62.5t13.5 -75.5v-2
q0 -40 -14 -75.5t-39 -62.5t-60 -42.5t-78 -15.5zM677 700h151l-315 -385l-253 -315h-151l309 377zM216 584q-22 0 -37 -18.5t-15 -50.5v-2q0 -32 16 -50.5t36 -18.5t36 18.5t16 50.5v2q0 32 -15.5 50.5t-36.5 18.5zM216 317q-43 0 -78 15.5t-60 42.5t-39 62.5t-14 75.5v2
q0 40 13.5 75.5t38 62.5t60 42.5t79.5 15.5t79.5 -15.5t60 -42.5t38 -62.5t13.5 -75.5v-2q0 -40 -14 -75.5t-39 -62.5t-60 -42.5t-78 -15.5z" />
    <glyph glyph-name="perthousand" unicode="&#x2030;" horiz-adv-x="1349" 
d="M1133 -11q-43 0 -78 15.5t-60 42.5t-39 62.5t-14 75.5v2q0 40 13.5 75.5t38 62.5t60 42.5t79.5 15.5t79.5 -15.5t60 -42.5t38 -62.5t13.5 -75.5v-2q0 -40 -14 -75.5t-39 -62.5t-60 -42.5t-78 -15.5zM1133 116q20 0 36 18.5t16 50.5v2q0 32 -15.5 50.5t-36.5 18.5
q-22 0 -37 -18.5t-15 -50.5v-2q0 -32 16 -50.5t36 -18.5zM721 -11q-43 0 -78 15.5t-60 42.5t-39 62.5t-14 75.5v2q0 40 13.5 75.5t38 62.5t60 42.5t79.5 15.5t79.5 -15.5t60 -42.5t38 -62.5t13.5 -75.5v-2q0 -40 -14 -75.5t-39 -62.5t-60 -42.5t-78 -15.5zM721 116
q20 0 36 18.5t16 50.5v2q0 32 -15.5 50.5t-36.5 18.5q-22 0 -37 -18.5t-15 -50.5v-2q0 -32 16 -50.5t36 -18.5zM513 315l-253 -315h-151l309 377l259 323h151zM216 317q-43 0 -78 15.5t-60 42.5t-39 62.5t-14 75.5v2q0 40 13.5 75.5t38 62.5t60 42.5t79.5 15.5t79.5 -15.5
t60 -42.5t38 -62.5t13.5 -75.5v-2q0 -40 -14 -75.5t-39 -62.5t-60 -42.5t-78 -15.5zM216 444q20 0 36 18.5t16 50.5v2q0 32 -15.5 50.5t-36.5 18.5q-22 0 -37 -18.5t-15 -50.5v-2q0 -32 16 -50.5t36 -18.5z" />
    <glyph glyph-name="quotedbl" unicode="&#x22;" horiz-adv-x="554" 
d="M38 700h239v-5l-144 -394h-122zM315 700h239v-5l-144 -394h-122z" />
    <glyph glyph-name="quotesingle" unicode="'" horiz-adv-x="282" 
d="M38 700h244v-5l-144 -394h-127z" />
    <glyph glyph-name="plus" unicode="+" horiz-adv-x="640" 
d="M217 253h-171v198h171v168h206v-168h171v-198h-171v-169h-206v169z" />
    <glyph glyph-name="divide" unicode="&#xf7;" horiz-adv-x="640" 
d="M220 215h200v-178h-200v178zM46 264v176h548v-176h-548zM220 667h200v-178h-200v178z" />
    <glyph glyph-name="equal" unicode="=" horiz-adv-x="640" 
d="M53 311h534v-191h-534v191zM53 584h534v-191h-534v191z" />
    <glyph glyph-name="less" unicode="&#x3c;" horiz-adv-x="640" 
d="M58 244v214l510 184v-211l-316 -80l316 -80v-211z" />
    <glyph glyph-name="greater" unicode="&#x3e;" horiz-adv-x="640" 
d="M72 271l316 80l-316 80v211l510 -184v-214l-510 -184v211z" />
    <glyph glyph-name="plusminus" unicode="&#xb1;" horiz-adv-x="640" 
d="M49 0v154h542v-154h-542zM411 373l1 -159h-184l1 159l-180 -1v170l180 -1l-1 159h184l-1 -159l180 1v-170z" />
    <glyph glyph-name="C" unicode="C" horiz-adv-x="723" 
d="M387 -15q-73 0 -138.5 26t-115.5 74t-79.5 115t-29.5 148v2q0 78 28.5 145t79 116t118.5 76.5t146 27.5q58 0 106.5 -13.5t88 -37.5t70 -57.5t52.5 -73.5l-193 -113q-20 38 -49.5 61.5t-77.5 23.5q-30 0 -54 -12t-41 -33t-26.5 -49t-9.5 -59v-2q0 -34 9.5 -62.5t27 -49
t41.5 -32t53 -11.5q50 0 80 24.5t52 63.5l193 -109q-22 -39 -52 -73.5t-70.5 -60t-92 -40.5t-116.5 -15z" />
    <glyph glyph-name="uni00A0" unicode="&#xa0;" horiz-adv-x="254" 
 />
    <glyph glyph-name="A" unicode="A" horiz-adv-x="800" 
d="M462 260l-64 170l-64 -170h128zM284 705h232l295 -705h-254l-37 94h-245l-36 -94h-250z" />
    <glyph glyph-name="asciicircum" unicode="^" horiz-adv-x="500" 
d="M174 698h152l140 -205h-156l-61 77l-61 -77h-154z" />
    <glyph glyph-name="asciitilde" unicode="~" horiz-adv-x="500" 
d="M342 221q-23 0 -48.5 6.5t-47.5 14.5q-23 8 -39.5 13t-26.5 5q-19 0 -27.5 -10.5t-17.5 -33.5l-101 25q15 86 44 122.5t80 36.5q23 0 48.5 -6.5t47.5 -14.5q23 -8 39.5 -13t26.5 -5q19 0 27.5 10.5t17.5 33.5l101 -25q-15 -86 -44 -122.5t-80 -36.5z" />
    <glyph glyph-name="fraction" unicode="&#x2044;" horiz-adv-x="100" 
d="M28 365l218 335h83l-257 -365l-218 -335h-83z" />
    <glyph glyph-name="acute" unicode="&#xb4;" horiz-adv-x="500" 
d="M212 772l221 -57l-165 -135h-152z" />
    <glyph glyph-name="hungarumlaut" unicode="&#x2dd;" horiz-adv-x="500" 
d="M98 772l177 -49l22 49l205 -57l-155 -135h-136l40 90l-103 -90h-136z" />
    <glyph glyph-name="grave" unicode="`" horiz-adv-x="500" 
d="M67 715l221 57l96 -192h-152z" />
    <glyph glyph-name="circumflex" unicode="&#x2c6;" horiz-adv-x="500" 
d="M168 752h164l133 -172h-127l-89 56l-89 -56h-125z" />
    <glyph glyph-name="caron" unicode="&#x2c7;" horiz-adv-x="500" 
d="M332 580h-164l-133 172h127l89 -56l89 56h125z" />
    <glyph glyph-name="breve" unicode="&#x2d8;" horiz-adv-x="500" 
d="M250 578q-88 0 -143 45t-63 129h120q9 -26 28.5 -41t57.5 -15t57.5 15t28.5 41h120q-8 -84 -63 -129t-143 -45z" />
    <glyph glyph-name="tilde" unicode="&#x2dc;" horiz-adv-x="500" 
d="M342 580q-23 0 -48.5 6.5t-47.5 14.5q-23 8 -39.5 13t-26.5 5q-19 0 -27.5 -10.5t-17.5 -33.5l-101 25q15 86 44 122.5t80 36.5q23 0 48.5 -6.5t47.5 -14.5q23 -8 39.5 -13t26.5 -5q19 0 27.5 10.5t17.5 33.5l101 -25q-15 -86 -44 -122.5t-80 -36.5z" />
    <glyph glyph-name="macron" unicode="&#xaf;" horiz-adv-x="500" 
d="M55 712h390v-122h-390v122z" />
    <glyph glyph-name="dieresis" unicode="&#xa8;" horiz-adv-x="500" 
d="M56 730h177v-150h-177v150zM267 730h177v-150h-177v150z" />
    <glyph glyph-name="dotaccent" unicode="&#x2d9;" horiz-adv-x="500" 
d="M158 730h184v-150h-184v150z" />
    <glyph glyph-name="ring" unicode="&#x2da;" horiz-adv-x="500" 
d="M250 649q30 0 50.5 21t20.5 52t-20.5 52t-50.5 21t-50.5 -21t-20.5 -52t20.5 -52t50.5 -21zM250 585q-30 0 -56.5 10.5t-46 29t-30.5 43.5t-11 54t11 54t30.5 43.5t46 29t56.5 10.5t56 -10.5t45.5 -29t31 -43.5t11.5 -54t-11.5 -54t-31 -43.5t-45.5 -29t-56 -10.5z" />
    <glyph glyph-name="cedilla" unicode="&#xb8;" horiz-adv-x="500" 
d="M101 -98l95 118h137l-58 -193z" />
    <glyph glyph-name="ogonek" unicode="&#x2db;" horiz-adv-x="500" 
d="M390 -164q-20 -2 -38 -3.5t-35 -1.5q-78 0 -124 23.5t-46 63.5q0 49 58 92h140q-16 -14 -22.5 -25.5t-6.5 -22.5q0 -17 16 -24.5t58 -5.5v-96z" />
    <glyph glyph-name="B" unicode="B" horiz-adv-x="708" 
d="M462 230q0 23 -19 37t-57 14h-118v-104h117q38 0 57.5 14t19.5 37v2zM444 475q0 48 -75 48h-101v-98h102q74 0 74 48v2zM40 700h392q73 0 120.5 -16t78.5 -47q19 -19 31 -46t12 -63v-2q0 -63 -34 -101.5t-91 -58.5q68 -20 108 -59t40 -111v-2q0 -42 -17 -77.5t-51 -61.5
t-84.5 -40.5t-116.5 -14.5h-388v700z" />
    <glyph glyph-name="Q.alt" horiz-adv-x="812" 
d="M407 192q33 0 60 13t46 34.5t29 49.5t10 59v2q0 31 -10.5 59.5t-29.5 50.5t-46 35t-61 13q-33 0 -60 -13t-46 -34.5t-29 -49.5t-10 -59v-2q0 -31 10.5 -59.5t29.5 -50.5t46 -35t61 -13zM506 -1q-48 -12 -101 -12q-81 0 -150.5 28t-121 76.5t-80.5 114.5t-29 142v2
q0 76 29.5 142.5t81 116t121.5 78t151 28.5t150.5 -28t121 -77t80.5 -115.5t29 -142.5v-2q0 -68 -23 -127.5t-65 -107.5l181 -189v-2h-300z" />
    <glyph glyph-name="a.alt" horiz-adv-x="676" 
d="M329 174q39 0 65 28t26 70v2q0 20 -7 38t-19 31.5t-29 21t-36 7.5q-39 0 -65 -28t-26 -70v-2q0 -42 26 -70t65 -28zM253 -13q-50 0 -92.5 20.5t-74.5 58t-50 89t-18 114.5v2q0 65 18.5 118t50 91t74 58.5t90.5 20.5q62 0 100 -23t64 -52v62h227v-546h-227v67
q-14 -15 -29.5 -29.5t-34.5 -25.5t-43 -18t-55 -7z" />
    <glyph glyph-name="aacute.alt" horiz-adv-x="676" 
d="M361 780l221 -57l-165 -135h-152zM329 174q39 0 65 28t26 70v2q0 20 -7 38t-19 31.5t-29 21t-36 7.5q-39 0 -65 -28t-26 -70v-2q0 -42 26 -70t65 -28zM253 -13q-50 0 -92.5 20.5t-74.5 58t-50 89t-18 114.5v2q0 65 18.5 118t50 91t74 58.5t90.5 20.5q62 0 100 -23t64 -52
v62h227v-546h-227v67q-14 -15 -29.5 -29.5t-34.5 -25.5t-43 -18t-55 -7z" />
    <glyph glyph-name="Abreve" unicode="&#x102;" horiz-adv-x="800" 
d="M401 748q-87 0 -139 38t-65 116h125q9 -20 28 -31t51 -11t50.5 11t28.5 31h124q-12 -78 -64 -116t-139 -38zM462 260l-64 170l-64 -170h128zM284 705h232l295 -705h-254l-37 94h-245l-36 -94h-250z" />
    <glyph glyph-name="abreve" unicode="&#x103;" horiz-adv-x="606" 
d="M309 586q-88 0 -143 45t-63 129h120q9 -26 28.5 -41t57.5 -15t57.5 15t28.5 41h120q-8 -84 -63 -129t-143 -45zM282 118q30 0 50 22.5t20 61.5v23q-10 4 -24 6.5t-28 2.5q-34 0 -52 -17.5t-18 -43.5v-2q0 -24 15 -38.5t37 -14.5zM192 -13q-39 0 -72 11t-57 32.5t-37 52.5
t-13 72v2q0 82 56 126t152 44q17 0 36 -1.5t36.5 -4.5t32.5 -6.5t24 -7.5v9q0 38 -24 58.5t-77 20.5q-42 0 -78.5 -8.5t-72.5 -22.5l-40 151q48 18 103 29t127 11q84 0 139.5 -17.5t91.5 -53.5q31 -31 44 -72t13 -101v-311h-227v55q-29 -31 -67.5 -49.5t-89.5 -18.5z" />
    <glyph glyph-name="abreve.alt" horiz-adv-x="676" 
d="M350 586q-88 0 -143 45t-63 129h120q9 -26 28.5 -41t57.5 -15t57.5 15t28.5 41h120q-8 -84 -63 -129t-143 -45zM329 174q39 0 65 28t26 70v2q0 20 -7 38t-19 31.5t-29 21t-36 7.5q-39 0 -65 -28t-26 -70v-2q0 -42 26 -70t65 -28zM253 -13q-50 0 -92.5 20.5t-74.5 58
t-50 89t-18 114.5v2q0 65 18.5 118t50 91t74 58.5t90.5 20.5q62 0 100 -23t64 -52v62h227v-546h-227v67q-14 -15 -29.5 -29.5t-34.5 -25.5t-43 -18t-55 -7z" />
    <glyph glyph-name="acircumflex.alt" horiz-adv-x="676" 
d="M268 760h164l133 -172h-127l-89 56l-89 -56h-125zM329 174q39 0 65 28t26 70v2q0 20 -7 38t-19 31.5t-29 21t-36 7.5q-39 0 -65 -28t-26 -70v-2q0 -42 26 -70t65 -28zM253 -13q-50 0 -92.5 20.5t-74.5 58t-50 89t-18 114.5v2q0 65 18.5 118t50 91t74 58.5t90.5 20.5
q62 0 100 -23t64 -52v62h227v-546h-227v67q-14 -15 -29.5 -29.5t-34.5 -25.5t-43 -18t-55 -7z" />
    <glyph glyph-name="adieresis.alt" horiz-adv-x="676" 
d="M156 738h177v-150h-177v150zM367 738h177v-150h-177v150zM329 174q39 0 65 28t26 70v2q0 20 -7 38t-19 31.5t-29 21t-36 7.5q-39 0 -65 -28t-26 -70v-2q0 -42 26 -70t65 -28zM253 -13q-50 0 -92.5 20.5t-74.5 58t-50 89t-18 114.5v2q0 65 18.5 118t50 91t74 58.5
t90.5 20.5q62 0 100 -23t64 -52v62h227v-546h-227v67q-14 -15 -29.5 -29.5t-34.5 -25.5t-43 -18t-55 -7z" />
    <glyph glyph-name="AEacute" unicode="&#x1fc;" horiz-adv-x="1080" 
d="M625 907l231 -52l-160 -115h-167zM480 260v255h-6l-128 -255h134zM344 700h708v-192h-347v-71h322v-169h-322v-76h352v-192h-577v94h-217l-47 -94h-235z" />
    <glyph glyph-name="aeacute" unicode="&#x1fd;" horiz-adv-x="929" 
d="M474 772l221 -57l-165 -135h-152zM287 120q21 0 41.5 10t40.5 27q-13 31 -18 68q-10 4 -23.5 6.5t-27.5 2.5q-34 0 -52 -17.5t-18 -43.5v-2q0 -24 16 -37.5t41 -13.5zM706 320q-4 39 -25 60.5t-51 21.5q-29 0 -48 -22t-24 -60h148zM212 -13q-39 0 -75 10t-63.5 30.5
t-44 52t-16.5 75.5v2q0 82 56 126t152 44q17 0 36 -1.5t36.5 -4.5t32.5 -6.5t24 -7.5v9q0 38 -24 58.5t-77 20.5q-42 0 -78.5 -8.5t-72.5 -22.5l-40 151q48 18 103 29t127 11q66 0 109.5 -13.5t74.5 -39.5q32 27 72.5 42t89.5 15q70 0 122.5 -23.5t87 -64.5t52 -96
t17.5 -117v-19t-1 -19h-351q12 -36 39 -54.5t64 -18.5q31 0 57.5 14t53.5 42l122 -97q-41 -53 -100.5 -86t-148.5 -33q-69 0 -125 21t-95 60q-49 -38 -104 -59.5t-112 -21.5z" />
    <glyph glyph-name="agrave.alt" horiz-adv-x="676" 
d="M118 723l221 57l96 -192h-152zM329 174q39 0 65 28t26 70v2q0 20 -7 38t-19 31.5t-29 21t-36 7.5q-39 0 -65 -28t-26 -70v-2q0 -42 26 -70t65 -28zM253 -13q-50 0 -92.5 20.5t-74.5 58t-50 89t-18 114.5v2q0 65 18.5 118t50 91t74 58.5t90.5 20.5q62 0 100 -23t64 -52v62
h227v-546h-227v67q-14 -15 -29.5 -29.5t-34.5 -25.5t-43 -18t-55 -7z" />
    <glyph glyph-name="Amacron" unicode="&#x100;" horiz-adv-x="800" 
d="M192 887h416v-127h-416v127zM462 260l-64 170l-64 -170h128zM284 705h232l295 -705h-254l-37 94h-245l-36 -94h-250z" />
    <glyph glyph-name="amacron" unicode="&#x101;" horiz-adv-x="606" 
d="M114 720h390v-122h-390v122zM282 118q30 0 50 22.5t20 61.5v23q-10 4 -24 6.5t-28 2.5q-34 0 -52 -17.5t-18 -43.5v-2q0 -24 15 -38.5t37 -14.5zM192 -13q-39 0 -72 11t-57 32.5t-37 52.5t-13 72v2q0 82 56 126t152 44q17 0 36 -1.5t36.5 -4.5t32.5 -6.5t24 -7.5v9
q0 38 -24 58.5t-77 20.5q-42 0 -78.5 -8.5t-72.5 -22.5l-40 151q48 18 103 29t127 11q84 0 139.5 -17.5t91.5 -53.5q31 -31 44 -72t13 -101v-311h-227v55q-29 -31 -67.5 -49.5t-89.5 -18.5z" />
    <glyph glyph-name="amacron.alt" horiz-adv-x="676" 
d="M155 720h390v-122h-390v122zM329 174q39 0 65 28t26 70v2q0 20 -7 38t-19 31.5t-29 21t-36 7.5q-39 0 -65 -28t-26 -70v-2q0 -42 26 -70t65 -28zM253 -13q-50 0 -92.5 20.5t-74.5 58t-50 89t-18 114.5v2q0 65 18.5 118t50 91t74 58.5t90.5 20.5q62 0 100 -23t64 -52v62
h227v-546h-227v67q-14 -15 -29.5 -29.5t-34.5 -25.5t-43 -18t-55 -7z" />
    <glyph glyph-name="Aogonek" unicode="&#x104;" horiz-adv-x="800" 
d="M462 260l-64 170l-64 -170h128zM818 -164q-20 -2 -38 -3.5t-35 -1.5q-78 0 -124 23.5t-46 63.5q0 43 45 82h-63l-37 94h-245l-36 -94h-250l295 705h232l295 -705h-49q-18 -19 -18 -38q0 -17 16 -24.5t58 -5.5v-96z" />
    <glyph glyph-name="aogonek" unicode="&#x105;" horiz-adv-x="606" 
d="M282 118q30 0 50 22.5t20 61.5v23q-10 4 -24 6.5t-28 2.5q-34 0 -52 -17.5t-18 -43.5v-2q0 -24 15 -38.5t37 -14.5zM584 -164q-20 -2 -38 -3.5t-35 -1.5q-78 0 -124 23.5t-46 63.5q0 43 45 82h-37v55q-29 -31 -67.5 -49.5t-89.5 -18.5q-39 0 -72 11t-57 32.5t-37 52.5
t-13 72v2q0 82 56 126t152 44q17 0 36 -1.5t36.5 -4.5t32.5 -6.5t24 -7.5v9q0 38 -24 58.5t-77 20.5q-42 0 -78.5 -8.5t-72.5 -22.5l-40 151q48 18 103 29t127 11q84 0 139.5 -17.5t91.5 -53.5q31 -31 44 -72t13 -101v-311h-48q-18 -19 -18 -38q0 -17 16 -24.5t58 -5.5v-96z
" />
    <glyph glyph-name="aogonek.alt" horiz-adv-x="676" 
d="M329 174q39 0 65 28t26 70v2q0 20 -7 38t-19 31.5t-29 21t-36 7.5q-39 0 -65 -28t-26 -70v-2q0 -42 26 -70t65 -28zM650 -164q-20 -2 -38 -3.5t-35 -1.5q-78 0 -124 23.5t-46 63.5q0 43 45 82h-37v67q-14 -15 -29.5 -29.5t-34.5 -25.5t-43 -18t-55 -7q-50 0 -92.5 20.5
t-74.5 58t-50 89t-18 114.5v2q0 65 18.5 118t50 91t74 58.5t90.5 20.5q62 0 100 -23t64 -52v62h227v-546h-48q-18 -19 -18 -38q0 -17 16 -24.5t58 -5.5v-96z" />
    <glyph glyph-name="aring.alt" horiz-adv-x="676" 
d="M350 657q30 0 50.5 21t20.5 52t-20.5 52t-50.5 21t-50.5 -21t-20.5 -52t20.5 -52t50.5 -21zM350 593q-30 0 -56.5 10.5t-46 29t-30.5 43.5t-11 54t11 54t30.5 43.5t46 29t56.5 10.5t56 -10.5t45.5 -29t31 -43.5t11.5 -54t-11.5 -54t-31 -43.5t-45.5 -29t-56 -10.5z
M329 174q39 0 65 28t26 70v2q0 20 -7 38t-19 31.5t-29 21t-36 7.5q-39 0 -65 -28t-26 -70v-2q0 -42 26 -70t65 -28zM253 -13q-50 0 -92.5 20.5t-74.5 58t-50 89t-18 114.5v2q0 65 18.5 118t50 91t74 58.5t90.5 20.5q62 0 100 -23t64 -52v62h227v-546h-227v67
q-14 -15 -29.5 -29.5t-34.5 -25.5t-43 -18t-55 -7z" />
    <glyph glyph-name="aring.alt2" horiz-adv-x="606" 
d="M238 626q0 -31 20.5 -52t50.5 -21t50.5 21t20.5 52t-20.5 52t-50.5 21t-50.5 -21t-20.5 -52zM282 118q30 0 50 22.5t20 61.5v23q-10 4 -24 6.5t-28 2.5q-34 0 -52 -17.5t-18 -43.5v-2q0 -24 15 -38.5t37 -14.5zM192 -13q-39 0 -72 11t-57 32.5t-37 52.5t-13 72v2
q0 82 56 126t152 44q17 0 36 -1.5t36.5 -4.5t32.5 -6.5t24 -7.5v9q0 38 -24 58.5t-77 20.5q-42 0 -78.5 -8.5t-72.5 -22.5l-40 151q30 11 63 20t71 14q-27 35 -27 77q0 29 11 54t30.5 43.5t46 29t56.5 10.5t56 -10.5t45.5 -29t31 -43.5t11.5 -54q0 -48 -35 -86
q61 -16 101 -56q31 -31 44 -72t13 -101v-311h-227v55q-29 -31 -67.5 -49.5t-89.5 -18.5z" />
    <glyph glyph-name="Aringacute" unicode="&#x1fa;" horiz-adv-x="800" 
d="M462 260l-64 170l-64 -170h128zM400 665q36 0 58.5 21t22.5 53t-22.5 53t-58.5 21t-58.5 -21t-22.5 -53t22.5 -53t58.5 -21zM418 1068l221 -57l-175 -110h-152zM266 663q-11 16 -17.5 35t-6.5 41q0 30 12 56t33.5 44.5t50.5 29.5t62 11t62 -11t50.5 -29.5t33.5 -44.5
t12 -56q0 -22 -6.5 -41t-17.5 -35l277 -663h-254l-37 94h-245l-36 -94h-250z" />
    <glyph glyph-name="aringacute" unicode="&#x1fb;" horiz-adv-x="606" 
d="M309 657q30 0 50.5 21t20.5 52t-20.5 52t-50.5 21t-50.5 -21t-20.5 -52t20.5 -52t50.5 -21zM309 593q-30 0 -56.5 10.5t-46 29t-30.5 43.5t-11 54t11 54t30.5 43.5t46 29t56.5 10.5t56 -10.5t45.5 -29t31 -43.5t11.5 -54t-11.5 -54t-31 -43.5t-45.5 -29t-56 -10.5z
M282 118q30 0 50 22.5t20 61.5v23q-10 4 -24 6.5t-28 2.5q-34 0 -52 -17.5t-18 -43.5v-2q0 -24 15 -38.5t37 -14.5zM192 -13q-39 0 -72 11t-57 32.5t-37 52.5t-13 72v2q0 82 56 126t152 44q17 0 36 -1.5t36.5 -4.5t32.5 -6.5t24 -7.5v9q0 38 -24 58.5t-77 20.5
q-42 0 -78.5 -8.5t-72.5 -22.5l-40 151q48 18 103 29t127 11q84 0 139.5 -17.5t91.5 -53.5q31 -31 44 -72t13 -101v-311h-227v55q-29 -31 -67.5 -49.5t-89.5 -18.5zM328 1071l213 -55l-167 -117h-152z" />
    <glyph glyph-name="aringacute.alt" horiz-adv-x="676" 
d="M350 657q30 0 50.5 21t20.5 52t-20.5 52t-50.5 21t-50.5 -21t-20.5 -52t20.5 -52t50.5 -21zM350 593q-30 0 -56.5 10.5t-46 29t-30.5 43.5t-11 54t11 54t30.5 43.5t46 29t56.5 10.5t56 -10.5t45.5 -29t31 -43.5t11.5 -54t-11.5 -54t-31 -43.5t-45.5 -29t-56 -10.5z
M329 174q39 0 65 28t26 70v2q0 20 -7 38t-19 31.5t-29 21t-36 7.5q-39 0 -65 -28t-26 -70v-2q0 -42 26 -70t65 -28zM253 -13q-50 0 -92.5 20.5t-74.5 58t-50 89t-18 114.5v2q0 65 18.5 118t50 91t74 58.5t90.5 20.5q62 0 100 -23t64 -52v62h227v-546h-227v67
q-14 -15 -29.5 -29.5t-34.5 -25.5t-43 -18t-55 -7zM369 1071l213 -55l-167 -117h-152z" />
    <glyph glyph-name="aringacute.alt2" horiz-adv-x="606" 
d="M238 626q0 -31 20.5 -52t50.5 -21t50.5 21t20.5 52t-20.5 52t-50.5 21t-50.5 -21t-20.5 -52zM282 118q30 0 50 22.5t20 61.5v23q-10 4 -24 6.5t-28 2.5q-34 0 -52 -17.5t-18 -43.5v-2q0 -24 15 -38.5t37 -14.5zM192 -13q-39 0 -72 11t-57 32.5t-37 52.5t-13 72v2
q0 82 56 126t152 44q17 0 36 -1.5t36.5 -4.5t32.5 -6.5t24 -7.5v9q0 38 -24 58.5t-77 20.5q-42 0 -78.5 -8.5t-72.5 -22.5l-40 151q30 11 63 20t71 14q-27 35 -27 77q0 29 11 54t30.5 43.5t46 29t56.5 10.5t56 -10.5t45.5 -29t31 -43.5t11.5 -54q0 -48 -35 -86
q61 -16 101 -56q31 -31 44 -72t13 -101v-311h-227v55q-29 -31 -67.5 -49.5t-89.5 -18.5zM328 967l213 -55l-167 -117h-152z" />
    <glyph glyph-name="atilde.alt" horiz-adv-x="676" 
d="M444 588q-23 0 -48.5 6.5t-47.5 14.5q-23 8 -39.5 13t-26.5 5q-19 0 -27.5 -10.5t-17.5 -33.5l-101 25q15 86 44 122.5t80 36.5q23 0 48.5 -6.5t47.5 -14.5q23 -8 39.5 -13t26.5 -5q19 0 27.5 10.5t17.5 33.5l101 -25q-15 -86 -44 -122.5t-80 -36.5zM329 174q39 0 65 28
t26 70v2q0 20 -7 38t-19 31.5t-29 21t-36 7.5q-39 0 -65 -28t-26 -70v-2q0 -42 26 -70t65 -28zM253 -13q-50 0 -92.5 20.5t-74.5 58t-50 89t-18 114.5v2q0 65 18.5 118t50 91t74 58.5t90.5 20.5q62 0 100 -23t64 -52v62h227v-546h-227v67q-14 -15 -29.5 -29.5t-34.5 -25.5
t-43 -18t-55 -7z" />
    <glyph glyph-name="Cacute" unicode="&#x106;" horiz-adv-x="723" 
d="M401 917l231 -52l-160 -115h-167zM387 -15q-73 0 -138.5 26t-115.5 74t-79.5 115t-29.5 148v2q0 78 28.5 145t79 116t118.5 76.5t146 27.5q58 0 106.5 -13.5t88 -37.5t70 -57.5t52.5 -73.5l-193 -113q-20 38 -49.5 61.5t-77.5 23.5q-30 0 -54 -12t-41 -33t-26.5 -49
t-9.5 -59v-2q0 -34 9.5 -62.5t27 -49t41.5 -32t53 -11.5q50 0 80 24.5t52 63.5l193 -109q-22 -39 -52 -73.5t-70.5 -60t-92 -40.5t-116.5 -15z" />
    <glyph glyph-name="cacute" unicode="&#x107;" horiz-adv-x="567" 
d="M326 780l221 -57l-165 -135h-152zM304 -14q-62 0 -115 23t-91 62t-59.5 90.5t-21.5 108.5v2q0 57 21.5 109t60.5 91.5t94 62.5t122 23q91 0 153 -42t94 -109l-163 -92q-14 26 -33 40.5t-47 14.5q-36 0 -60 -27.5t-24 -68.5v-2q0 -43 23.5 -70.5t57.5 -27.5q30 0 49 14.5
t36 40.5l165 -94q-37 -69 -100.5 -109t-161.5 -40z" />
    <glyph glyph-name="Ccaron" unicode="&#x10c;" horiz-adv-x="723" 
d="M490 750h-194l-118 152h137l79 -51l79 51h135zM387 -15q-73 0 -138.5 26t-115.5 74t-79.5 115t-29.5 148v2q0 78 28.5 145t79 116t118.5 76.5t146 27.5q58 0 106.5 -13.5t88 -37.5t70 -57.5t52.5 -73.5l-193 -113q-20 38 -49.5 61.5t-77.5 23.5q-30 0 -54 -12t-41 -33
t-26.5 -49t-9.5 -59v-2q0 -34 9.5 -62.5t27 -49t41.5 -32t53 -11.5q50 0 80 24.5t52 63.5l193 -109q-22 -39 -52 -73.5t-70.5 -60t-92 -40.5t-116.5 -15z" />
    <glyph glyph-name="ccaron" unicode="&#x10d;" horiz-adv-x="567" 
d="M397 588h-164l-133 172h127l89 -56l89 56h125zM304 -14q-62 0 -115 23t-91 62t-59.5 90.5t-21.5 108.5v2q0 57 21.5 109t60.5 91.5t94 62.5t122 23q91 0 153 -42t94 -109l-163 -92q-14 26 -33 40.5t-47 14.5q-36 0 -60 -27.5t-24 -68.5v-2q0 -43 23.5 -70.5t57.5 -27.5
q30 0 49 14.5t36 40.5l165 -94q-37 -69 -100.5 -109t-161.5 -40z" />
    <glyph glyph-name="Cdotaccent" unicode="&#x10a;" horiz-adv-x="723" 
d="M298 900h190v-150h-190v150zM387 -15q-73 0 -138.5 26t-115.5 74t-79.5 115t-29.5 148v2q0 78 28.5 145t79 116t118.5 76.5t146 27.5q58 0 106.5 -13.5t88 -37.5t70 -57.5t52.5 -73.5l-193 -113q-20 38 -49.5 61.5t-77.5 23.5q-30 0 -54 -12t-41 -33t-26.5 -49t-9.5 -59
v-2q0 -34 9.5 -62.5t27 -49t41.5 -32t53 -11.5q50 0 80 24.5t52 63.5l193 -109q-22 -39 -52 -73.5t-70.5 -60t-92 -40.5t-116.5 -15z" />
    <glyph glyph-name="cdotaccent" unicode="&#x10b;" horiz-adv-x="567" 
d="M223 738h184v-150h-184v150zM304 -14q-62 0 -115 23t-91 62t-59.5 90.5t-21.5 108.5v2q0 57 21.5 109t60.5 91.5t94 62.5t122 23q91 0 153 -42t94 -109l-163 -92q-14 26 -33 40.5t-47 14.5q-36 0 -60 -27.5t-24 -68.5v-2q0 -43 23.5 -70.5t57.5 -27.5q30 0 49 14.5
t36 40.5l165 -94q-37 -69 -100.5 -109t-161.5 -40z" />
    <glyph glyph-name="Dcaron" unicode="&#x10e;" horiz-adv-x="749" 
d="M459 740h-194l-118 152h137l79 -51l79 51h135zM274 496v-292h39q81 0 128.5 34.5t47.5 110.5v2q0 76 -47.5 110.5t-128.5 34.5h-39zM40 700h268q104 0 182.5 -24.5t130.5 -69.5t78 -108.5t26 -141.5v-2q0 -78 -26.5 -143t-80 -112t-133 -73t-185.5 -26h-260v700z" />
    <glyph glyph-name="dcaron" unicode="&#x10f;" horiz-adv-x="676" 
d="M697 800h153v-4l-72 -218h-93zM329 174q39 0 65 28t26 70v2q0 20 -7 38t-19 31.5t-29 21t-36 7.5q-39 0 -65 -28t-26 -70v-2q0 -42 26 -70t65 -28zM253 -13q-50 0 -92.5 20.5t-74.5 58t-50 89t-18 114.5v2q0 65 18.5 118t50 91t74 58.5t90.5 20.5q62 0 100 -23t64 -52
v246h227v-730h-227v67q-14 -15 -29.5 -29.5t-34.5 -25.5t-43 -18t-55 -7z" />
    <glyph glyph-name="Dcroat" unicode="&#x110;" horiz-adv-x="817" 
d="M332 272v-78h49q85 0 130.5 37.5t45.5 117.5v2q0 80 -45.5 117.5t-130.5 37.5h-49v-73h86v-161h-86zM108 268h-85v169h85v263h268q104 0 182.5 -24.5t130.5 -69.5t78 -108.5t26 -141.5v-2q0 -78 -26.5 -143t-80 -112t-133 -73t-185.5 -26h-260v268z" />
    <glyph glyph-name="dcroat" unicode="&#x111;" horiz-adv-x="676" 
d="M329 174q39 0 65 28t26 70v2q0 20 -7 38t-19 31.5t-29 21t-36 7.5q-39 0 -65 -28t-26 -70v-2q0 -42 26 -70t65 -28zM270 690h145v40h227v-40h58v-95h-58v-595h-227v67q-14 -15 -29.5 -29.5t-34.5 -25.5t-43 -18t-55 -7q-50 0 -92.5 20.5t-74.5 58t-50 89t-18 114.5v2
q0 65 18.5 118t50 91t74 58.5t90.5 20.5q62 0 100 -23t64 -52v111h-145v95z" />
    <glyph glyph-name="Ebreve" unicode="&#x114;" horiz-adv-x="665" 
d="M342 738q-87 0 -139 38t-65 116h125q9 -20 28 -31t51 -11t50.5 11t28.5 31h124q-12 -78 -64 -116t-139 -38zM40 700h597v-192h-367v-71h342v-169h-342v-76h372v-192h-602v700z" />
    <glyph glyph-name="ebreve" unicode="&#x115;" horiz-adv-x="598" 
d="M304 586q-88 0 -143 45t-63 129h120q9 -26 28.5 -41t57.5 -15t57.5 15t28.5 41h120q-8 -84 -63 -129t-143 -45zM375 320q-4 39 -25 60.5t-51 21.5q-29 0 -48 -22t-24 -60h148zM317 -13q-67 0 -122.5 20.5t-95 57.5t-61 89t-21.5 116v2q0 61 21 113.5t58 91t88.5 60.5
t113.5 22q73 0 126.5 -23.5t88.5 -64.5t52 -96t17 -117v-19t-1 -19h-351q12 -36 39 -54.5t64 -18.5q31 0 57.5 14t53.5 42l122 -97q-41 -53 -100.5 -86t-148.5 -33z" />
    <glyph glyph-name="Ecaron" unicode="&#x11a;" horiz-adv-x="665" 
d="M438 740h-194l-118 152h137l79 -51l79 51h135zM40 700h597v-192h-367v-71h342v-169h-342v-76h372v-192h-602v700z" />
    <glyph glyph-name="ecaron" unicode="&#x11b;" horiz-adv-x="598" 
d="M386 588h-164l-133 172h127l89 -56l89 56h125zM375 320q-4 39 -25 60.5t-51 21.5q-29 0 -48 -22t-24 -60h148zM317 -13q-67 0 -122.5 20.5t-95 57.5t-61 89t-21.5 116v2q0 61 21 113.5t58 91t88.5 60.5t113.5 22q73 0 126.5 -23.5t88.5 -64.5t52 -96t17 -117v-19t-1 -19
h-351q12 -36 39 -54.5t64 -18.5q31 0 57.5 14t53.5 42l122 -97q-41 -53 -100.5 -86t-148.5 -33z" />
    <glyph glyph-name="Edotaccent" unicode="&#x116;" horiz-adv-x="665" 
d="M246 890h190v-150h-190v150zM40 700h597v-192h-367v-71h342v-169h-342v-76h372v-192h-602v700z" />
    <glyph glyph-name="edotaccent" unicode="&#x117;" horiz-adv-x="598" 
d="M212 738h184v-150h-184v150zM375 320q-4 39 -25 60.5t-51 21.5q-29 0 -48 -22t-24 -60h148zM317 -13q-67 0 -122.5 20.5t-95 57.5t-61 89t-21.5 116v2q0 61 21 113.5t58 91t88.5 60.5t113.5 22q73 0 126.5 -23.5t88.5 -64.5t52 -96t17 -117v-19t-1 -19h-351
q12 -36 39 -54.5t64 -18.5q31 0 57.5 14t53.5 42l122 -97q-41 -53 -100.5 -86t-148.5 -33z" />
    <glyph glyph-name="Emacron" unicode="&#x112;" horiz-adv-x="665" 
d="M133 877h416v-127h-416v127zM40 700h597v-192h-367v-71h342v-169h-342v-76h372v-192h-602v700z" />
    <glyph glyph-name="emacron" unicode="&#x113;" horiz-adv-x="598" 
d="M109 720h390v-122h-390v122zM375 320q-4 39 -25 60.5t-51 21.5q-29 0 -48 -22t-24 -60h148zM317 -13q-67 0 -122.5 20.5t-95 57.5t-61 89t-21.5 116v2q0 61 21 113.5t58 91t88.5 60.5t113.5 22q73 0 126.5 -23.5t88.5 -64.5t52 -96t17 -117v-19t-1 -19h-351
q12 -36 39 -54.5t64 -18.5q31 0 57.5 14t53.5 42l122 -97q-41 -53 -100.5 -86t-148.5 -33z" />
    <glyph glyph-name="Eogonek" unicode="&#x118;" horiz-adv-x="665" 
d="M40 700h597v-192h-367v-71h342v-169h-342v-76h372v-192h-57q-18 -19 -18 -38q0 -17 16 -24.5t58 -5.5v-96q-20 -2 -38 -3.5t-35 -1.5q-78 0 -124 23.5t-46 63.5q0 43 45 82h-403v700z" />
    <glyph glyph-name="eogonek" unicode="&#x119;" horiz-adv-x="598" 
d="M375 320q-4 39 -25 60.5t-51 21.5q-29 0 -48 -22t-24 -60h148zM566 106q-16 -20 -30.5 -35t-35.5 -35q-31 -29 -39.5 -43.5t-8.5 -27.5q0 -19 16.5 -27t58.5 -6v-96q-19 -2 -36.5 -3.5t-37.5 -1.5q-76 0 -122.5 23t-46.5 64q0 37 38 69h-5q-67 0 -122.5 20.5t-95 57.5
t-61 89t-21.5 116v2q0 61 21 113.5t58 91t88.5 60.5t113.5 22q73 0 126.5 -23.5t88.5 -64.5t52 -96t17 -117v-19t-1 -19h-351q12 -36 39 -54.5t64 -18.5q31 0 57.5 14t53.5 42z" />
    <glyph glyph-name="Eth" unicode="&#xd0;" horiz-adv-x="817" 
d="M332 272v-78h49q85 0 130.5 37.5t45.5 117.5v2q0 80 -45.5 117.5t-130.5 37.5h-49v-73h86v-161h-86zM108 268h-85v169h85v263h268q104 0 182.5 -24.5t130.5 -69.5t78 -108.5t26 -141.5v-2q0 -78 -26.5 -143t-80 -112t-133 -73t-185.5 -26h-260v268z" />
    <glyph glyph-name="eth" unicode="&#xf0;" horiz-adv-x="648" 
d="M325 176q38 0 63 28t25 67v2q0 41 -26 69t-64 28t-63 -28t-25 -67v-2q0 -41 26 -69t64 -28zM510 635q55 -63 88 -142.5t33 -173.5v-2q0 -75 -22.5 -136t-63 -104t-97 -66.5t-125.5 -23.5q-68 0 -124.5 21.5t-97 60.5t-62.5 94t-22 122v2q0 59 16.5 106.5t45.5 81.5t70 52
t90 18q44 0 73.5 -11t55.5 -28q-13 20 -30 42t-38 43l-116 -24l-31 86l64 13q-23 18 -46 34t-46 30h278q13 -9 26 -20l104 22l31 -86z" />
    <glyph glyph-name="Gbreve" unicode="&#x11e;" horiz-adv-x="754" 
d="M404 748q-87 0 -139 38t-65 116h125q9 -20 28 -31t51 -11t50.5 11t28.5 31h124q-12 -78 -64 -116t-139 -38zM417 -15q-82 0 -153.5 26t-125 74t-84 115t-30.5 148v2q0 78 29 145t81 116t122.5 76.5t153.5 27.5q91 0 163.5 -28t129.5 -78l-131 -158q-35 29 -73 45t-82 16
q-34 0 -63 -12.5t-50 -34.5t-32.5 -52t-11.5 -66v-2q0 -37 12.5 -68t34.5 -53t52.5 -34t67.5 -12q30 0 48 4t32 12v70h-120v150h339v-324q-57 -47 -135 -76t-174 -29z" />
    <glyph glyph-name="gbreve" unicode="&#x11f;" horiz-adv-x="676" 
d="M350 586q-88 0 -143 45t-63 129h120q9 -26 28.5 -41t57.5 -15t57.5 15t28.5 41h120q-8 -84 -63 -129t-143 -45zM329 218q42 0 66.5 25t24.5 61v2q0 35 -24.5 60t-66.5 25t-66.5 -25.5t-24.5 -61.5v-2q0 -35 24.5 -59.5t66.5 -24.5zM325 -162q-91 0 -164 17.5t-139 50.5
l70 137q46 -24 93 -38t104 -14q64 0 97 31.5t33 88.5v16q-12 -13 -27.5 -26.5t-35 -24t-43.5 -17.5t-52 -7q-53 0 -97.5 18t-77 51t-50.5 79t-18 103v2q0 57 18 104t49.5 80.5t73.5 51.5t89 18q60 0 98.5 -20t68.5 -51v58h227v-408q0 -76 -16.5 -129t-54.5 -91
q-37 -37 -95.5 -58.5t-150.5 -21.5z" />
    <glyph glyph-name="Gcommaaccent" unicode="&#x122;" horiz-adv-x="754" 
d="M306 -264q47 5 63.5 19t14.5 40h-72v156h185v-125q0 -42 -12.5 -71t-36 -47.5t-57.5 -27.5t-77 -11zM417 -15q-82 0 -153.5 26t-125 74t-84 115t-30.5 148v2q0 78 29 145t81 116t122.5 76.5t153.5 27.5q91 0 163.5 -28t129.5 -78l-131 -158q-35 29 -73 45t-82 16
q-34 0 -63 -12.5t-50 -34.5t-32.5 -52t-11.5 -66v-2q0 -37 12.5 -68t34.5 -53t52.5 -34t67.5 -12q30 0 48 4t32 12v70h-120v150h339v-324q-57 -47 -135 -76t-174 -29z" />
    <glyph glyph-name="gcommaaccent" unicode="&#x123;" horiz-adv-x="676" 
d="M446 803q-47 -5 -63.5 -19t-14.5 -40h72v-156h-185v125q0 42 12.5 71t36 47.5t57.5 27.5t77 11zM329 218q42 0 66.5 25t24.5 61v2q0 35 -24.5 60t-66.5 25t-66.5 -25.5t-24.5 -61.5v-2q0 -35 24.5 -59.5t66.5 -24.5zM325 -162q-91 0 -164 17.5t-139 50.5l70 137
q46 -24 93 -38t104 -14q64 0 97 31.5t33 88.5v16q-12 -13 -27.5 -26.5t-35 -24t-43.5 -17.5t-52 -7q-53 0 -97.5 18t-77 51t-50.5 79t-18 103v2q0 57 18 104t49.5 80.5t73.5 51.5t89 18q60 0 98.5 -20t68.5 -51v58h227v-408q0 -76 -16.5 -129t-54.5 -91q-37 -37 -95.5 -58.5
t-150.5 -21.5z" />
    <glyph glyph-name="Gdotaccent" unicode="&#x120;" horiz-adv-x="754" 
d="M308 900h190v-150h-190v150zM417 -15q-82 0 -153.5 26t-125 74t-84 115t-30.5 148v2q0 78 29 145t81 116t122.5 76.5t153.5 27.5q91 0 163.5 -28t129.5 -78l-131 -158q-35 29 -73 45t-82 16q-34 0 -63 -12.5t-50 -34.5t-32.5 -52t-11.5 -66v-2q0 -37 12.5 -68t34.5 -53
t52.5 -34t67.5 -12q30 0 48 4t32 12v70h-120v150h339v-324q-57 -47 -135 -76t-174 -29z" />
    <glyph glyph-name="gdotaccent" unicode="&#x121;" horiz-adv-x="676" 
d="M258 738h184v-150h-184v150zM329 218q42 0 66.5 25t24.5 61v2q0 35 -24.5 60t-66.5 25t-66.5 -25.5t-24.5 -61.5v-2q0 -35 24.5 -59.5t66.5 -24.5zM325 -162q-91 0 -164 17.5t-139 50.5l70 137q46 -24 93 -38t104 -14q64 0 97 31.5t33 88.5v16q-12 -13 -27.5 -26.5
t-35 -24t-43.5 -17.5t-52 -7q-53 0 -97.5 18t-77 51t-50.5 79t-18 103v2q0 57 18 104t49.5 80.5t73.5 51.5t89 18q60 0 98.5 -20t68.5 -51v58h227v-408q0 -76 -16.5 -129t-54.5 -91q-37 -37 -95.5 -58.5t-150.5 -21.5z" />
    <glyph glyph-name="Hbar" unicode="&#x126;" horiz-adv-x="762" 
d="M488 453v71h-214v-71h214zM-10 627h50v73h234v-73h214v73h234v-73h50v-105h-50v-522h-234v251h-214v-251h-234v522h-50v105z" />
    <glyph glyph-name="hbar" unicode="&#x127;" horiz-adv-x="645" 
d="M261 595v-122q26 34 67.5 60t99.5 26q87 0 137 -53t50 -146v-360h-227v287q0 35 -18 54.5t-44 19.5t-45.5 -19.5t-19.5 -54.5v-287h-227v595h-58v95h58v40h227v-40h145v-95h-145z" />
    <glyph glyph-name="Ibreve" unicode="&#x12c;" horiz-adv-x="318" 
d="M160 738q-87 0 -139 38t-65 116h125q9 -20 28 -31t51 -11t50.5 11t28.5 31h124q-12 -78 -64 -116t-139 -38zM42 700h234v-700h-234v700z" />
    <glyph glyph-name="ibreve" unicode="&#x12d;" horiz-adv-x="299" 
d="M149 578q-88 0 -143 45t-63 129h120q9 -26 28.5 -41t57.5 -15t57.5 15t28.5 41h120q-8 -84 -63 -129t-143 -45zM36 546h227v-546h-227v546z" />
    <glyph glyph-name="Idotaccent" unicode="&#x130;" horiz-adv-x="318" 
d="M64 890h190v-150h-190v150zM42 700h234v-700h-234v700z" />
    <glyph glyph-name="Imacron" unicode="&#x12a;" horiz-adv-x="318" 
d="M-49 877h416v-127h-416v127zM42 700h234v-700h-234v700z" />
    <glyph glyph-name="imacron" unicode="&#x12b;" horiz-adv-x="299" 
d="M-46 712h390v-122h-390v122zM36 546h227v-546h-227v546z" />
    <glyph glyph-name="Iogonek" unicode="&#x12e;" horiz-adv-x="318" 
d="M42 700h234v-700h-44q-18 -19 -18 -38q0 -17 16 -24.5t58 -5.5v-96q-20 -2 -38 -3.5t-35 -1.5q-78 0 -124 23.5t-46 63.5q0 43 45 82h-48v700z" />
    <glyph glyph-name="iogonek" unicode="&#x12f;" horiz-adv-x="299" 
d="M32 730h235v-145h-235v145zM36 546h227v-546h-45q-18 -19 -18 -38q0 -17 16 -24.5t58 -5.5v-96q-20 -2 -38 -3.5t-35 -1.5q-78 0 -124 23.5t-46 63.5q0 43 45 82h-40v546z" />
    <glyph glyph-name="Kcommaaccent" unicode="&#x136;" horiz-adv-x="730" 
d="M269 -254q47 5 63.5 19t14.5 40h-72v156h185v-125q0 -42 -12.5 -71t-36 -47.5t-57.5 -27.5t-77 -11zM40 700h234v-262l199 262h272l-244 -304l249 -396h-279l-137 222l-60 -73v-149h-234v700z" />
    <glyph glyph-name="kcommaaccent" unicode="&#x137;" horiz-adv-x="614" 
d="M220 -254q47 5 63.5 19t14.5 40h-72v156h185v-125q0 -42 -12.5 -71t-36 -47.5t-57.5 -27.5t-77 -11zM34 730h227v-352l117 168h247l-171 -222l174 -324h-243l-79 150l-45 -58v-92h-227v730z" />
    <glyph glyph-name="Lacute" unicode="&#x139;" horiz-adv-x="614" 
d="M184 907l231 -52l-160 -115h-167zM40 700h234v-500h329v-200h-563v700z" />
    <glyph glyph-name="lacute" unicode="&#x13a;" horiz-adv-x="299" 
d="M155 932l231 -52l-160 -115h-167zM36 730h227v-730h-227v730z" />
    <glyph glyph-name="Lcaron" unicode="&#x13d;" horiz-adv-x="614" 
d="M334 700h153v-4l-72 -218h-93zM40 700h234v-500h329v-200h-563v700z" />
    <glyph glyph-name="lcaron" unicode="&#x13e;" horiz-adv-x="299" 
d="M318 800h153v-4l-72 -218h-93zM36 730h227v-730h-227v730z" />
    <glyph glyph-name="Lcommaaccent" unicode="&#x13b;" horiz-adv-x="614" 
d="M224 -254q47 5 63.5 19t14.5 40h-72v156h185v-125q0 -42 -12.5 -71t-36 -47.5t-57.5 -27.5t-77 -11zM40 700h234v-500h329v-200h-563v700z" />
    <glyph glyph-name="lcommaaccent" unicode="&#x13c;" horiz-adv-x="299" 
d="M52 -254q47 5 63.5 19t14.5 40h-72v156h185v-125q0 -42 -12.5 -71t-36 -47.5t-57.5 -27.5t-77 -11zM36 730h227v-730h-227v730z" />
    <glyph glyph-name="Ldot" unicode="&#x13f;" horiz-adv-x="614" 
d="M40 700h234v-500h329v-200h-563v700zM380 513h174v-175h-174v175z" />
    <glyph glyph-name="ldot" unicode="&#x140;" horiz-adv-x="445" 
d="M36 730h227v-730h-227v730zM298 468h148v-180h-148v180z" />
    <glyph glyph-name="Lslash" unicode="&#x141;" horiz-adv-x="674" 
d="M334 306v-106h329v-200h-563v208l-77 -32v203l77 32v289h234v-191l146 61v-203z" />
    <glyph glyph-name="lslash" unicode="&#x142;" horiz-adv-x="439" 
d="M333 316v-316h-227v219l-88 -37v197l88 37v314h227v-216l88 38v-198z" />
    <glyph glyph-name="Nacute" unicode="&#x143;" horiz-adv-x="780" 
d="M398 907l231 -52l-160 -115h-167zM40 700h219l249 -309v309h232v-700h-208l-260 323v-323h-232v700z" />
    <glyph glyph-name="nacute" unicode="&#x144;" horiz-adv-x="645" 
d="M335 780l221 -57l-165 -135h-152zM34 546h227v-76q13 17 30 33t38 28.5t45.5 20t53.5 7.5q87 0 137 -53t50 -146v-360h-227v287q0 35 -18 54.5t-44 19.5t-45.5 -19.5t-19.5 -54.5v-287h-227v546z" />
    <glyph glyph-name="Ncaron" unicode="&#x147;" horiz-adv-x="780" 
d="M487 740h-194l-118 152h137l79 -51l79 51h135zM40 700h219l249 -309v309h232v-700h-208l-260 323v-323h-232v700z" />
    <glyph glyph-name="ncaron" unicode="&#x148;" horiz-adv-x="645" 
d="M406 588h-164l-133 172h127l89 -56l89 56h125zM34 546h227v-76q13 17 30 33t38 28.5t45.5 20t53.5 7.5q87 0 137 -53t50 -146v-360h-227v287q0 35 -18 54.5t-44 19.5t-45.5 -19.5t-19.5 -54.5v-287h-227v546z" />
    <glyph glyph-name="Ncommaaccent" unicode="&#x145;" horiz-adv-x="780" 
d="M293 -254q47 5 63.5 19t14.5 40h-72v156h185v-125q0 -42 -12.5 -71t-36 -47.5t-57.5 -27.5t-77 -11zM40 700h219l249 -309v309h232v-700h-208l-260 323v-323h-232v700z" />
    <glyph glyph-name="ncommaaccent" unicode="&#x146;" horiz-adv-x="645" 
d="M227 -254q47 5 63.5 19t14.5 40h-72v156h185v-125q0 -42 -12.5 -71t-36 -47.5t-57.5 -27.5t-77 -11zM34 546h227v-76q13 17 30 33t38 28.5t45.5 20t53.5 7.5q87 0 137 -53t50 -146v-360h-227v287q0 35 -18 54.5t-44 19.5t-45.5 -19.5t-19.5 -54.5v-287h-227v546z" />
    <glyph glyph-name="Obreve" unicode="&#x14e;" horiz-adv-x="812" 
d="M407 748q-87 0 -139 38t-65 116h125q9 -20 28 -31t51 -11t50.5 11t28.5 31h124q-12 -78 -64 -116t-139 -38zM407 192q33 0 60 13t46 34.5t29 49.5t10 59v2q0 31 -10.5 59.5t-29.5 50.5t-46 35t-61 13q-33 0 -60 -13t-46 -34.5t-29 -49.5t-10 -59v-2q0 -31 10.5 -59.5
t29.5 -50.5t46 -35t61 -13zM405 -15q-81 0 -150.5 28t-121 77t-80.5 115.5t-29 142.5v2q0 76 29.5 142.5t81 116t121.5 78t151 28.5t150.5 -28t121 -77t80.5 -115.5t29 -142.5v-2q0 -76 -29.5 -142.5t-81 -116t-121.5 -78t-151 -28.5z" />
    <glyph glyph-name="obreve" unicode="&#x14f;" horiz-adv-x="648" 
d="M324 586q-88 0 -143 45t-63 129h120q9 -26 28.5 -41t57.5 -15t57.5 15t28.5 41h120q-8 -84 -63 -129t-143 -45zM325 176q38 0 63 28t25 67v2q0 41 -26 69t-64 28t-63 -28t-25 -67v-2q0 -41 26 -69t64 -28zM323 -13q-67 0 -123.5 22.5t-97 61.5t-63 90.5t-22.5 109.5v2
q0 58 23 110t63.5 91t97 62t124.5 23q67 0 123.5 -22.5t97 -61.5t63 -90.5t22.5 -109.5v-2q0 -58 -23 -110t-63.5 -91t-97.5 -62t-124 -23z" />
    <glyph glyph-name="Ohungarumlaut" unicode="&#x150;" horiz-adv-x="812" 
d="M459 823l-96 -73h-146l86 167l181 -45l23 45l210 -52l-150 -115h-146zM407 192q33 0 60 13t46 34.5t29 49.5t10 59v2q0 31 -10.5 59.5t-29.5 50.5t-46 35t-61 13q-33 0 -60 -13t-46 -34.5t-29 -49.5t-10 -59v-2q0 -31 10.5 -59.5t29.5 -50.5t46 -35t61 -13zM405 -15
q-81 0 -150.5 28t-121 77t-80.5 115.5t-29 142.5v2q0 76 29.5 142.5t81 116t121.5 78t151 28.5t150.5 -28t121 -77t80.5 -115.5t29 -142.5v-2q0 -76 -29.5 -142.5t-81 -116t-121.5 -78t-151 -28.5z" />
    <glyph glyph-name="ohungarumlaut" unicode="&#x151;" horiz-adv-x="648" 
d="M325 176q38 0 63 28t25 67v2q0 41 -26 69t-64 28t-63 -28t-25 -67v-2q0 -41 26 -69t64 -28zM225 780l177 -49l22 49l205 -57l-155 -135h-136l40 90l-103 -90h-136zM323 -13q-67 0 -123.5 22.5t-97 61.5t-63 90.5t-22.5 109.5v2q0 58 23 110t63.5 91t97 62t124.5 23
q67 0 123.5 -22.5t97 -61.5t63 -90.5t22.5 -109.5v-2q0 -58 -23 -110t-63.5 -91t-97.5 -62t-124 -23z" />
    <glyph glyph-name="Omacron" unicode="&#x14c;" horiz-adv-x="812" 
d="M198 887h416v-127h-416v127zM407 192q33 0 60 13t46 34.5t29 49.5t10 59v2q0 31 -10.5 59.5t-29.5 50.5t-46 35t-61 13q-33 0 -60 -13t-46 -34.5t-29 -49.5t-10 -59v-2q0 -31 10.5 -59.5t29.5 -50.5t46 -35t61 -13zM405 -15q-81 0 -150.5 28t-121 77t-80.5 115.5
t-29 142.5v2q0 76 29.5 142.5t81 116t121.5 78t151 28.5t150.5 -28t121 -77t80.5 -115.5t29 -142.5v-2q0 -76 -29.5 -142.5t-81 -116t-121.5 -78t-151 -28.5z" />
    <glyph glyph-name="omacron" unicode="&#x14d;" horiz-adv-x="648" 
d="M129 720h390v-122h-390v122zM325 176q38 0 63 28t25 67v2q0 41 -26 69t-64 28t-63 -28t-25 -67v-2q0 -41 26 -69t64 -28zM323 -13q-67 0 -123.5 22.5t-97 61.5t-63 90.5t-22.5 109.5v2q0 58 23 110t63.5 91t97 62t124.5 23q67 0 123.5 -22.5t97 -61.5t63 -90.5
t22.5 -109.5v-2q0 -58 -23 -110t-63.5 -91t-97.5 -62t-124 -23z" />
    <glyph glyph-name="Oslashacute" unicode="&#x1fe;" horiz-adv-x="812" 
d="M407 187q34 0 62 13t47 35.5t29.5 51.5t10.5 61v2q0 38 -15 71l-198 -221q27 -13 64 -13zM256 350q0 -38 14 -72l198 221q-28 14 -63 14t-62.5 -13t-46.5 -35.5t-29.5 -51.5t-10.5 -61v-2zM414 917l231 -52l-160 -115h-167zM796 705l-101 -113q44 -48 68.5 -109
t24.5 -131v-2q0 -76 -29.5 -142.5t-81 -116t-121.5 -78t-151 -28.5q-57 0 -108 13.5t-95 39.5l-39 -43h-147l101 112q-44 48 -68.5 109.5t-24.5 131.5v2q0 76 29.5 142.5t81 116t121.5 78t151 28.5q57 0 107.5 -14t94.5 -40l40 44h147z" />
    <glyph glyph-name="oslashacute" unicode="&#x1ff;" horiz-adv-x="648" 
d="M325 165q21 0 39.5 8.5t31.5 23t20.5 33.5t7.5 41v2q0 9 -1 17.5t-3 16.5l-127 -138q13 -4 32 -4zM224 273q0 -21 4 -36l129 139q-18 5 -34 5q-21 0 -39.5 -8.5t-31.5 -23t-20.5 -33.5t-7.5 -41v-2zM335 780l221 -57l-165 -135h-152zM646 551l-86 -93q34 -38 52.5 -84.5
t18.5 -98.5v-2q0 -58 -23 -110t-63.5 -91t-97.5 -62t-124 -23q-45 0 -85 10t-74 29l-29 -31h-133l86 92q-34 38 -52.5 84.5t-18.5 99.5v2q0 58 23 110t63.5 91t97 62t124.5 23q45 0 84.5 -10.5t74.5 -29.5l29 32h133z" />
    <glyph glyph-name="Racute" unicode="&#x154;" horiz-adv-x="715" 
d="M375 367q42 0 66 18t24 50v2q0 34 -24 50.5t-65 16.5h-102v-137h101zM357 907l231 -52l-160 -115h-167zM40 700h342q94 0 154.5 -21.5t97.5 -58.5q32 -32 48 -72t16 -94v-2q0 -77 -37 -130t-101 -84l163 -238h-267l-132 200h-50v-200h-234v700z" />
    <glyph glyph-name="racute" unicode="&#x155;" horiz-adv-x="437" 
d="M239 772l221 -57l-165 -135h-152zM34 546h227v-110q23 55 63 88t108 30v-241h-24q-72 0 -109.5 -41.5t-37.5 -132.5v-139h-227v546z" />
    <glyph glyph-name="Rcaron" unicode="&#x158;" horiz-adv-x="715" 
d="M375 367q42 0 66 18t24 50v2q0 34 -24 50.5t-65 16.5h-102v-137h101zM446 740h-194l-118 152h137l79 -51l79 51h135zM40 700h342q94 0 154.5 -21.5t97.5 -58.5q32 -32 48 -72t16 -94v-2q0 -77 -37 -130t-101 -84l163 -238h-267l-132 200h-50v-200h-234v700z" />
    <glyph glyph-name="rcaron" unicode="&#x159;" horiz-adv-x="437" 
d="M310 580h-164l-133 172h127l89 -56l89 56h125zM34 546h227v-110q23 55 63 88t108 30v-241h-24q-72 0 -109.5 -41.5t-37.5 -132.5v-139h-227v546z" />
    <glyph glyph-name="Rcommaaccent" unicode="&#x156;" horiz-adv-x="715" 
d="M375 367q42 0 66 18t24 50v2q0 34 -24 50.5t-65 16.5h-102v-137h101zM257 -254q47 5 63.5 19t14.5 40h-72v156h185v-125q0 -42 -12.5 -71t-36 -47.5t-57.5 -27.5t-77 -11zM40 700h342q94 0 154.5 -21.5t97.5 -58.5q32 -32 48 -72t16 -94v-2q0 -77 -37 -130t-101 -84
l163 -238h-267l-132 200h-50v-200h-234v700z" />
    <glyph glyph-name="rcommaaccent" unicode="&#x157;" horiz-adv-x="437" 
d="M55 -254q47 5 63.5 19t14.5 40h-72v156h185v-125q0 -42 -12.5 -71t-36 -47.5t-57.5 -27.5t-77 -11zM34 546h227v-110q23 55 63 88t108 30v-241h-24q-72 0 -109.5 -41.5t-37.5 -132.5v-139h-227v546z" />
    <glyph glyph-name="Sacute" unicode="&#x15a;" horiz-adv-x="664" 
d="M340 917l231 -52l-160 -115h-167zM341 -13q-107 0 -199.5 29.5t-159.5 88.5l125 149q57 -44 120 -63t125 -19q32 0 46 8t14 22v2q0 15 -20.5 25t-76.5 21q-59 12 -112.5 28t-94 41t-64.5 62.5t-24 93.5v2q0 50 19.5 93t57 75t93 50t127.5 18q102 0 178.5 -24t137.5 -72
l-114 -158q-50 36 -105.5 52.5t-104.5 16.5q-26 0 -38.5 -8t-12.5 -21v-2q0 -7 4 -13t14.5 -11.5t28.5 -10.5t46 -10q67 -12 122 -29t94.5 -43.5t61 -63.5t21.5 -90v-2q0 -55 -22 -99t-62 -74.5t-97.5 -47t-127.5 -16.5z" />
    <glyph glyph-name="sacute" unicode="&#x15b;" horiz-adv-x="525" 
d="M278 780l221 -57l-165 -135h-152zM275 -13q-80 0 -150.5 20t-129.5 59l77 129q50 -31 102.5 -46t99.5 -15q33 0 33 18v2q0 8 -12 14.5t-53 17.5q-52 13 -93 27.5t-70 35t-44.5 50t-15.5 71.5v2q0 45 17 80t48.5 58.5t75.5 36t97 12.5q68 0 131.5 -16.5t113.5 -46.5
l-72 -135q-44 24 -91.5 37.5t-82.5 13.5q-32 0 -32 -17v-2q0 -8 13 -15t54 -17q52 -13 93 -27.5t69.5 -35.5t43.5 -50t15 -71v-2q0 -90 -62.5 -139t-174.5 -49z" />
    <glyph glyph-name="Scaron" unicode="&#x160;" horiz-adv-x="664" 
d="M429 750h-194l-118 152h137l79 -51l79 51h135zM341 -13q-107 0 -199.5 29.5t-159.5 88.5l125 149q57 -44 120 -63t125 -19q32 0 46 8t14 22v2q0 15 -20.5 25t-76.5 21q-59 12 -112.5 28t-94 41t-64.5 62.5t-24 93.5v2q0 50 19.5 93t57 75t93 50t127.5 18q102 0 178.5 -24
t137.5 -72l-114 -158q-50 36 -105.5 52.5t-104.5 16.5q-26 0 -38.5 -8t-12.5 -21v-2q0 -7 4 -13t14.5 -11.5t28.5 -10.5t46 -10q67 -12 122 -29t94.5 -43.5t61 -63.5t21.5 -90v-2q0 -55 -22 -99t-62 -74.5t-97.5 -47t-127.5 -16.5z" />
    <glyph glyph-name="scaron" unicode="&#x161;" horiz-adv-x="525" 
d="M349 588h-164l-133 172h127l89 -56l89 56h125zM275 -13q-80 0 -150.5 20t-129.5 59l77 129q50 -31 102.5 -46t99.5 -15q33 0 33 18v2q0 8 -12 14.5t-53 17.5q-52 13 -93 27.5t-70 35t-44.5 50t-15.5 71.5v2q0 45 17 80t48.5 58.5t75.5 36t97 12.5q68 0 131.5 -16.5
t113.5 -46.5l-72 -135q-44 24 -91.5 37.5t-82.5 13.5q-32 0 -32 -17v-2q0 -8 13 -15t54 -17q52 -13 93 -27.5t69.5 -35.5t43.5 -50t15 -71v-2q0 -90 -62.5 -139t-174.5 -49z" />
    <glyph glyph-name="Scedilla" unicode="&#x15e;" horiz-adv-x="664" 
d="M164 -98l74 93q-75 11 -140 38t-116 72l125 149q57 -44 120 -63t125 -19q32 0 46 8t14 22v2q0 15 -20.5 25t-76.5 21q-59 12 -112.5 28t-94 41t-64.5 62.5t-24 93.5v2q0 50 19.5 93t57 75t93 50t127.5 18q102 0 178.5 -24t137.5 -72l-114 -158q-50 36 -105.5 52.5
t-104.5 16.5q-26 0 -38.5 -8t-12.5 -21v-2q0 -7 4 -13t14.5 -11.5t28.5 -10.5t46 -10q67 -12 122 -29t94.5 -43.5t61 -63.5t21.5 -90v-2q0 -51 -18.5 -92t-53 -71t-83 -48.5t-109.5 -23.5l-48 -162z" />
    <glyph glyph-name="scedilla" unicode="&#x15f;" horiz-adv-x="525" 
d="M94 -98l76 95q-49 8 -93 25.5t-82 43.5l77 129q50 -31 102.5 -46t99.5 -15q33 0 33 18v2q0 8 -12 14.5t-53 17.5q-52 13 -93 27.5t-70 35t-44.5 50t-15.5 71.5v2q0 45 17 80t48.5 58.5t75.5 36t97 12.5q68 0 131.5 -16.5t113.5 -46.5l-72 -135q-44 24 -91.5 37.5
t-82.5 13.5q-32 0 -32 -17v-2q0 -8 13 -15t54 -17q52 -13 93 -27.5t69.5 -35.5t43.5 -50t15 -71v-2q0 -81 -51.5 -129t-144.5 -57l-48 -162z" />
    <glyph glyph-name="Scommaaccent" unicode="&#x218;" horiz-adv-x="664" 
d="M235 -264q47 5 63.5 19t14.5 40h-72v156h185v-125q0 -42 -12.5 -71t-36 -47.5t-57.5 -27.5t-77 -11zM341 -13q-107 0 -199.5 29.5t-159.5 88.5l125 149q57 -44 120 -63t125 -19q32 0 46 8t14 22v2q0 15 -20.5 25t-76.5 21q-59 12 -112.5 28t-94 41t-64.5 62.5t-24 93.5v2
q0 50 19.5 93t57 75t93 50t127.5 18q102 0 178.5 -24t137.5 -72l-114 -158q-50 36 -105.5 52.5t-104.5 16.5q-26 0 -38.5 -8t-12.5 -21v-2q0 -7 4 -13t14.5 -11.5t28.5 -10.5t46 -10q67 -12 122 -29t94.5 -43.5t61 -63.5t21.5 -90v-2q0 -55 -22 -99t-62 -74.5t-97.5 -47
t-127.5 -16.5z" />
    <glyph glyph-name="scommaaccent" unicode="&#x219;" horiz-adv-x="525" 
d="M170 -262q47 5 63.5 19t14.5 40h-72v156h185v-125q0 -42 -12.5 -71t-36 -47.5t-57.5 -27.5t-77 -11zM275 -13q-80 0 -150.5 20t-129.5 59l77 129q50 -31 102.5 -46t99.5 -15q33 0 33 18v2q0 8 -12 14.5t-53 17.5q-52 13 -93 27.5t-70 35t-44.5 50t-15.5 71.5v2
q0 45 17 80t48.5 58.5t75.5 36t97 12.5q68 0 131.5 -16.5t113.5 -46.5l-72 -135q-44 24 -91.5 37.5t-82.5 13.5q-32 0 -32 -17v-2q0 -8 13 -15t54 -17q52 -13 93 -27.5t69.5 -35.5t43.5 -50t15 -71v-2q0 -90 -62.5 -139t-174.5 -49z" />
    <glyph glyph-name="Tcaron" unicode="&#x164;" horiz-adv-x="672" 
d="M433 740h-194l-118 152h137l79 -51l79 51h135zM219 502h-206v198h646v-198h-206v-502h-234v502z" />
    <glyph glyph-name="tcaron" unicode="&#x165;" horiz-adv-x="446" 
d="M350 800h153v-4l-72 -218h-93zM282 -12q-101 0 -153.5 47.5t-52.5 147.5v188h-64v175h64v137h227v-137h126v-175h-126v-138q0 -31 14 -43.5t41 -12.5q32 0 69 17v-175q-27 -14 -65 -22.5t-80 -8.5z" />
    <glyph glyph-name="Tcommaaccent" unicode="&#x162;" horiz-adv-x="672" 
d="M239 -254q47 5 63.5 19t14.5 40h-72v156h185v-125q0 -42 -12.5 -71t-36 -47.5t-57.5 -27.5t-77 -11zM219 502h-206v198h646v-198h-206v-502h-234v502z" />
    <glyph glyph-name="tcommaaccent" unicode="&#x163;" horiz-adv-x="446" 
d="M143 -262q47 5 63.5 19t14.5 40h-72v156h185v-125q0 -42 -12.5 -71t-36 -47.5t-57.5 -27.5t-77 -11zM282 -12q-101 0 -153.5 47.5t-52.5 147.5v188h-64v175h64v137h227v-137h126v-175h-126v-138q0 -31 14 -43.5t41 -12.5q32 0 69 17v-175q-27 -14 -65 -22.5t-80 -8.5z
" />
    <glyph glyph-name="Thorn" unicode="&#xde;" horiz-adv-x="690" 
d="M337 274q45 0 72.5 19.5t27.5 57.5v2q0 38 -26 57.5t-73 19.5h-64v-156h63zM40 700h234v-98h81q70 0 127.5 -15t98.5 -45t64 -76t23 -108v-2q0 -63 -23 -111t-65 -79.5t-100.5 -47.5t-129.5 -16h-76v-102h-234v700z" />
    <glyph glyph-name="thorn" unicode="&#xfe;" horiz-adv-x="676" 
d="M347 174q39 0 65 28t26 70v2q0 42 -26 70t-65 28t-65 -28t-26 -70v-2q0 -20 7 -38t19 -31.5t28.5 -21t36.5 -7.5zM34 730h227v-251q14 15 29.5 29.5t34.5 25.5t43 18t55 7q49 0 92 -20.5t75 -58t50 -89t18 -114.5v-2q0 -65 -18.5 -118t-50 -91t-74 -58.5t-90.5 -20.5
q-62 0 -100 23t-64 52v-222h-227v890z" />
    <glyph glyph-name="Ubreve" unicode="&#x16c;" horiz-adv-x="760" 
d="M381 730q-87 0 -139 38t-65 116h125q9 -20 28 -31t51 -11t50.5 11t28.5 31h124q-12 -78 -64 -116t-139 -38zM378 -14q-78 0 -141.5 18.5t-108.5 58.5t-69.5 102t-24.5 149v386h238v-383q0 -65 30.5 -94.5t77.5 -29.5q48 0 78 27.5t30 91.5v388h238v-381q0 -90 -25 -153
t-70.5 -103t-110 -58.5t-142.5 -18.5z" />
    <glyph glyph-name="ubreve" unicode="&#x16d;" horiz-adv-x="645" 
d="M320 578q-88 0 -143 45t-63 129h120q9 -26 28.5 -41t57.5 -15t57.5 15t28.5 41h120q-8 -84 -63 -129t-143 -45zM217 -13q-87 0 -137 53t-50 146v360h227v-287q0 -35 18 -54.5t44 -19.5t45.5 19.5t19.5 54.5v287h227v-546h-227v73q-26 -34 -67.5 -60t-99.5 -26z" />
    <glyph glyph-name="Uhungarumlaut" unicode="&#x170;" horiz-adv-x="760" 
d="M423 813l-96 -73h-146l86 167l181 -45l23 45l210 -52l-150 -115h-146zM378 -14q-78 0 -141.5 18.5t-108.5 58.5t-69.5 102t-24.5 149v386h238v-383q0 -65 30.5 -94.5t77.5 -29.5q48 0 78 27.5t30 91.5v388h238v-381q0 -90 -25 -153t-70.5 -103t-110 -58.5t-142.5 -18.5z
" />
    <glyph glyph-name="uhungarumlaut" unicode="&#x171;" horiz-adv-x="645" 
d="M216 772l177 -49l22 49l205 -57l-155 -135h-136l40 90l-103 -90h-136zM217 -13q-87 0 -137 53t-50 146v360h227v-287q0 -35 18 -54.5t44 -19.5t45.5 19.5t19.5 54.5v287h227v-546h-227v73q-26 -34 -67.5 -60t-99.5 -26z" />
    <glyph glyph-name="Umacron" unicode="&#x16a;" horiz-adv-x="760" 
d="M172 877h416v-127h-416v127zM378 -14q-78 0 -141.5 18.5t-108.5 58.5t-69.5 102t-24.5 149v386h238v-383q0 -65 30.5 -94.5t77.5 -29.5q48 0 78 27.5t30 91.5v388h238v-381q0 -90 -25 -153t-70.5 -103t-110 -58.5t-142.5 -18.5z" />
    <glyph glyph-name="umacron" unicode="&#x16b;" horiz-adv-x="645" 
d="M125 712h390v-122h-390v122zM217 -13q-87 0 -137 53t-50 146v360h227v-287q0 -35 18 -54.5t44 -19.5t45.5 19.5t19.5 54.5v287h227v-546h-227v73q-26 -34 -67.5 -60t-99.5 -26z" />
    <glyph glyph-name="Uogonek" unicode="&#x172;" horiz-adv-x="760" 
d="M502 -164q-20 -2 -38 -3.5t-35 -1.5q-78 0 -124 23.5t-46 63.5q0 38 36 74q-60 9 -108.5 32t-82.5 62.5t-52 96t-18 131.5v386h238v-383q0 -65 30.5 -94.5t77.5 -29.5q48 0 78 27.5t30 91.5v388h238v-381q0 -81 -20.5 -140.5t-58 -99.5t-91 -62t-119.5 -28q-9 -13 -9 -27
q0 -17 16 -24.5t58 -5.5v-96z" />
    <glyph glyph-name="uogonek" unicode="&#x173;" horiz-adv-x="645" 
d="M619 -164q-20 -2 -38 -3.5t-35 -1.5q-78 0 -124 23.5t-46 63.5q0 43 45 82h-37v73q-26 -34 -67.5 -60t-99.5 -26q-87 0 -137 53t-50 146v360h227v-287q0 -35 18 -54.5t44 -19.5t45.5 19.5t19.5 54.5v287h227v-546h-48q-18 -19 -18 -38q0 -17 16 -24.5t58 -5.5v-96z" />
    <glyph glyph-name="Uring" unicode="&#x16e;" horiz-adv-x="760" 
d="M380 792q36 0 58.5 21t22.5 53t-22.5 53t-58.5 21t-58.5 -21t-22.5 -53t22.5 -53t58.5 -21zM380 725q-33 0 -62 11t-50.5 29.5t-33.5 44.5t-12 56t12 56t33.5 44.5t50.5 29.5t62 11t62 -11t50.5 -29.5t33.5 -44.5t12 -56t-12 -56t-33.5 -44.5t-50.5 -29.5t-62 -11z
M378 -14q-78 0 -141.5 18.5t-108.5 58.5t-69.5 102t-24.5 149v386h238v-383q0 -65 30.5 -94.5t77.5 -29.5q48 0 78 27.5t30 91.5v388h238v-381q0 -90 -25 -153t-70.5 -103t-110 -58.5t-142.5 -18.5z" />
    <glyph glyph-name="uring" unicode="&#x16f;" horiz-adv-x="645" 
d="M320 641q30 0 50.5 21t20.5 52t-20.5 52t-50.5 21t-50.5 -21t-20.5 -52t20.5 -52t50.5 -21zM320 577q-30 0 -56.5 10.5t-46 29t-30.5 43.5t-11 54t11 54t30.5 43.5t46 29t56.5 10.5t56 -10.5t45.5 -29t31 -43.5t11.5 -54t-11.5 -54t-31 -43.5t-45.5 -29t-56 -10.5z
M217 -13q-87 0 -137 53t-50 146v360h227v-287q0 -35 18 -54.5t44 -19.5t45.5 19.5t19.5 54.5v287h227v-546h-227v73q-26 -34 -67.5 -60t-99.5 -26z" />
    <glyph glyph-name="Wacute" unicode="&#x1e82;" horiz-adv-x="1112" 
d="M564 907l231 -52l-160 -115h-167zM0 700h245l99 -336l113 338h202l113 -338l99 336h241l-229 -705h-204l-123 348l-123 -348h-204z" />
    <glyph glyph-name="wacute" unicode="&#x1e83;" horiz-adv-x="861" 
d="M441 772l221 -57l-165 -135h-152zM1 546h217l56 -220l66 222h181l67 -224l58 222h214l-167 -550h-190l-73 234l-75 -234h-189z" />
    <glyph glyph-name="Wcircumflex" unicode="&#x174;" horiz-adv-x="1112" 
d="M459 892h194l118 -152h-137l-79 51l-79 -51h-135zM0 700h245l99 -336l113 338h202l113 -338l99 336h241l-229 -705h-204l-123 348l-123 -348h-204z" />
    <glyph glyph-name="wcircumflex" unicode="&#x175;" horiz-adv-x="861" 
d="M348 752h164l133 -172h-127l-89 56l-89 -56h-125zM1 546h217l56 -220l66 222h181l67 -224l58 222h214l-167 -550h-190l-73 234l-75 -234h-189z" />
    <glyph glyph-name="Wdieresis" unicode="&#x1e84;" horiz-adv-x="1112" 
d="M352 890h184v-150h-184v150zM576 890h184v-150h-184v150zM0 700h245l99 -336l113 338h202l113 -338l99 336h241l-229 -705h-204l-123 348l-123 -348h-204z" />
    <glyph glyph-name="wdieresis" unicode="&#x1e85;" horiz-adv-x="861" 
d="M236 730h177v-150h-177v150zM447 730h177v-150h-177v150zM1 546h217l56 -220l66 222h181l67 -224l58 222h214l-167 -550h-190l-73 234l-75 -234h-189z" />
    <glyph glyph-name="Wgrave" unicode="&#x1e80;" horiz-adv-x="1112" 
d="M477 740l-160 115l231 52l96 -167h-167zM0 700h245l99 -336l113 338h202l113 -338l99 336h241l-229 -705h-204l-123 348l-123 -348h-204z" />
    <glyph glyph-name="wgrave" unicode="&#x1e81;" horiz-adv-x="861" 
d="M198 715l221 57l96 -192h-152zM1 546h217l56 -220l66 222h181l67 -224l58 222h214l-167 -550h-190l-73 234l-75 -234h-189z" />
    <glyph glyph-name="Yacute" unicode="&#xdd;" horiz-adv-x="730" 
d="M373 907l231 -52l-160 -115h-167zM248 248l-264 452h262l120 -230l121 230h259l-264 -449v-251h-234v248z" />
    <glyph glyph-name="yacute" unicode="&#xfd;" horiz-adv-x="652" 
d="M344 772l221 -57l-165 -135h-152zM420 546h231l-189 -508q-20 -54 -41.5 -92t-49.5 -62t-63.5 -35.5t-82.5 -11.5q-60 0 -112.5 15.5t-98.5 41.5l66 155q31 -17 57.5 -26.5t42.5 -9.5q21 0 37 8l-214 525h235l95 -288z" />
    <glyph glyph-name="Ycircumflex" unicode="&#x176;" horiz-adv-x="730" 
d="M268 892h194l118 -152h-137l-79 51l-79 -51h-135zM248 248l-264 452h262l120 -230l121 230h259l-264 -449v-251h-234v248z" />
    <glyph glyph-name="ycircumflex" unicode="&#x177;" horiz-adv-x="652" 
d="M251 752h164l133 -172h-127l-89 56l-89 -56h-125zM420 546h231l-189 -508q-20 -54 -41.5 -92t-49.5 -62t-63.5 -35.5t-82.5 -11.5q-60 0 -112.5 15.5t-98.5 41.5l66 155q31 -17 57.5 -26.5t42.5 -9.5q21 0 37 8l-214 525h235l95 -288z" />
    <glyph glyph-name="Ygrave" unicode="&#x1ef2;" horiz-adv-x="730" 
d="M286 740l-160 115l231 52l96 -167h-167zM248 248l-264 452h262l120 -230l121 230h259l-264 -449v-251h-234v248z" />
    <glyph glyph-name="ygrave" unicode="&#x1ef3;" horiz-adv-x="652" 
d="M101 715l221 57l96 -192h-152zM420 546h231l-189 -508q-20 -54 -41.5 -92t-49.5 -62t-63.5 -35.5t-82.5 -11.5q-60 0 -112.5 15.5t-98.5 41.5l66 155q31 -17 57.5 -26.5t42.5 -9.5q21 0 37 8l-214 525h235l95 -288z" />
    <glyph glyph-name="Zacute" unicode="&#x179;" horiz-adv-x="688" 
d="M362 907l231 -52l-160 -115h-167zM18 164l317 344h-305v192h641v-164l-317 -344h317v-192h-653v164z" />
    <glyph glyph-name="zacute" unicode="&#x17a;" horiz-adv-x="563" 
d="M305 772l221 -57l-165 -135h-152zM15 142l222 226h-213v178h527v-142l-223 -226h223v-178h-536v142z" />
    <glyph glyph-name="Zcaron" unicode="&#x17d;" horiz-adv-x="688" 
d="M451 740h-194l-118 152h137l79 -51l79 51h135zM18 164l317 344h-305v192h641v-164l-317 -344h317v-192h-653v164z" />
    <glyph glyph-name="zcaron" unicode="&#x17e;" horiz-adv-x="563" 
d="M376 580h-164l-133 172h127l89 -56l89 56h125zM15 142l222 226h-213v178h527v-142l-223 -226h223v-178h-536v142z" />
    <glyph glyph-name="Zdotaccent" unicode="&#x17b;" horiz-adv-x="688" 
d="M259 890h190v-150h-190v150zM18 164l317 344h-305v192h641v-164l-317 -344h317v-192h-653v164z" />
    <glyph glyph-name="zdotaccent" unicode="&#x17c;" horiz-adv-x="563" 
d="M202 730h184v-150h-184v150zM15 142l222 226h-213v178h527v-142l-223 -226h223v-178h-536v142z" />
    <glyph glyph-name="schwa" unicode="&#x259;" horiz-adv-x="598" 
d="M223 226q4 -39 25 -60.5t51 -21.5q29 0 48 22t24 60h-148zM281 559q67 0 122.5 -20.5t95 -57.5t61 -89t21.5 -116v-2q0 -61 -21 -113.5t-58 -91t-89 -60.5t-113 -22q-73 0 -126.5 23.5t-88.5 64.5t-52 96t-17 117v19t1 19h351q-12 36 -39 54.5t-64 18.5q-31 0 -57.5 -14
t-53.5 -42l-122 97q41 53 100.5 86t148.5 33z" />
    <glyph glyph-name="f_f" unicode="&#xfb00;" horiz-adv-x="852" 
d="M502 371h-64v169h64q0 46 11.5 82.5t37.5 62.5q28 28 65.5 40t94.5 12q51 0 83.5 -4t55.5 -11v-142q-17 4 -34 6t-39 2q-53 0 -53 -44v-4h126v-169h-121v-371h-227v371zM76 371h-64v175h64q1 44 12 78.5t37 60.5q28 28 65.5 40t94.5 12q51 0 83.5 -4t55.5 -11v-142
q-17 4 -34 6t-39 2q-53 0 -53 -44v-4h126v-169h-121v-371h-227v371z" />
    <glyph glyph-name="f_f_i" unicode="&#xfb03;" horiz-adv-x="1151" 
d="M884 730h235v-145h-235v145zM888 546h227v-546h-227v546zM502 371h-64v169h64q0 46 11.5 82.5t37.5 62.5q28 28 65.5 40t94.5 12q51 0 83.5 -4t55.5 -11v-142q-17 4 -34 6t-39 2q-53 0 -53 -44v-4h126v-169h-121v-371h-227v371zM76 371h-64v175h64q1 44 12 78.5t37 60.5
q28 28 65.5 40t94.5 12q51 0 83.5 -4t55.5 -11v-142q-17 4 -34 6t-39 2q-53 0 -53 -44v-4h126v-169h-121v-371h-227v371z" />
    <glyph glyph-name="f_f_l" unicode="&#xfb04;" horiz-adv-x="1151" 
d="M888 730h227v-730h-227v730zM502 371h-64v169h64q0 46 11.5 82.5t37.5 62.5q28 28 65.5 40t94.5 12q51 0 83.5 -4t55.5 -11v-142q-17 4 -34 6t-39 2q-53 0 -53 -44v-4h126v-169h-121v-371h-227v371zM76 371h-64v175h64q1 44 12 78.5t37 60.5q28 28 65.5 40t94.5 12
q51 0 83.5 -4t55.5 -11v-142q-17 4 -34 6t-39 2q-53 0 -53 -44v-4h126v-169h-121v-371h-227v371z" />
    <glyph glyph-name="three.alt" horiz-adv-x="621" 
d="M319 -15q-108 0 -186.5 34t-136.5 93l138 139q78 -77 164 -77q39 0 62 15.5t23 35.5v2q0 19 -19 31.5t-74 12.5h-68v164h62q51 0 69.5 12t18.5 30v2q0 22 -21 34.5t-53 12.5q-42 0 -76 -20.5t-63 -50.5l-132 133q22 25 51 48.5t66 40.5t82.5 27.5t101.5 10.5
q60 0 109 -14.5t84.5 -39.5t54.5 -59t19 -73v-2q0 -61 -32.5 -100.5t-85.5 -60.5q59 -15 96.5 -54.5t37.5 -107.5v-2q0 -47 -20.5 -87t-58 -69t-92 -45t-121.5 -16z" />
    <glyph glyph-name="published" unicode="&#x2117;" horiz-adv-x="830" 
d="M427 360q25 0 40 11t15 31v2q0 21 -14 31.5t-40 10.5h-35v-86h34zM264 549h173q78 0 125 -34.5t47 -103.5v-2q0 -34 -12.5 -60.5t-35.5 -44.5t-55 -27t-71 -9h-42v-104h-129v385zM414 25q69 0 127.5 26t101.5 70t67.5 103.5t24.5 125.5v2q0 66 -24.5 125t-67 103
t-101 69.5t-126.5 25.5q-69 0 -127.5 -26t-101.5 -70t-67.5 -103.5t-24.5 -125.5v-2q0 -66 24 -125t67 -103t101.5 -69.5t126.5 -25.5zM414 -15q-76 0 -142 29t-114.5 78.5t-76.5 115.5t-28 140v2q0 74 28 140t77 116t115.5 79.5t142.5 29.5t142 -29t114.5 -78.5
t76.5 -115.5t28 -140v-2q0 -74 -28 -140t-77 -116t-115.5 -79.5t-142.5 -29.5z" />
    <glyph glyph-name="registered.alt" horiz-adv-x="830" 
d="M430 370q23 0 36.5 9.5t13.5 27.5v2q0 18 -13.5 27t-35.5 9h-56v-75h55zM246 553h188q51 0 85 -12t54 -32q17 -17 26 -39.5t9 -52.5v-2q0 -42 -20.5 -70.5t-55.5 -45.5l90 -131h-146l-74 110h-27v-110h-129v385zM414 25q69 0 127.5 26t101.5 70t67.5 103.5t24.5 125.5v2
q0 66 -24.5 125t-67 103t-101 69.5t-126.5 25.5q-69 0 -127.5 -26t-101.5 -70t-67.5 -103.5t-24.5 -125.5v-2q0 -66 24 -125t67 -103t101.5 -69.5t126.5 -25.5zM414 -15q-76 0 -142 29t-114.5 78.5t-76.5 115.5t-28 140v2q0 74 28 140t77 116t115.5 79.5t142.5 29.5t142 -29
t114.5 -78.5t76.5 -115.5t28 -140v-2q0 -74 -28 -140t-77 -116t-115.5 -79.5t-142.5 -29.5z" />
    <glyph glyph-name="servicemark" unicode="&#x2120;" horiz-adv-x="700" 
d="M161 386q-47 0 -88 13t-70 39l55 66q25 -20 53 -28t55 -8q26 0 26 14q0 7 -8.5 11t-33.5 9q-26 5 -49.5 12t-41.5 18.5t-28.5 28t-10.5 40.5q0 45 33.5 75t96.5 30q45 0 79 -10.5t60 -32.5l-50 -69q-22 16 -46 23t-46 7q-23 0 -23 -13q0 -7 8.5 -11t32.5 -9
q59 -11 95.5 -32.5t36.5 -67.5q0 -49 -36.5 -77t-99.5 -28zM324 700h107l66 -108l66 108h108v-308h-103v153l-71 -110h-1l-71 110v-153h-101v308z" />
    <glyph glyph-name="Euro" unicode="&#x20ac;" horiz-adv-x="644" 
d="M514 476q-14 17 -39 31t-60 14q-32 0 -55.5 -13.5t-36.5 -37.5h130v-102h-150v-32h150v-102h-131q12 -26 36.5 -40.5t59.5 -14.5q33 0 58.5 14.5t42.5 34.5l129 -143q-42 -49 -102.5 -74.5t-140.5 -25.5q-64 0 -116 18t-91.5 50t-65.5 77t-36 99h-70v106h60v34h-60v106
h74q11 49 36.5 92.5t65 76.5t92 52t117.5 19q70 0 132 -25.5t102 -71.5z" />
    <glyph glyph-name="baht" unicode="&#xe3f;" horiz-adv-x="660" 
d="M258 156l17 136h-60v-136h43zM449 478q0 57 -63 65l-16 -131q79 0 79 66zM290 412l16 132h-91v-132h75zM355 292l-17 -136h36q83 0 83 68t-82 68h-20zM419 780l-10 -81q49 -2 90.5 -12.5t71.5 -32t46.5 -54t16.5 -77.5v-5q0 -60 -31 -97.5t-81 -57.5q27 -11 50 -25
t39.5 -33.5t26 -45t9.5 -59.5v-5q0 -92 -68 -143.5t-193 -51.5h-65l-13 -110h-86l13 110h-203v700h291l10 80h86z" />
    <glyph glyph-name="colonmonetary" unicode="&#x20a1;" horiz-adv-x="640" 
d="M219 337q0 -45 11.5 -75.5t32.5 -50.5l36 296q-38 -21 -59 -62.5t-21 -101.5v-6zM322 181q13 -4 27 -5t29 -1h8l42 342q-26 8 -52 8q-3 0 -6 -0.5t-6 -0.5zM532 780l-13 -104q36 -15 63.5 -36.5t49.5 -45.5l-100 -155q-11 14 -22 25.5t-23 20.5l-36 -294q20 10 37.5 25
t37.5 37l112 -130q-35 -45 -84 -77t-118 -44l-14 -112h-79l13 106q-13 1 -25 1.5t-24 2.5l-13 -110h-79l16 129q-46 17 -85 46t-67.5 69t-45 91t-16.5 111v6q0 76 23 138.5t63 108.5t94.5 74.5t117.5 36.5l10 80h79l-10 -77q25 -2 48 -6l11 83h79z" />
    <glyph glyph-name="naira" unicode="&#x20a6;" horiz-adv-x="900" 
d="M590 301v133h-81l74 -133h7zM310 270h87l-80 145h-7v-145zM788 178v-178h-243l-103 178h-128v-178h-202v178h-99v102h99v144h-99v102h99v174h254l98 -174h122v174h202v-174h99v-102h-99v-144h99v-102h-99z" />
    <glyph glyph-name="peso" unicode="&#x20b1;" horiz-adv-x="795" 
d="M341 461h138q-5 37 -32 56t-72 19h-34v-75zM374 304q45 0 72.5 19.5t33.5 56.5h-139v-76h33zM112 370h-99v101h99v229h275q66 0 120.5 -14.5t95 -43.5t65.5 -71.5t30 -99.5h90v-101h-92q-8 -54 -34.5 -95t-67 -68.5t-94.5 -42t-118 -14.5h-39v-150h-231v370z" />
    <glyph glyph-name="R_p" horiz-adv-x="1188" 
d="M292 362q41 0 65 20.5t24 58.5v3q0 38 -24.5 57.5t-63.5 19.5h-51v-159h50zM904 161q30 0 48 25.5t18 70.5v32q0 45 -18 70.5t-48 25.5q-29 0 -47.5 -25.5t-18.5 -70.5v-32q0 -45 18.5 -70.5t47.5 -25.5zM636 546h205v-64q12 16 25.5 30t30 24.5t37 16.5t46.5 6
q40 0 75 -17t61 -50.5t41 -84.5t15 -120v-24q0 -70 -15 -122t-41.5 -86t-61 -51t-73.5 -17q-52 0 -84 21.5t-56 52.5v-221h-205v706zM32 700h270q139 0 215.5 -62.5t76.5 -177.5v-6q0 -77 -31.5 -125.5t-83.5 -77.5l134 -251h-236l-104 204h-31v-204h-210v700z" />
    <glyph glyph-name="rupee" unicode="&#x20a8;" horiz-adv-x="1075" 
d="M292 362q41 0 65 20.5t24 58.5v3q0 38 -24.5 57.5t-63.5 19.5h-51v-159h50zM847 -13q-67 0 -127.5 17t-111.5 47l63 142q43 -25 90 -41t84 -16q31 0 31 19v2q0 8 -11 16t-48 21q-44 15 -79.5 30.5t-61 36t-39.5 48t-14 66.5v2q0 43 16 76.5t45 57t69 36t89 12.5
q63 0 113.5 -13.5t94.5 -37.5l-51 -146q-39 22 -84 35t-75 13q-31 0 -31 -19v-2q0 -8 12 -15.5t51 -21.5q45 -16 80.5 -31.5t60.5 -35.5t38 -47t13 -66v-2q0 -40 -15.5 -73.5t-43.5 -58t-68.5 -38t-89.5 -13.5zM32 700h270q139 0 215.5 -62.5t76.5 -177.5v-6
q0 -77 -31.5 -125.5t-83.5 -77.5l134 -251h-236l-104 204h-31v-204h-210v700z" />
    <glyph glyph-name="won" unicode="&#x20a9;" horiz-adv-x="1140" 
d="M789 257l29 167h-71l36 -167h6zM361 257l36 167h-71l29 -167h6zM529 280h81l-37 167h-6zM1056 516h73v-107h-100l-29 -119h119v-107h-146l-46 -188h-254l-45 193h-116l-45 -193h-254l-46 188h-146v107h119l-29 119h-100v107h73l-45 184h245l31 -184h96l40 186h242
l39 -186h97l31 184h241z" />
    <glyph glyph-name="sheqel" unicode="&#x20aa;" horiz-adv-x="650" 
d="M345 315q0 78 -78 78h-93v-393h-133v546h250q69 0 106.5 -37.5t37.5 -106.5v-178h-90v91zM207 322h89l10 -92q5 -39 26.5 -58t67.5 -19h76v393h133v-546h-220q-78 0 -119.5 39.5t-48.5 116.5z" />
    <glyph glyph-name="minus" unicode="&#x2212;" horiz-adv-x="640" 
d="M46 254v196h548v-196h-548z" />
    <glyph glyph-name="multiply" unicode="&#xd7;" horiz-adv-x="640" 
d="M318 221l-143 -147l-133 133l147 143l-148 143l137 137l144 -147l143 147l133 -133l-147 -143l147 -143l-137 -137z" />
    <glyph glyph-name="onehalf" unicode="&#xbd;" horiz-adv-x="825" 
d="M368 365l218 335h83l-257 -365l-218 -335h-83zM472 98l160 121q31 23 31 46q0 13 -9 21t-25 8q-19 0 -37.5 -11t-41.5 -35l-81 75q29 38 69.5 60.5t100.5 22.5q35 0 63.5 -9.5t48.5 -26.5t31 -40t11 -49q0 -23 -6 -41.5t-17 -33.5t-26 -28.5t-34 -26.5l-64 -45h151v-106
h-325v98zM116 304v282l-76 -19l-28 100l141 40h98v-403h-135z" />
    <glyph glyph-name="onehalf.alt" horiz-adv-x="900" 
d="M448 365l218 335h83l-257 -365l-218 -335h-83zM547 98l160 121q31 23 31 46q0 13 -9 21t-25 8q-19 0 -37.5 -11t-41.5 -35l-81 75q29 38 69.5 60.5t100.5 22.5q35 0 63.5 -9.5t48.5 -26.5t31 -40t11 -49q0 -23 -6 -41.5t-17 -33.5t-26 -28.5t-34 -26.5l-64 -45h151v-106
h-325v98zM45 304v104h97v178l-87 -21l-28 99l152 43h98v-299h85v-104h-317z" />
    <glyph glyph-name="onethird" unicode="&#x2153;" horiz-adv-x="825" 
d="M357 365l218 335h83l-257 -365l-218 -335h-83zM632 -12q-60 0 -103 17t-75 48l69 80q47 -41 98 -41q47 0 47 36q0 16 -15 25.5t-47 9.5h-47l-16 59l96 72h-155v102h303v-93l-98 -71q44 -8 75.5 -33.5t31.5 -76.5q0 -32 -13 -57t-35.5 -42t-52.5 -26t-63 -9zM116 304v282
l-76 -19l-28 100l141 40h98v-403h-135z" />
    <glyph glyph-name="onethird.alt" horiz-adv-x="900" 
d="M438 365l218 335h83l-257 -365l-218 -335h-83zM707 -12q-60 0 -103 17t-75 48l69 80q47 -41 98 -41q47 0 47 36q0 16 -15 25.5t-47 9.5h-47l-16 59l96 72h-155v102h303v-93l-98 -71q44 -8 75.5 -33.5t31.5 -76.5q0 -32 -13 -57t-35.5 -42t-52.5 -26t-63 -9zM45 304v104
h97v178l-87 -21l-28 99l152 43h98v-299h85v-104h-317z" />
    <glyph glyph-name="twothirds" unicode="&#x2154;" horiz-adv-x="900" 
d="M428 365l218 335h83l-257 -365l-218 -335h-83zM707 -12q-60 0 -103 17t-75 48l69 80q47 -41 98 -41q47 0 47 36q0 16 -15 25.5t-47 9.5h-47l-16 59l96 72h-155v102h303v-93l-98 -71q44 -8 75.5 -33.5t31.5 -76.5q0 -32 -13 -57t-35.5 -42t-52.5 -26t-63 -9zM27 402
l160 121q31 23 31 46q0 13 -9 21t-25 8q-19 0 -37.5 -11t-41.5 -35l-81 75q29 38 69.5 60.5t100.5 22.5q35 0 63.5 -9.5t48.5 -26.5t31 -40t11 -49q0 -23 -6 -41.5t-17 -33.5t-26 -28.5t-34 -26.5l-64 -45h151v-106h-325v98z" />
    <glyph glyph-name="onequarter" unicode="&#xbc;" horiz-adv-x="825" 
d="M635 280l-81 -129h81v129zM378 365l218 335h83l-257 -365l-218 -335h-83zM116 304v282l-76 -19l-28 100l141 40h98v-403h-135zM760 -2h-129v65h-168l-17 97l158 240h156v-245h45v-92h-45v-65z" />
    <glyph glyph-name="onequarter.alt" horiz-adv-x="900" 
d="M710 280l-81 -129h81v129zM453 365l218 335h83l-257 -365l-218 -335h-83zM45 304v104h97v178l-87 -21l-28 99l152 43h98v-299h85v-104h-317zM835 -2h-129v65h-168l-17 97l158 240h156v-245h45v-92h-45v-65z" />
    <glyph glyph-name="threequarters" unicode="&#xbe;" horiz-adv-x="900" 
d="M710 280l-81 -129h81v129zM448 365l218 335h83l-257 -365l-218 -335h-83zM197 292q-60 0 -103 17t-75 48l69 80q23 -20 47.5 -30.5t50.5 -10.5q47 0 47 36q0 16 -15 25.5t-47 9.5h-47l-16 59l96 72h-155v102h303v-93l-98 -71q44 -8 75.5 -33.5t31.5 -76.5q0 -32 -13 -57
t-35.5 -42t-52.5 -26t-63 -9zM835 -2h-129v65h-168l-17 97l158 240h156v-245h45v-92h-45v-65z" />
    <glyph glyph-name="onefifth" unicode="&#x2155;" horiz-adv-x="825" 
d="M362 365l218 335h83l-257 -365l-218 -335h-83zM629 -10q-57 0 -98.5 17t-74.5 44l63 85q26 -19 51.5 -30t50.5 -11q22 0 34.5 10.5t12.5 27.5q0 19 -13.5 28.5t-35.5 9.5q-17 0 -30 -5t-27 -15l-80 38l18 207h278v-105h-185l-6 -51q16 5 32 8.5t44 3.5q27 0 51 -7.5
t42.5 -22t29 -37t10.5 -52.5q0 -36 -13 -63t-35.5 -44.5t-53 -26.5t-65.5 -9zM116 304v282l-76 -19l-28 100l141 40h98v-403h-135z" />
    <glyph glyph-name="onefifth.alt" horiz-adv-x="900" 
d="M443 365l218 335h83l-257 -365l-218 -335h-83zM704 -10q-57 0 -98.5 17t-74.5 44l63 85q26 -19 51.5 -30t50.5 -11q22 0 34.5 10.5t12.5 27.5q0 19 -13.5 28.5t-35.5 9.5q-17 0 -30 -5t-27 -15l-80 38l18 207h278v-105h-185l-6 -51q16 5 32 8.5t44 3.5q27 0 51 -7.5
t42.5 -22t29 -37t10.5 -52.5q0 -36 -13 -63t-35.5 -44.5t-53 -26.5t-65.5 -9zM45 304v104h97v178l-87 -21l-28 99l152 43h98v-299h85v-104h-317z" />
    <glyph glyph-name="twofifths" unicode="&#x2156;" horiz-adv-x="900" 
d="M438 365l218 335h83l-257 -365l-218 -335h-83zM704 -10q-57 0 -98.5 17t-74.5 44l63 85q26 -19 51.5 -30t50.5 -11q22 0 34.5 10.5t12.5 27.5q0 19 -13.5 28.5t-35.5 9.5q-17 0 -30 -5t-27 -15l-80 38l18 207h278v-105h-185l-6 -51q16 5 32 8.5t44 3.5q27 0 51 -7.5
t42.5 -22t29 -37t10.5 -52.5q0 -36 -13 -63t-35.5 -44.5t-53 -26.5t-65.5 -9zM27 402l160 121q31 23 31 46q0 13 -9 21t-25 8q-19 0 -37.5 -11t-41.5 -35l-81 75q29 38 69.5 60.5t100.5 22.5q35 0 63.5 -9.5t48.5 -26.5t31 -40t11 -49q0 -23 -6 -41.5t-17 -33.5t-26 -28.5
t-34 -26.5l-64 -45h151v-106h-325v98z" />
    <glyph glyph-name="threefifths" unicode="&#x2157;" horiz-adv-x="900" 
d="M423 365l218 335h83l-257 -365l-218 -335h-83zM704 -10q-57 0 -98.5 17t-74.5 44l63 85q26 -19 51.5 -30t50.5 -11q22 0 34.5 10.5t12.5 27.5q0 19 -13.5 28.5t-35.5 9.5q-17 0 -30 -5t-27 -15l-80 38l18 207h278v-105h-185l-6 -51q16 5 32 8.5t44 3.5q27 0 51 -7.5
t42.5 -22t29 -37t10.5 -52.5q0 -36 -13 -63t-35.5 -44.5t-53 -26.5t-65.5 -9zM187 292q-60 0 -103 17t-75 48l69 80q23 -20 47.5 -30.5t50.5 -10.5q47 0 47 36q0 16 -15 25.5t-47 9.5h-47l-16 59l96 72h-155v102h303v-93l-98 -71q44 -8 75.5 -33.5t31.5 -76.5q0 -32 -13 -57
t-35.5 -42t-52.5 -26t-63 -9z" />
    <glyph glyph-name="fourfifths" unicode="&#x2158;" horiz-adv-x="900" 
d="M200 584l-81 -129h81v129zM438 365l218 335h83l-257 -365l-218 -335h-83zM704 -10q-57 0 -98.5 17t-74.5 44l63 85q26 -19 51.5 -30t50.5 -11q22 0 34.5 10.5t12.5 27.5q0 19 -13.5 28.5t-35.5 9.5q-17 0 -30 -5t-27 -15l-80 38l18 207h278v-105h-185l-6 -51q16 5 32 8.5
t44 3.5q27 0 51 -7.5t42.5 -22t29 -37t10.5 -52.5q0 -36 -13 -63t-35.5 -44.5t-53 -26.5t-65.5 -9zM325 302h-129v65h-168l-17 97l158 240h156v-245h45v-92h-45v-65z" />
    <glyph glyph-name="onesixth" unicode="&#x2159;" horiz-adv-x="825" 
d="M638 84q21 0 30.5 13t9.5 33q0 18 -9.5 31t-30.5 13t-30.5 -13t-9.5 -31q0 -20 9.5 -33t30.5 -13zM368 365l218 335h83l-257 -365l-218 -335h-83zM116 304v282l-76 -19l-28 100l141 40h98v-403h-135zM643 -12q-38 0 -70 11.5t-55 34.5q-24 24 -37.5 60.5t-13.5 89.5v5
q0 104 52 161.5t145 57.5q41 0 69.5 -9t54.5 -24l-44 -97q-15 11 -35 17.5t-40 6.5q-31 0 -49.5 -19.5t-20.5 -54.5q15 11 36.5 18t50.5 7q21 0 42.5 -6t38 -19.5t27 -36t10.5 -54.5q0 -38 -13 -65.5t-34.5 -46.5t-51 -28t-62.5 -9z" />
    <glyph glyph-name="onesixth.alt" horiz-adv-x="900" 
d="M713 84q21 0 30.5 13t9.5 33q0 18 -9.5 31t-30.5 13t-30.5 -13t-9.5 -31q0 -20 9.5 -33t30.5 -13zM443 365l218 335h83l-257 -365l-218 -335h-83zM45 304v104h97v178l-87 -21l-28 99l152 43h98v-299h85v-104h-317zM718 -12q-38 0 -70 11.5t-55 34.5q-24 24 -37.5 60.5
t-13.5 89.5v5q0 104 52 161.5t145 57.5q41 0 69.5 -9t54.5 -24l-44 -97q-15 11 -35 17.5t-40 6.5q-31 0 -49.5 -19.5t-20.5 -54.5q15 11 36.5 18t50.5 7q21 0 42.5 -6t38 -19.5t27 -36t10.5 -54.5q0 -38 -13 -65.5t-34.5 -46.5t-51 -28t-62.5 -9z" />
    <glyph glyph-name="fivesixths" unicode="&#x215a;" horiz-adv-x="900" 
d="M713 84q21 0 30.5 13t9.5 33q0 18 -9.5 31t-30.5 13t-30.5 -13t-9.5 -31q0 -20 9.5 -33t30.5 -13zM428 365l218 335h83l-257 -365l-218 -335h-83zM184 294q-57 0 -98.5 17t-74.5 44l63 85q26 -19 51.5 -30t50.5 -11q22 0 34.5 10.5t12.5 27.5q0 19 -13.5 28.5t-35.5 9.5
q-17 0 -30 -5t-27 -15l-80 38l18 207h278v-105h-185l-6 -51q16 5 32 8.5t44 3.5q27 0 51 -7.5t42.5 -22t29 -37t10.5 -52.5q0 -36 -13 -63t-35.5 -44.5t-53 -26.5t-65.5 -9zM718 -12q-38 0 -70 11.5t-55 34.5q-24 24 -37.5 60.5t-13.5 89.5v5q0 104 52 161.5t145 57.5
q41 0 69.5 -9t54.5 -24l-44 -97q-15 11 -35 17.5t-40 6.5q-31 0 -49.5 -19.5t-20.5 -54.5q15 11 36.5 18t50.5 7q21 0 42.5 -6t38 -19.5t27 -36t10.5 -54.5q0 -38 -13 -65.5t-34.5 -46.5t-51 -28t-62.5 -9z" />
    <glyph glyph-name="oneeighth" unicode="&#x215b;" horiz-adv-x="825" 
d="M368 365l218 335h83l-257 -365l-218 -335h-83zM635 164q-20 0 -31.5 -12t-11.5 -30q0 -17 10.5 -29.5t32.5 -12.5q21 0 31.5 12.5t10.5 29.5q0 18 -11.5 30t-30.5 12zM635 317q-18 0 -28.5 -11t-10.5 -28q0 -19 11 -30t28 -11t27.5 11t10.5 30q0 17 -10.5 28t-27.5 11z
M635 -11q-37 0 -68 8.5t-53 24t-34 37.5t-12 49q0 37 18 60t50 37q-23 12 -40 33.5t-17 54.5q0 51 43 82.5t113 31.5q34 0 62.5 -8.5t49.5 -23.5t32.5 -36t11.5 -46q0 -32 -17 -53.5t-40 -34.5q29 -12 48.5 -35t19.5 -62q0 -27 -12.5 -49t-34.5 -37.5t-52.5 -24t-67.5 -8.5z
M116 304v282l-76 -19l-28 100l141 40h98v-403h-135z" />
    <glyph glyph-name="oneeighth.alt" horiz-adv-x="900" 
d="M443 365l218 335h83l-257 -365l-218 -335h-83zM710 164q-20 0 -31.5 -12t-11.5 -30q0 -17 10.5 -29.5t32.5 -12.5q21 0 31.5 12.5t10.5 29.5q0 18 -11.5 30t-30.5 12zM710 317q-18 0 -28.5 -11t-10.5 -28q0 -19 11 -30t28 -11t27.5 11t10.5 30q0 17 -10.5 28t-27.5 11z
M710 -11q-37 0 -68 8.5t-53 24t-34 37.5t-12 49q0 37 18 60t50 37q-23 12 -40 33.5t-17 54.5q0 51 43 82.5t113 31.5q34 0 62.5 -8.5t49.5 -23.5t32.5 -36t11.5 -46q0 -32 -17 -53.5t-40 -34.5q29 -12 48.5 -35t19.5 -62q0 -27 -12.5 -49t-34.5 -37.5t-52.5 -24t-67.5 -8.5z
M45 304v104h97v178l-87 -21l-28 99l152 43h98v-299h85v-104h-317z" />
    <glyph glyph-name="threeeighths" unicode="&#x215c;" horiz-adv-x="900" 
d="M428 365l218 335h83l-257 -365l-218 -335h-83zM710 164q-20 0 -31.5 -12t-11.5 -30q0 -17 10.5 -29.5t32.5 -12.5q21 0 31.5 12.5t10.5 29.5q0 18 -11.5 30t-30.5 12zM710 317q-18 0 -28.5 -11t-10.5 -28q0 -19 11 -30t28 -11t27.5 11t10.5 30q0 17 -10.5 28t-27.5 11z
M710 -11q-37 0 -68 8.5t-53 24t-34 37.5t-12 49q0 37 18 60t50 37q-23 12 -40 33.5t-17 54.5q0 51 43 82.5t113 31.5q34 0 62.5 -8.5t49.5 -23.5t32.5 -36t11.5 -46q0 -32 -17 -53.5t-40 -34.5q29 -12 48.5 -35t19.5 -62q0 -27 -12.5 -49t-34.5 -37.5t-52.5 -24t-67.5 -8.5z
M187 292q-60 0 -103 17t-75 48l69 80q23 -20 47.5 -30.5t50.5 -10.5q47 0 47 36q0 16 -15 25.5t-47 9.5h-47l-16 59l96 72h-155v102h303v-93l-98 -71q44 -8 75.5 -33.5t31.5 -76.5q0 -32 -13 -57t-35.5 -42t-52.5 -26t-63 -9z" />
    <glyph glyph-name="fiveeighths" unicode="&#x215d;" horiz-adv-x="900" 
d="M428 365l218 335h83l-257 -365l-218 -335h-83zM710 164q-20 0 -31.5 -12t-11.5 -30q0 -17 10.5 -29.5t32.5 -12.5q21 0 31.5 12.5t10.5 29.5q0 18 -11.5 30t-30.5 12zM710 317q-18 0 -28.5 -11t-10.5 -28q0 -19 11 -30t28 -11t27.5 11t10.5 30q0 17 -10.5 28t-27.5 11z
M710 -11q-37 0 -68 8.5t-53 24t-34 37.5t-12 49q0 37 18 60t50 37q-23 12 -40 33.5t-17 54.5q0 51 43 82.5t113 31.5q34 0 62.5 -8.5t49.5 -23.5t32.5 -36t11.5 -46q0 -32 -17 -53.5t-40 -34.5q29 -12 48.5 -35t19.5 -62q0 -27 -12.5 -49t-34.5 -37.5t-52.5 -24t-67.5 -8.5z
M184 294q-57 0 -98.5 17t-74.5 44l63 85q26 -19 51.5 -30t50.5 -11q22 0 34.5 10.5t12.5 27.5q0 19 -13.5 28.5t-35.5 9.5q-17 0 -30 -5t-27 -15l-80 38l18 207h278v-105h-185l-6 -51q16 5 32 8.5t44 3.5q27 0 51 -7.5t42.5 -22t29 -37t10.5 -52.5q0 -36 -13 -63
t-35.5 -44.5t-53 -26.5t-65.5 -9z" />
    <glyph glyph-name="seveneighths" unicode="&#x215e;" horiz-adv-x="900" 
d="M398 365l218 335h83l-257 -365l-218 -335h-83zM710 164q-20 0 -31.5 -12t-11.5 -30q0 -17 10.5 -29.5t32.5 -12.5q21 0 31.5 12.5t10.5 29.5q0 18 -11.5 30t-30.5 12zM710 317q-18 0 -28.5 -11t-10.5 -28q0 -19 11 -30t28 -11t27.5 11t10.5 30q0 17 -10.5 28t-27.5 11z
M710 -11q-37 0 -68 8.5t-53 24t-34 37.5t-12 49q0 37 18 60t50 37q-23 12 -40 33.5t-17 54.5q0 51 43 82.5t113 31.5q34 0 62.5 -8.5t49.5 -23.5t32.5 -36t11.5 -46q0 -32 -17 -53.5t-40 -34.5q29 -12 48.5 -35t19.5 -62q0 -27 -12.5 -49t-34.5 -37.5t-52.5 -24t-67.5 -8.5z
M47 301l168 286h-176v113h323v-105l-171 -294h-144z" />
    <glyph glyph-name="zero.sup" unicode="&#x2070;" 
d="M200 716q-43 0 -43 -87v-34q0 -45 11.5 -65.5t31.5 -20.5t31.5 20.5t11.5 65.5v34q0 87 -43 87zM199 402q-40 0 -71.5 15t-53 42t-33 64.5t-11.5 82.5v11q0 45 11.5 83t33.5 65t54 42t72 15t71 -15t53 -42t33.5 -64.5t11.5 -82.5v-11q0 -45 -11.5 -82.5t-33.5 -65
t-54 -42.5t-72 -15z" />
    <glyph glyph-name="one.sup" unicode="&#xb9;" horiz-adv-x="325" 
d="M121 414v282l-76 -19l-28 100l141 40h98v-403h-135z" />
    <glyph glyph-name="one.sup_alt" 
d="M50 414v104h97v178l-87 -21l-28 99l152 43h98v-299h85v-104h-317z" />
    <glyph glyph-name="two.sup" unicode="&#xb2;" 
d="M37 512l160 121q31 23 31 46q0 13 -9 21t-25 8q-19 0 -37.5 -11t-41.5 -35l-81 75q29 38 69.5 60.5t100.5 22.5q35 0 63.5 -9.5t48.5 -26.5t31 -40t11 -49q0 -23 -6 -41.5t-17 -33.5t-26 -28.5t-34 -26.5l-64 -45h151v-106h-325v98z" />
    <glyph glyph-name="three.sup" unicode="&#xb3;" 
d="M197 402q-60 0 -103 17t-75 48l69 80q23 -20 47.5 -30.5t50.5 -10.5q47 0 47 36q0 16 -15 25.5t-47 9.5h-47l-16 59l96 72h-155v102h303v-93l-98 -71q44 -8 75.5 -33.5t31.5 -76.5q0 -32 -13 -57t-35.5 -42t-52.5 -26t-63 -9z" />
    <glyph glyph-name="four.sup" unicode="&#x2074;" 
d="M210 694l-81 -129h81v129zM335 412h-129v65h-168l-17 97l158 240h156v-245h45v-92h-45v-65z" />
    <glyph glyph-name="five.sup" unicode="&#x2075;" 
d="M194 404q-57 0 -98.5 17t-74.5 44l63 85q26 -19 51.5 -30t50.5 -11q22 0 34.5 10.5t12.5 27.5q0 19 -13.5 28.5t-35.5 9.5q-17 0 -30 -5t-27 -15l-80 38l18 207h278v-105h-185l-6 -51q16 5 32 8.5t44 3.5q27 0 51 -7.5t42.5 -22t29 -37t10.5 -52.5q0 -36 -13 -63
t-35.5 -44.5t-53 -26.5t-65.5 -9z" />
    <glyph glyph-name="six.sup" unicode="&#x2076;" 
d="M203 498q21 0 30.5 13t9.5 33q0 18 -9.5 31t-30.5 13t-30.5 -13t-9.5 -31q0 -20 9.5 -33t30.5 -13zM208 402q-38 0 -70 11.5t-55 34.5q-24 24 -37.5 60.5t-13.5 89.5v5q0 104 52 161.5t145 57.5q41 0 69.5 -9t54.5 -24l-44 -97q-15 11 -35 17.5t-40 6.5
q-31 0 -49.5 -19.5t-20.5 -54.5q15 11 36.5 18t50.5 7q21 0 42.5 -6t38 -19.5t27 -36t10.5 -54.5q0 -38 -13 -65.5t-34.5 -46.5t-51 -28t-62.5 -9z" />
    <glyph glyph-name="seven.sup" unicode="&#x2077;" 
d="M47 411l168 286h-176v113h323v-105l-171 -294h-144z" />
    <glyph glyph-name="eight.sup" unicode="&#x2078;" 
d="M200 578q-20 0 -31.5 -12t-11.5 -30q0 -17 10.5 -29.5t32.5 -12.5q21 0 31.5 12.5t10.5 29.5q0 18 -11.5 30t-30.5 12zM200 731q-18 0 -28.5 -11t-10.5 -28q0 -19 11 -30t28 -11t27.5 11t10.5 30q0 17 -10.5 28t-27.5 11zM200 403q-37 0 -68 8.5t-53 24t-34 37.5t-12 49
q0 37 18 60t50 37q-23 12 -40 33.5t-17 54.5q0 51 43 82.5t113 31.5q34 0 62.5 -8.5t49.5 -23.5t32.5 -36t11.5 -46q0 -32 -17 -53.5t-40 -34.5q29 -12 48.5 -35t19.5 -62q0 -27 -12.5 -49t-34.5 -37.5t-52.5 -24t-67.5 -8.5z" />
    <glyph glyph-name="nine.sup" unicode="&#x2079;" 
d="M197 632q20 0 29.5 14t9.5 32q0 20 -9.5 34t-29.5 14t-29.5 -14t-9.5 -34q0 -18 9.5 -32t29.5 -14zM192 822q38 0 70 -11.5t55 -34.5q24 -24 37.5 -60.5t13.5 -89.5v-5q0 -104 -50.5 -161t-143.5 -57q-41 0 -73.5 9.5t-61.5 27.5l44 96q19 -13 41 -20.5t42 -7.5
q64 0 76 70q-20 -10 -41.5 -17t-50.5 -7q-22 0 -43 6t-38 20t-27.5 36.5t-10.5 54.5q0 37 13 65.5t35 47.5t51 28.5t62 9.5z" />
    <glyph glyph-name="zero.inf" unicode="&#x2080;" 
d="M200 172q-43 0 -43 -87v-34q0 -45 11.5 -65.5t31.5 -20.5t31.5 20.5t11.5 65.5v34q0 87 -43 87zM199 -142q-40 0 -71.5 15t-53 42t-33 64.5t-11.5 82.5v11q0 45 11.5 83t33.5 65t54 42t72 15t71 -15t53 -42t33.5 -64.5t11.5 -82.5v-11q0 -45 -11.5 -82.5t-33.5 -65
t-54 -42.5t-72 -15z" />
    <glyph glyph-name="one.inf" unicode="&#x2081;" horiz-adv-x="325" 
d="M121 -130v282l-76 -19l-28 100l141 40h98v-403h-135z" />
    <glyph glyph-name="one.inf_alt" 
d="M50 -130v104h97v178l-87 -21l-28 99l152 43h98v-299h85v-104h-317z" />
    <glyph glyph-name="two.inf" unicode="&#x2082;" 
d="M37 -32l160 121q31 23 31 46q0 13 -9 21t-25 8q-19 0 -37.5 -11t-41.5 -35l-81 75q29 38 69.5 60.5t100.5 22.5q35 0 63.5 -9.5t48.5 -26.5t31 -40t11 -49q0 -23 -6 -41.5t-17 -33.5t-26 -28.5t-34 -26.5l-64 -45h151v-106h-325v98z" />
    <glyph glyph-name="three.inf" unicode="&#x2083;" 
d="M197 -142q-60 0 -103 17t-75 48l69 80q47 -41 98 -41q47 0 47 36q0 16 -15 25.5t-47 9.5h-47l-16 59l96 72h-155v102h303v-93l-98 -71q44 -8 75.5 -33.5t31.5 -76.5q0 -32 -13 -57t-35.5 -42t-52.5 -26t-63 -9z" />
    <glyph glyph-name="four.inf" unicode="&#x2084;" 
d="M210 150l-81 -129h81v129zM335 -132h-129v65h-168l-17 97l158 240h156v-245h45v-92h-45v-65z" />
    <glyph glyph-name="five.inf" unicode="&#x2085;" 
d="M194 -140q-57 0 -98.5 17t-74.5 44l63 85q26 -19 51.5 -30t50.5 -11q22 0 34.5 10.5t12.5 27.5q0 19 -13.5 28.5t-35.5 9.5q-17 0 -30 -5t-27 -15l-80 38l18 207h278v-105h-185l-6 -51q16 5 32 8.5t44 3.5q27 0 51 -7.5t42.5 -22t29 -37t10.5 -52.5q0 -36 -13 -63
t-35.5 -44.5t-53 -26.5t-65.5 -9z" />
    <glyph glyph-name="six.inf" unicode="&#x2086;" 
d="M203 -46q21 0 30.5 13t9.5 33q0 18 -9.5 31t-30.5 13t-30.5 -13t-9.5 -31q0 -20 9.5 -33t30.5 -13zM208 -142q-38 0 -70 11.5t-55 34.5q-24 24 -37.5 60.5t-13.5 89.5v5q0 104 52 161.5t145 57.5q41 0 69.5 -9t54.5 -24l-44 -97q-15 11 -35 17.5t-40 6.5
q-31 0 -49.5 -19.5t-20.5 -54.5q15 11 36.5 18t50.5 7q21 0 42.5 -6t38 -19.5t27 -36t10.5 -54.5q0 -38 -13 -65.5t-34.5 -46.5t-51 -28t-62.5 -9z" />
    <glyph glyph-name="seven.inf" unicode="&#x2087;" 
d="M47 -133l168 286h-176v113h323v-105l-171 -294h-144z" />
    <glyph glyph-name="eight.inf" unicode="&#x2088;" 
d="M200 34q-20 0 -31.5 -12t-11.5 -30q0 -17 10.5 -29.5t32.5 -12.5q21 0 31.5 12.5t10.5 29.5q0 18 -11.5 30t-30.5 12zM200 187q-18 0 -28.5 -11t-10.5 -28q0 -19 11 -30t28 -11t27.5 11t10.5 30q0 17 -10.5 28t-27.5 11zM200 -141q-37 0 -68 8.5t-53 24t-34 37.5t-12 49
q0 37 18 60t50 37q-23 12 -40 33.5t-17 54.5q0 51 43 82.5t113 31.5q34 0 62.5 -8.5t49.5 -23.5t32.5 -36t11.5 -46q0 -32 -17 -53.5t-40 -34.5q29 -12 48.5 -35t19.5 -62q0 -27 -12.5 -49t-34.5 -37.5t-52.5 -24t-67.5 -8.5z" />
    <glyph glyph-name="nine.inf" unicode="&#x2089;" 
d="M197 88q20 0 29.5 14t9.5 32q0 20 -9.5 34t-29.5 14t-29.5 -14t-9.5 -34q0 -18 9.5 -32t29.5 -14zM192 278q38 0 70 -11.5t55 -34.5q24 -24 37.5 -60.5t13.5 -89.5v-5q0 -104 -50.5 -161t-143.5 -57q-41 0 -73.5 9.5t-61.5 27.5l44 96q19 -13 41 -20.5t42 -7.5
q64 0 76 70q-20 -10 -41.5 -17t-50.5 -7q-22 0 -43 6t-38 20t-27.5 36.5t-10.5 54.5q0 37 13 65.5t35 47.5t51 28.5t62 9.5z" />
    <glyph glyph-name="zero.tab" horiz-adv-x="600" 
d="M300 531q-35 0 -54.5 -37t-19.5 -118v-53q0 -81 19.5 -117.5t54.5 -36.5t54.5 36.5t19.5 117.5v53q0 81 -19.5 118t-54.5 37zM299 -15q-66 0 -118 25.5t-87.5 72t-54.5 111.5t-19 143v24q0 78 19 143t55.5 112t88.5 73t118 26t118 -26t87.5 -72.5t54.5 -111t19 -142.5
v-24q0 -78 -19 -143t-55.5 -112t-88.5 -73t-118 -26z" />
    <glyph glyph-name="one.tab" horiz-adv-x="600" 
d="M59 0v179h157v313l-141 -37l-44 173l245 77h162v-526h138v-179h-517z" />
    <glyph glyph-name="two.tab" horiz-adv-x="600" 
d="M20 0v173l276 212q25 20 39.5 39.5t14.5 42.5q0 22 -15.5 36t-43.5 14q-32 0 -64 -19.5t-73 -63.5l-139 133q51 67 120.5 106.5t173.5 39.5q60 0 109 -16.5t83.5 -46t53.5 -69.5t19 -86v-2q0 -41 -10.5 -72.5t-29.5 -58t-45.5 -49.5t-57.5 -46l-110 -81h259v-186h-560z
" />
    <glyph glyph-name="three.tab" horiz-adv-x="600" 
d="M305 -15q-103 0 -176.5 31t-129.5 86l127 145q77 -71 159 -71q39 0 59.5 15.5t20.5 41.5v2q0 26 -23.5 41.5t-72.5 15.5h-90l-28 104l150 118h-258v186h528v-170l-154 -111q38 -11 69.5 -27.5t53.5 -40.5t34 -56t12 -73v-2q0 -57 -22.5 -100.5t-60.5 -73.5t-89.5 -45.5
t-108.5 -15.5z" />
    <glyph glyph-name="three.tab_alt" horiz-adv-x="600" 
d="M293 -15q-96 0 -168.5 30.5t-125.5 84.5l120 141q40 -36 78 -52.5t82 -16.5q41 0 62 16t21 37q0 20 -19 34.5t-68 14.5h-74v158h77q43 0 61 13.5t18 33.5q0 23 -21.5 36t-53.5 13q-42 0 -78 -18.5t-65 -46.5l-116 138q22 23 50.5 44t64.5 36.5t79 24.5t94 9q61 0 110 -13
t83.5 -37.5t53 -59t18.5 -77.5q0 -60 -33.5 -101.5t-88.5 -61.5q28 -8 52 -21.5t41.5 -34t27.5 -48t10 -62.5q0 -49 -21 -88.5t-59 -67.5t-92 -43t-120 -15z" />
    <glyph glyph-name="four.tab" horiz-adv-x="600" 
d="M316 482l-133 -210h133v210zM310 116h-285l-24 159l281 428h237v-427h74v-160h-74v-116h-209v116z" />
    <glyph glyph-name="five.tab" horiz-adv-x="600" 
d="M292 -15q-94 0 -166 27.5t-127 77.5l114 153q45 -35 85 -53t82 -18t63 19t21 50v2q0 31 -20 48.5t-58 17.5q-30 0 -56 -10t-51 -27l-137 64l29 364h482v-187h-318l-9 -87q26 11 58.5 18t74.5 7q47 0 88 -13t71.5 -39t48 -65.5t17.5 -93.5v-2q0 -63 -22.5 -110.5
t-61.5 -79t-92.5 -47.5t-115.5 -16z" />
    <glyph glyph-name="six.tab" horiz-adv-x="600" 
d="M302 152q34 0 50.5 22.5t16.5 56.5q0 33 -16.5 56t-50.5 23t-50.5 -23t-16.5 -56t16.5 -56t50.5 -23zM383 450q34 0 68.5 -11.5t62 -35.5t45 -61.5t17.5 -90.5v-10q0 -63 -21.5 -111t-58 -80t-84.5 -48.5t-101 -16.5q-70 0 -118 20t-83 55q-40 40 -63 103t-23 162v10
q0 90 22 160.5t64 119t102.5 74t138.5 25.5q63 0 111.5 -15t89.5 -41l-75 -168q-27 19 -57 30.5t-65 11.5q-54 0 -85 -34t-36 -97q32 26 70.5 37.5t78.5 11.5z" />
    <glyph glyph-name="seven.tab" horiz-adv-x="600" 
d="M29 502v198h556v-184l-293 -516h-249l292 502h-306z" />
    <glyph glyph-name="eight.tab" horiz-adv-x="600" 
d="M300 146q37 0 55.5 21t18.5 50v3q0 31 -20 50.5t-54 19.5t-54 -19.5t-20 -50.5v-3q0 -29 18 -50t56 -21zM300 419q32 0 51 18.5t19 49.5v3q0 29 -19 48t-51 19t-51 -19t-19 -48v-3q0 -31 19 -49.5t51 -18.5zM300 -13q-65 0 -118 15t-90.5 42t-58.5 65t-21 84v3
q0 63 31 103.5t85 63.5q-39 21 -68.5 58.5t-29.5 93.5v3q0 43 19.5 78.5t55.5 61.5t85.5 40.5t109.5 14.5t109.5 -14.5t85 -40t55.5 -61.5t20 -79v-3q0 -56 -30 -93t-69 -59q52 -22 84.5 -61.5t32.5 -105.5v-3q0 -47 -21 -85t-59 -65t-91 -41.5t-117 -14.5z" />
    <glyph glyph-name="nine.tab" horiz-adv-x="600" 
d="M298 548q-34 0 -50.5 -24.5t-16.5 -57.5t16.5 -57.5t50.5 -24.5t50.5 24t16.5 58q0 33 -16.5 57.5t-50.5 24.5zM216 244q-34 0 -68.5 11.5t-62 36.5t-44.5 63t-17 91v10q0 63 21.5 111.5t58 81t84.5 49.5t101 17q70 0 118 -20t83 -55q40 -40 63 -103t23 -162v-10
q0 -90 -22 -160.5t-63.5 -119t-100.5 -74t-133 -25.5q-69 0 -124.5 17t-98.5 46l75 168q32 -23 65.5 -36t70.5 -13q54 0 84.5 29.5t36.5 94.5q-32 -26 -71 -37t-79 -11z" />
    <glyph glyph-name="period.tab" horiz-adv-x="300" 
d="M34 230h232v-230h-232v230z" />
    <glyph glyph-name="comma.tab" horiz-adv-x="300" 
d="M23 -85q49 6 75.5 28.5t26.5 60.5h-91v230h232v-183q0 -62 -17 -103t-47 -66t-71 -36.5t-90 -13.5z" />
    <glyph glyph-name="colon.tab" horiz-adv-x="300" 
d="M34 230h232v-230h-232v230zM34 546h232v-230h-232v230z" />
    <glyph glyph-name="semicolon.tab" horiz-adv-x="300" 
d="M23 -89q49 6 75.5 28.5t26.5 60.5h-91v230h232v-183q0 -62 -17 -103t-47 -66t-71 -36.5t-90 -13.5zM34 546h232v-230h-232v230z" />
    <glyph glyph-name="twodotleader.tab" horiz-adv-x="600" 
d="M37 220h226v-220h-226v220zM337 220h226v-220h-226v220z" />
    <glyph glyph-name="periodcentered.tab" horiz-adv-x="300" 
d="M34 430h232v-230h-232v230z" />
    <glyph glyph-name="slash.tab" horiz-adv-x="600" 
d="M141 -128h-179l483 926h179z" />
    <glyph glyph-name="bar.tab" horiz-adv-x="300" 
d="M65 798h170v-926h-170v926z" />
    <glyph glyph-name="underscore.tab" horiz-adv-x="600" 
d="M-2 -44h604v-116h-604v116z" />
    <glyph glyph-name="dollar.tab" horiz-adv-x="600" 
d="M223 500q0 -14 12 -24.5t46 -21.5l10 83q-38 -1 -53 -11.5t-15 -25.5zM403 202q0 14 -13.5 25t-52.5 22l-11 -86q41 0 59 10.5t18 28.5zM400 693q48 -8 88 -23.5t75 -37.5l-68 -159q-28 19 -58.5 31.5t-61.5 19.5l-11 -85q52 -15 94 -33.5t70.5 -44t44 -59t15.5 -78.5
q0 -56 -19.5 -98t-55.5 -70t-86 -42.5t-110 -14.5h-1l-14 -109h-99l15 116q-119 18 -210 80l72 158q86 -54 163 -69l10 85q-50 15 -91 33.5t-70 45t-45 61t-16 81.5q0 49 17.5 89.5t51.5 69.5t84.5 45t116.5 16h1l10 79h99z" />
    <glyph glyph-name="sterling.tab" horiz-adv-x="600" 
d="M99 433q0 136 74 210q38 38 86 54.5t119 16.5q63 0 119 -23.5t94 -60.5l-97 -158q-20 20 -43.5 32.5t-49.5 12.5q-40 0 -60 -23t-20 -63v-24h190v-153h-190v-81h262v-173h-556v129l72 32v93h-72v153h72v26z" />
    <glyph glyph-name="Euro.tab" horiz-adv-x="600" 
d="M25 485h70q11 51 36.5 93t64 72.5t87.5 47t108 16.5q67 0 118.5 -20t89.5 -57l-86 -168q-20 24 -48 40t-64 16q-29 0 -52.5 -12.5t-37.5 -37.5h123v-104h-142v-38h142v-104h-126q12 -26 35 -40t53 -14q34 0 59 17t43 38l104 -145q-20 -21 -42.5 -39t-50 -31.5t-61.5 -21
t-76 -7.5q-51 0 -98 15.5t-84.5 45.5t-63.5 73t-36 99h-65v113h61v40h-61v113z" />
    <glyph glyph-name="yen.tab" horiz-adv-x="600" 
d="M194 182v59h-147v106h124l-181 353h226l86 -215l86 215h222l-182 -353h125v-106h-147v-59h147v-106h-147v-76h-212v76h-147v106h147z" />
    <glyph glyph-name="cent.tab" horiz-adv-x="600" 
d="M216 345q0 -71 48 -98l36 228q-42 -12 -63 -47.5t-21 -80.5v-2zM437 623q57 -18 91 -51.5t54 -72.5l-132 -84q-14 20 -26.5 32.5t-27.5 20.5l-37 -235q56 9 91 64l134 -86q-35 -60 -93 -95t-141 -42l-13 -80h-127l15 92q-43 13 -78.5 37.5t-61 58.5t-39.5 76t-14 89v2
q0 60 21 112t58 91t88.5 62t112.5 25l11 67h127z" />
    <glyph glyph-name="numbersign.tab" horiz-adv-x="600" 
d="M239 296h104l17 112h-104zM108 302l15 100h-75v174h100l19 124h135l-18 -124h97l19 124h135l-19 -124h66v-174h-91l-15 -100h75v-174h-100l-19 -128h-135l19 128h-98l-19 -128h-135l19 128h-66v174h91z" />
    <glyph glyph-name="paragraph.tab" horiz-adv-x="600" 
d="M326 210h-17q-66 0 -121 16t-94.5 47t-61.5 76.5t-22 103.5q0 61 21.5 107t62 77t97 47t127.5 16h242v-700h-234v210z" />
    <glyph glyph-name="section.tab" horiz-adv-x="600" 
d="M228 395q-20 0 -32 -7t-12 -21q0 -16 27.5 -25.5t69.5 -20.5q30 -8 53 -12t40 -4q20 0 32 7t12 21q0 16 -27.5 25.5t-69.5 20.5q-30 8 -53 12t-40 4zM294 -15q-81 0 -143.5 19t-96.5 40l64 136q20 -11 43 -20t46.5 -16t46 -10.5t42.5 -3.5q24 0 33 6.5t9 17.5q0 6 -4 11
t-16 9.5t-33.5 10.5t-55.5 14q-60 15 -99 28.5t-61.5 29.5t-31.5 34t-9 42q0 45 28 70.5t68 38.5q-25 19 -40.5 44t-15.5 63q0 36 15.5 66.5t45.5 52.5t75 34.5t104 12.5q81 0 143.5 -19t96.5 -40l-64 -136q-20 11 -43 20t-46.5 16t-46.5 10.5t-42 3.5q-24 0 -33 -6.5
t-9 -17.5q0 -6 4 -11t16 -9.5t33 -10.5t56 -14q60 -15 99 -28.5t61.5 -29.5t31.5 -34t9 -42q0 -45 -28 -70.5t-68 -38.5q25 -19 40.5 -44t15.5 -63q0 -36 -15.5 -66.5t-45.5 -52.5t-75 -34.5t-104 -12.5z" />
    <glyph glyph-name="degree.tab" horiz-adv-x="600" 
d="M301 386q45 0 71.5 29.5t26.5 73.5t-27.5 74.5t-72.5 30.5t-71.5 -29.5t-26.5 -73.5t27.5 -74.5t72.5 -30.5zM299 268q-47 0 -88 17t-72 46.5t-48.5 70t-17.5 87.5t18 87.5t49 70.5t72.5 47.5t88.5 17.5t88 -17t72 -46.5t48.5 -70t17.5 -87.5t-18 -87.5t-49 -70.5
t-72.5 -47.5t-88.5 -17.5z" />
    <glyph glyph-name="percent.tab" horiz-adv-x="600" 
d="M457 306q-13 0 -20.5 -18t-7.5 -69v-44q0 -51 7.5 -69t20.5 -18t20.5 18t7.5 69v44q0 51 -7.5 69t-20.5 18zM143 612q-13 0 -20.5 -18t-7.5 -69v-44q0 -51 7.5 -69t20.5 -18t20.5 18t7.5 69v44q0 51 -7.5 69t-20.5 18zM510 700l-186 -361l-147 -339h-83l186 361l147 339
h83zM457 401q27 0 50.5 -11.5t40.5 -35.5t27 -61t10 -89v-14q0 -52 -10 -89t-27 -61t-40.5 -35.5t-50.5 -11.5t-50.5 11.5t-40.5 35.5t-27 61t-10 89v14q0 51 10.5 88t28 61t40.5 36t49 12zM143 707q27 0 50.5 -11.5t40.5 -35.5t27 -61t10 -89v-14q0 -51 -10.5 -88t-28 -61
t-40.5 -36t-49 -12q-27 0 -50.5 11.5t-40.5 35.5t-27 61t-10 89v14q0 52 10 89t27 61t40.5 35.5t50.5 11.5z" />
    <glyph glyph-name="quotedbl.tab" horiz-adv-x="600" 
d="M69 700h239v-5l-144 -394h-122zM346 700h239v-5l-144 -394h-122z" />
    <glyph glyph-name="quotesingle.tab" horiz-adv-x="300" 
d="M57 700h244v-5l-144 -394h-127z" />
    <glyph glyph-name="plus.tab" horiz-adv-x="600" 
d="M396 258l1 -164h-194l1 164l-165 -1v190l165 -1l-1 164h194l-1 -164l165 1v-190z" />
    <glyph glyph-name="minus.tab" horiz-adv-x="600" 
d="M39 254v196h522v-196h-522z" />
    <glyph glyph-name="divide.tab" horiz-adv-x="600" 
d="M200 215h200v-178h-200v178zM39 264v176h522v-176h-522zM200 667h200v-178h-200v178z" />
    <glyph glyph-name="equal.tab" horiz-adv-x="600" 
d="M44 125v182h512v-182h-512zM44 397v182h512v-182h-512z" />
    <glyph glyph-name="multiply.tab" horiz-adv-x="600" 
d="M298 221l-131 -135l-133 133l135 131l-135 131l137 137l131 -135l131 135l133 -133l-135 -131l135 -131l-137 -137z" />
    <glyph glyph-name="less.tab" horiz-adv-x="600" 
d="M40 248v207l511 188v-199l-310 -92l310 -92v-200z" />
    <glyph glyph-name="greater.tab" horiz-adv-x="600" 
d="M49 60v199l310 92l-310 92v200l511 -188v-207z" />
    <glyph glyph-name="plusminus.tab" horiz-adv-x="600" 
d="M44 0v154h512v-154h-512zM391 373l1 -159h-184l1 159l-165 -1v170l165 -1l-1 159h184l-1 -159l165 1v-170z" />
    <glyph glyph-name="emspace" unicode="&#x2003;" horiz-adv-x="1000" 
 />
    <glyph glyph-name="enspace" unicode="&#x2002;" horiz-adv-x="500" 
 />
    <glyph glyph-name="threeperemspace" unicode="&#x2004;" horiz-adv-x="333" 
 />
    <glyph glyph-name="fourperemspace" unicode="&#x2005;" horiz-adv-x="250" 
 />
    <glyph glyph-name="thinspace" unicode="&#x2009;" horiz-adv-x="133" 
 />
    <glyph glyph-name="hairspace" unicode="&#x200a;" horiz-adv-x="75" 
 />
    <glyph glyph-name="space.tab" horiz-adv-x="300" 
 />
    <glyph glyph-name="figurespace" unicode="&#x2007;" horiz-adv-x="600" 
 />
    <glyph glyph-name="hfjslug" horiz-adv-x="694" 
d="M426 283q-8 0 -12 5t-4 12q0 6 4 11.5t12 5.5t12 -5.5t4 -11.5q0 -7 -4 -12t-12 -5zM476 299v17h11q10 0 10 -8q0 -9 -10 -9h-11zM342 423q-8 -21 -20 -21q-16 0 -16 25q0 10 4.5 19t11.5 16zM327 479l-8.5 17t-3.5 15q0 19 14 19q13 0 13 -19q0 -16 -15 -32zM255 276h8
l11 34h1l11 -34h8l14 47h-8l-10 -35h-1l-11 35h-7l-11 -35h-1l-10 35h-8zM132 277h8v32l25 -32h7v46h-8v-32l-25 32h-7v-46zM193 277h34v7h-26v13h23v7h-23v12h26v7h-34v-46zM357 323h-9l18 -29v-17h8v17l18 29h-9l-13 -22zM426 276q11 0 17.5 7t6.5 17q0 9 -6.5 16.5
t-17.5 7.5t-17.5 -7.5t-6.5 -16.5q0 -10 6.5 -17t17.5 -7zM498 277h9l-12 17q10 4 10 14q0 15 -17 15h-20v-46h8v15h12zM523 277h8v12l8 8l15 -20h10l-20 26l18 20h-10l-20 -24h-1v24h-8v-46zM358 468q-2 -7 -4 -15t-4 -15h-1l-16 31q10 9 16.5 19.5t6.5 22.5q0 13 -6.5 22
t-20.5 9q-13 0 -20.5 -9t-7.5 -22q0 -11 4 -19.5t10 -19.5q-23 -18 -23 -47q0 -17 8 -27t21 -10q19 0 29 24h1l12 -24l12 6l-17 32q4 9 7 18.5t6 20.5zM460 394q10 -4 21 -4q31 0 31 36v137h-16v-137q0 -22 -16 -22q-5 0 -10.5 1.5t-9.5 3.5v-15zM184 391h15v79h47v-79h15
v172h-15v-79h-47v79h-15v-172zM400 391h15v78h38v14h-38v66h43v14h-58v-172zM436 -200l-8 14h-163l-8 -14h-207v303q14 0 23 9t9 23q0 13 -9 22.5t-23 9.5v554h100l30 79h334l29 -79h101v-921h-208z" />
    <glyph glyph-name="i.dot" horiz-adv-x="299" 
d="M36 546h227v-546h-227v546zM32 730h235v-145h-235v145z" />
    <glyph glyph-name="zero.num" 
d="M200 606q-43 0 -43 -87v-34q0 -45 11.5 -65.5t31.5 -20.5t31.5 20.5t11.5 65.5v34q0 87 -43 87zM199 292q-40 0 -71.5 15t-53 42t-33 64.5t-11.5 82.5v11q0 45 11.5 83t33.5 65t54 42t72 15t71 -15t53 -42t33.5 -64.5t11.5 -82.5v-11q0 -45 -11.5 -82.5t-33.5 -65
t-54 -42.5t-72 -15z" />
    <glyph glyph-name="one.num" horiz-adv-x="325" 
d="M121 304v282l-76 -19l-28 100l141 40h98v-403h-135z" />
    <glyph glyph-name="one.num_alt" 
d="M50 304v104h97v178l-87 -21l-28 99l152 43h98v-299h85v-104h-317z" />
    <glyph glyph-name="two.num" 
d="M37 402l160 121q31 23 31 46q0 13 -9 21t-25 8q-19 0 -37.5 -11t-41.5 -35l-81 75q29 38 69.5 60.5t100.5 22.5q35 0 63.5 -9.5t48.5 -26.5t31 -40t11 -49q0 -23 -6 -41.5t-17 -33.5t-26 -28.5t-34 -26.5l-64 -45h151v-106h-325v98z" />
    <glyph glyph-name="three.num" 
d="M197 292q-60 0 -103 17t-75 48l69 80q23 -20 47.5 -30.5t50.5 -10.5q47 0 47 36q0 16 -15 25.5t-47 9.5h-47l-16 59l96 72h-155v102h303v-93l-98 -71q44 -8 75.5 -33.5t31.5 -76.5q0 -32 -13 -57t-35.5 -42t-52.5 -26t-63 -9z" />
    <glyph glyph-name="four.num" 
d="M210 584l-81 -129h81v129zM335 302h-129v65h-168l-17 97l158 240h156v-245h45v-92h-45v-65z" />
    <glyph glyph-name="five.num" 
d="M194 294q-57 0 -98.5 17t-74.5 44l63 85q26 -19 51.5 -30t50.5 -11q22 0 34.5 10.5t12.5 27.5q0 19 -13.5 28.5t-35.5 9.5q-17 0 -30 -5t-27 -15l-80 38l18 207h278v-105h-185l-6 -51q16 5 32 8.5t44 3.5q27 0 51 -7.5t42.5 -22t29 -37t10.5 -52.5q0 -36 -13 -63
t-35.5 -44.5t-53 -26.5t-65.5 -9z" />
    <glyph glyph-name="six.num" 
d="M203 388q21 0 30.5 13t9.5 33q0 18 -9.5 31t-30.5 13t-30.5 -13t-9.5 -31q0 -20 9.5 -33t30.5 -13zM208 292q-38 0 -70 11.5t-55 34.5q-24 24 -37.5 60.5t-13.5 89.5v5q0 104 52 161.5t145 57.5q41 0 69.5 -9t54.5 -24l-44 -97q-15 11 -35 17.5t-40 6.5
q-31 0 -49.5 -19.5t-20.5 -54.5q15 11 36.5 18t50.5 7q21 0 42.5 -6t38 -19.5t27 -36t10.5 -54.5q0 -38 -13 -65.5t-34.5 -46.5t-51 -28t-62.5 -9z" />
    <glyph glyph-name="seven.num" 
d="M47 301l168 286h-176v113h323v-105l-171 -294h-144z" />
    <glyph glyph-name="eight.num" 
d="M200 468q-20 0 -31.5 -12t-11.5 -30q0 -17 10.5 -29.5t32.5 -12.5q21 0 31.5 12.5t10.5 29.5q0 18 -11.5 30t-30.5 12zM200 621q-18 0 -28.5 -11t-10.5 -28q0 -19 11 -30t28 -11t27.5 11t10.5 30q0 17 -10.5 28t-27.5 11zM200 293q-37 0 -68 8.5t-53 24t-34 37.5t-12 49
q0 37 18 60t50 37q-23 12 -40 33.5t-17 54.5q0 51 43 82.5t113 31.5q34 0 62.5 -8.5t49.5 -23.5t32.5 -36t11.5 -46q0 -32 -17 -53.5t-40 -34.5q29 -12 48.5 -35t19.5 -62q0 -27 -12.5 -49t-34.5 -37.5t-52.5 -24t-67.5 -8.5z" />
    <glyph glyph-name="nine.num" 
d="M197 522q20 0 29.5 14t9.5 32q0 20 -9.5 34t-29.5 14t-29.5 -14t-9.5 -34q0 -18 9.5 -32t29.5 -14zM192 712q38 0 70 -11.5t55 -34.5q24 -24 37.5 -60.5t13.5 -89.5v-5q0 -104 -50.5 -161t-143.5 -57q-41 0 -73.5 9.5t-61.5 27.5l44 96q19 -13 41 -20.5t42 -7.5
q64 0 76 70q-20 -10 -41.5 -17t-50.5 -7q-22 0 -43 6t-38 20t-27.5 36.5t-10.5 54.5q0 37 13 65.5t35 47.5t51 28.5t62 9.5z" />
    <glyph glyph-name="zero.den" 
d="M200 302q-43 0 -43 -87v-34q0 -45 11.5 -65.5t31.5 -20.5t31.5 20.5t11.5 65.5v34q0 87 -43 87zM199 -12q-40 0 -71.5 15t-53 42t-33 64.5t-11.5 82.5v11q0 45 11.5 83t33.5 65t54 42t72 15t71 -15t53 -42t33.5 -64.5t11.5 -82.5v-11q0 -45 -11.5 -82.5t-33.5 -65
t-54 -42.5t-72 -15z" />
    <glyph glyph-name="one.den" horiz-adv-x="325" 
d="M121 0v282l-76 -19l-28 100l141 40h98v-403h-135z" />
    <glyph glyph-name="one.den_alt" 
d="M50 0v104h97v178l-87 -21l-28 99l152 43h98v-299h85v-104h-317z" />
    <glyph glyph-name="two.den" 
d="M37 98l160 121q31 23 31 46q0 13 -9 21t-25 8q-19 0 -37.5 -11t-41.5 -35l-81 75q29 38 69.5 60.5t100.5 22.5q35 0 63.5 -9.5t48.5 -26.5t31 -40t11 -49q0 -23 -6 -41.5t-17 -33.5t-26 -28.5t-34 -26.5l-64 -45h151v-106h-325v98z" />
    <glyph glyph-name="three.den" 
d="M197 -12q-60 0 -103 17t-75 48l69 80q23 -20 47.5 -30.5t50.5 -10.5q47 0 47 36q0 16 -15 25.5t-47 9.5h-47l-16 59l96 72h-155v102h303v-93l-98 -71q44 -8 75.5 -33.5t31.5 -76.5q0 -32 -13 -57t-35.5 -42t-52.5 -26t-63 -9z" />
    <glyph glyph-name="four.den" 
d="M210 280l-81 -129h81v129zM335 -2h-129v65h-168l-17 97l158 240h156v-245h45v-92h-45v-65z" />
    <glyph glyph-name="five.den" 
d="M194 -10q-57 0 -98.5 17t-74.5 44l63 85q26 -19 51.5 -30t50.5 -11q22 0 34.5 10.5t12.5 27.5q0 19 -13.5 28.5t-35.5 9.5q-17 0 -30 -5t-27 -15l-80 38l18 207h278v-105h-185l-6 -51q16 5 32 8.5t44 3.5q27 0 51 -7.5t42.5 -22t29 -37t10.5 -52.5q0 -36 -13 -63
t-35.5 -44.5t-53 -26.5t-65.5 -9z" />
    <glyph glyph-name="six.den" 
d="M203 84q21 0 30.5 13t9.5 33q0 18 -9.5 31t-30.5 13t-30.5 -13t-9.5 -31q0 -20 9.5 -33t30.5 -13zM208 -12q-38 0 -70 11.5t-55 34.5q-24 24 -37.5 60.5t-13.5 89.5v5q0 104 52 161.5t145 57.5q41 0 69.5 -9t54.5 -24l-44 -97q-15 11 -35 17.5t-40 6.5q-31 0 -49.5 -19.5
t-20.5 -54.5q15 11 36.5 18t50.5 7q21 0 42.5 -6t38 -19.5t27 -36t10.5 -54.5q0 -38 -13 -65.5t-34.5 -46.5t-51 -28t-62.5 -9z" />
    <glyph glyph-name="seven.den" 
d="M47 -3l168 286h-176v113h323v-105l-171 -294h-144z" />
    <glyph glyph-name="eight.den" 
d="M200 164q-20 0 -31.5 -12t-11.5 -30q0 -17 10.5 -29.5t32.5 -12.5q21 0 31.5 12.5t10.5 29.5q0 18 -11.5 30t-30.5 12zM200 317q-18 0 -28.5 -11t-10.5 -28q0 -19 11 -30t28 -11t27.5 11t10.5 30q0 17 -10.5 28t-27.5 11zM200 -11q-37 0 -68 8.5t-53 24t-34 37.5t-12 49
q0 37 18 60t50 37q-23 12 -40 33.5t-17 54.5q0 51 43 82.5t113 31.5q34 0 62.5 -8.5t49.5 -23.5t32.5 -36t11.5 -46q0 -32 -17 -53.5t-40 -34.5q29 -12 48.5 -35t19.5 -62q0 -27 -12.5 -49t-34.5 -37.5t-52.5 -24t-67.5 -8.5z" />
    <glyph glyph-name="nine.den" 
d="M197 218q20 0 29.5 14t9.5 32q0 20 -9.5 34t-29.5 14t-29.5 -14t-9.5 -34q0 -18 9.5 -32t29.5 -14zM192 408q38 0 70 -11.5t55 -34.5q24 -24 37.5 -60.5t13.5 -89.5v-5q0 -104 -50.5 -161t-143.5 -57q-41 0 -73.5 9.5t-61.5 27.5l44 96q19 -13 41 -20.5t42 -7.5
q64 0 76 70q-20 -10 -41.5 -17t-50.5 -7q-22 0 -43 6t-38 20t-27.5 36.5t-10.5 54.5q0 37 13 65.5t35 47.5t51 28.5t62 9.5z" />
    <glyph glyph-name="caron.alt" horiz-adv-x="500" 
d="M189 800h153v-4l-72 -218h-93z" />
    <glyph glyph-name="acute.cap" horiz-adv-x="500" 
d="M207 907l231 -52l-160 -115h-167z" />
    <glyph glyph-name="hungarumlaut.cap" horiz-adv-x="500" 
d="M249 813l-96 -73h-146l86 167l181 -45l23 45l210 -52l-150 -115h-146z" />
    <glyph glyph-name="grave.cap" horiz-adv-x="500" 
d="M222 740l-160 115l231 52l96 -167h-167z" />
    <glyph glyph-name="circumflex.cap" horiz-adv-x="500" 
d="M153 892h194l118 -152h-137l-79 51l-79 -51h-135z" />
    <glyph glyph-name="caron.cap" horiz-adv-x="500" 
d="M347 740h-194l-118 152h137l79 -51l79 51h135z" />
    <glyph glyph-name="breve.cap" horiz-adv-x="500" 
d="M250 738q-87 0 -139 38t-65 116h125q9 -20 28 -31t51 -11t50.5 11t28.5 31h124q-12 -78 -64 -116t-139 -38z" />
    <glyph glyph-name="tilde.cap" horiz-adv-x="500" 
d="M348 740q-24 0 -51.5 7t-54.5 15q-23 7 -40.5 12t-27.5 5q-19 0 -28.5 -10.5t-18.5 -33.5l-101 25q15 86 45 122.5t81 36.5q24 0 51.5 -7t54.5 -15q23 -7 40.5 -12t27.5 -5q19 0 28.5 10.5t18.5 33.5l101 -25q-15 -86 -45 -122.5t-81 -36.5z" />
    <glyph glyph-name="macron.cap" horiz-adv-x="500" 
d="M42 877h416v-127h-416v127z" />
    <glyph glyph-name="dieresis.cap" horiz-adv-x="500" 
d="M46 890h184v-150h-184v150zM270 890h184v-150h-184v150z" />
    <glyph glyph-name="dotaccent.cap" horiz-adv-x="500" 
d="M155 890h190v-150h-190v150z" />
    <glyph glyph-name="ring.cap" horiz-adv-x="500" 
d="M250 812q36 0 58.5 21t22.5 53t-22.5 53t-58.5 21t-58.5 -21t-22.5 -53t22.5 -53t58.5 -21zM250 745q-33 0 -62 11t-50.5 29.5t-33.5 44.5t-12 56t12 56t33.5 44.5t50.5 29.5t62 11t62 -11t50.5 -29.5t33.5 -44.5t12 -56t-12 -56t-33.5 -44.5t-50.5 -29.5t-62 -11z" />
    <glyph glyph-name="commaaccent" unicode="&#x326;" horiz-adv-x="500" 
d="M151 -254q47 5 63.5 19t14.5 40h-72v156h185v-125q0 -42 -12.5 -71t-36 -47.5t-57.5 -27.5t-77 -11z" />
    </font>
</defs>
</svg>
